G04 #@! TF.GenerationSoftware,KiCad,Pcbnew,(5.1.5)-3*
G04 #@! TF.CreationDate,2020-07-30T14:07:20+07:00*
G04 #@! TF.ProjectId,lora_shield,6c6f7261-5f73-4686-9965-6c642e6b6963,rev?*
G04 #@! TF.SameCoordinates,Original*
G04 #@! TF.FileFunction,Soldermask,Bot*
G04 #@! TF.FilePolarity,Negative*
%FSLAX46Y46*%
G04 Gerber Fmt 4.6, Leading zero omitted, Abs format (unit mm)*
G04 Created by KiCad (PCBNEW (5.1.5)-3) date 2020-07-30 14:07:20*
%MOMM*%
%LPD*%
G04 APERTURE LIST*
%ADD10C,0.100000*%
G04 APERTURE END LIST*
D10*
G36*
X171944512Y-112641927D02*
G01*
X172093812Y-112671624D01*
X172257784Y-112739544D01*
X172405354Y-112838147D01*
X172530853Y-112963646D01*
X172629456Y-113111216D01*
X172697376Y-113275188D01*
X172732000Y-113449259D01*
X172732000Y-113626741D01*
X172697376Y-113800812D01*
X172629456Y-113964784D01*
X172530853Y-114112354D01*
X172405354Y-114237853D01*
X172257784Y-114336456D01*
X172093812Y-114404376D01*
X171944512Y-114434073D01*
X171919742Y-114439000D01*
X171742258Y-114439000D01*
X171717488Y-114434073D01*
X171568188Y-114404376D01*
X171404216Y-114336456D01*
X171256646Y-114237853D01*
X171131147Y-114112354D01*
X171032544Y-113964784D01*
X170964624Y-113800812D01*
X170930000Y-113626741D01*
X170930000Y-113449259D01*
X170964624Y-113275188D01*
X171032544Y-113111216D01*
X171131147Y-112963646D01*
X171256646Y-112838147D01*
X171404216Y-112739544D01*
X171568188Y-112671624D01*
X171717488Y-112641927D01*
X171742258Y-112637000D01*
X171919742Y-112637000D01*
X171944512Y-112641927D01*
G37*
G36*
X161784512Y-112641927D02*
G01*
X161933812Y-112671624D01*
X162097784Y-112739544D01*
X162245354Y-112838147D01*
X162370853Y-112963646D01*
X162469456Y-113111216D01*
X162537376Y-113275188D01*
X162572000Y-113449259D01*
X162572000Y-113626741D01*
X162537376Y-113800812D01*
X162469456Y-113964784D01*
X162370853Y-114112354D01*
X162245354Y-114237853D01*
X162097784Y-114336456D01*
X161933812Y-114404376D01*
X161784512Y-114434073D01*
X161759742Y-114439000D01*
X161582258Y-114439000D01*
X161557488Y-114434073D01*
X161408188Y-114404376D01*
X161244216Y-114336456D01*
X161096646Y-114237853D01*
X160971147Y-114112354D01*
X160872544Y-113964784D01*
X160804624Y-113800812D01*
X160770000Y-113626741D01*
X160770000Y-113449259D01*
X160804624Y-113275188D01*
X160872544Y-113111216D01*
X160971147Y-112963646D01*
X161096646Y-112838147D01*
X161244216Y-112739544D01*
X161408188Y-112671624D01*
X161557488Y-112641927D01*
X161582258Y-112637000D01*
X161759742Y-112637000D01*
X161784512Y-112641927D01*
G37*
G36*
X160032000Y-114439000D02*
G01*
X158230000Y-114439000D01*
X158230000Y-112637000D01*
X160032000Y-112637000D01*
X160032000Y-114439000D01*
G37*
G36*
X164324512Y-112641927D02*
G01*
X164473812Y-112671624D01*
X164637784Y-112739544D01*
X164785354Y-112838147D01*
X164910853Y-112963646D01*
X165009456Y-113111216D01*
X165077376Y-113275188D01*
X165112000Y-113449259D01*
X165112000Y-113626741D01*
X165077376Y-113800812D01*
X165009456Y-113964784D01*
X164910853Y-114112354D01*
X164785354Y-114237853D01*
X164637784Y-114336456D01*
X164473812Y-114404376D01*
X164324512Y-114434073D01*
X164299742Y-114439000D01*
X164122258Y-114439000D01*
X164097488Y-114434073D01*
X163948188Y-114404376D01*
X163784216Y-114336456D01*
X163636646Y-114237853D01*
X163511147Y-114112354D01*
X163412544Y-113964784D01*
X163344624Y-113800812D01*
X163310000Y-113626741D01*
X163310000Y-113449259D01*
X163344624Y-113275188D01*
X163412544Y-113111216D01*
X163511147Y-112963646D01*
X163636646Y-112838147D01*
X163784216Y-112739544D01*
X163948188Y-112671624D01*
X164097488Y-112641927D01*
X164122258Y-112637000D01*
X164299742Y-112637000D01*
X164324512Y-112641927D01*
G37*
G36*
X166864512Y-112641927D02*
G01*
X167013812Y-112671624D01*
X167177784Y-112739544D01*
X167325354Y-112838147D01*
X167450853Y-112963646D01*
X167549456Y-113111216D01*
X167617376Y-113275188D01*
X167652000Y-113449259D01*
X167652000Y-113626741D01*
X167617376Y-113800812D01*
X167549456Y-113964784D01*
X167450853Y-114112354D01*
X167325354Y-114237853D01*
X167177784Y-114336456D01*
X167013812Y-114404376D01*
X166864512Y-114434073D01*
X166839742Y-114439000D01*
X166662258Y-114439000D01*
X166637488Y-114434073D01*
X166488188Y-114404376D01*
X166324216Y-114336456D01*
X166176646Y-114237853D01*
X166051147Y-114112354D01*
X165952544Y-113964784D01*
X165884624Y-113800812D01*
X165850000Y-113626741D01*
X165850000Y-113449259D01*
X165884624Y-113275188D01*
X165952544Y-113111216D01*
X166051147Y-112963646D01*
X166176646Y-112838147D01*
X166324216Y-112739544D01*
X166488188Y-112671624D01*
X166637488Y-112641927D01*
X166662258Y-112637000D01*
X166839742Y-112637000D01*
X166864512Y-112641927D01*
G37*
G36*
X169404512Y-112641927D02*
G01*
X169553812Y-112671624D01*
X169717784Y-112739544D01*
X169865354Y-112838147D01*
X169990853Y-112963646D01*
X170089456Y-113111216D01*
X170157376Y-113275188D01*
X170192000Y-113449259D01*
X170192000Y-113626741D01*
X170157376Y-113800812D01*
X170089456Y-113964784D01*
X169990853Y-114112354D01*
X169865354Y-114237853D01*
X169717784Y-114336456D01*
X169553812Y-114404376D01*
X169404512Y-114434073D01*
X169379742Y-114439000D01*
X169202258Y-114439000D01*
X169177488Y-114434073D01*
X169028188Y-114404376D01*
X168864216Y-114336456D01*
X168716646Y-114237853D01*
X168591147Y-114112354D01*
X168492544Y-113964784D01*
X168424624Y-113800812D01*
X168390000Y-113626741D01*
X168390000Y-113449259D01*
X168424624Y-113275188D01*
X168492544Y-113111216D01*
X168591147Y-112963646D01*
X168716646Y-112838147D01*
X168864216Y-112739544D01*
X169028188Y-112671624D01*
X169177488Y-112641927D01*
X169202258Y-112637000D01*
X169379742Y-112637000D01*
X169404512Y-112641927D01*
G37*
G36*
X154952000Y-114439000D02*
G01*
X153150000Y-114439000D01*
X153150000Y-112637000D01*
X154952000Y-112637000D01*
X154952000Y-114439000D01*
G37*
G36*
X151624512Y-112641927D02*
G01*
X151773812Y-112671624D01*
X151937784Y-112739544D01*
X152085354Y-112838147D01*
X152210853Y-112963646D01*
X152309456Y-113111216D01*
X152377376Y-113275188D01*
X152412000Y-113449259D01*
X152412000Y-113626741D01*
X152377376Y-113800812D01*
X152309456Y-113964784D01*
X152210853Y-114112354D01*
X152085354Y-114237853D01*
X151937784Y-114336456D01*
X151773812Y-114404376D01*
X151624512Y-114434073D01*
X151599742Y-114439000D01*
X151422258Y-114439000D01*
X151397488Y-114434073D01*
X151248188Y-114404376D01*
X151084216Y-114336456D01*
X150936646Y-114237853D01*
X150811147Y-114112354D01*
X150712544Y-113964784D01*
X150644624Y-113800812D01*
X150610000Y-113626741D01*
X150610000Y-113449259D01*
X150644624Y-113275188D01*
X150712544Y-113111216D01*
X150811147Y-112963646D01*
X150936646Y-112838147D01*
X151084216Y-112739544D01*
X151248188Y-112671624D01*
X151397488Y-112641927D01*
X151422258Y-112637000D01*
X151599742Y-112637000D01*
X151624512Y-112641927D01*
G37*
G36*
X146544512Y-112641927D02*
G01*
X146693812Y-112671624D01*
X146857784Y-112739544D01*
X147005354Y-112838147D01*
X147130853Y-112963646D01*
X147229456Y-113111216D01*
X147297376Y-113275188D01*
X147332000Y-113449259D01*
X147332000Y-113626741D01*
X147297376Y-113800812D01*
X147229456Y-113964784D01*
X147130853Y-114112354D01*
X147005354Y-114237853D01*
X146857784Y-114336456D01*
X146693812Y-114404376D01*
X146544512Y-114434073D01*
X146519742Y-114439000D01*
X146342258Y-114439000D01*
X146317488Y-114434073D01*
X146168188Y-114404376D01*
X146004216Y-114336456D01*
X145856646Y-114237853D01*
X145731147Y-114112354D01*
X145632544Y-113964784D01*
X145564624Y-113800812D01*
X145530000Y-113626741D01*
X145530000Y-113449259D01*
X145564624Y-113275188D01*
X145632544Y-113111216D01*
X145731147Y-112963646D01*
X145856646Y-112838147D01*
X146004216Y-112739544D01*
X146168188Y-112671624D01*
X146317488Y-112641927D01*
X146342258Y-112637000D01*
X146519742Y-112637000D01*
X146544512Y-112641927D01*
G37*
G36*
X144004512Y-112641927D02*
G01*
X144153812Y-112671624D01*
X144317784Y-112739544D01*
X144465354Y-112838147D01*
X144590853Y-112963646D01*
X144689456Y-113111216D01*
X144757376Y-113275188D01*
X144792000Y-113449259D01*
X144792000Y-113626741D01*
X144757376Y-113800812D01*
X144689456Y-113964784D01*
X144590853Y-114112354D01*
X144465354Y-114237853D01*
X144317784Y-114336456D01*
X144153812Y-114404376D01*
X144004512Y-114434073D01*
X143979742Y-114439000D01*
X143802258Y-114439000D01*
X143777488Y-114434073D01*
X143628188Y-114404376D01*
X143464216Y-114336456D01*
X143316646Y-114237853D01*
X143191147Y-114112354D01*
X143092544Y-113964784D01*
X143024624Y-113800812D01*
X142990000Y-113626741D01*
X142990000Y-113449259D01*
X143024624Y-113275188D01*
X143092544Y-113111216D01*
X143191147Y-112963646D01*
X143316646Y-112838147D01*
X143464216Y-112739544D01*
X143628188Y-112671624D01*
X143777488Y-112641927D01*
X143802258Y-112637000D01*
X143979742Y-112637000D01*
X144004512Y-112641927D01*
G37*
G36*
X141464512Y-112641927D02*
G01*
X141613812Y-112671624D01*
X141777784Y-112739544D01*
X141925354Y-112838147D01*
X142050853Y-112963646D01*
X142149456Y-113111216D01*
X142217376Y-113275188D01*
X142252000Y-113449259D01*
X142252000Y-113626741D01*
X142217376Y-113800812D01*
X142149456Y-113964784D01*
X142050853Y-114112354D01*
X141925354Y-114237853D01*
X141777784Y-114336456D01*
X141613812Y-114404376D01*
X141464512Y-114434073D01*
X141439742Y-114439000D01*
X141262258Y-114439000D01*
X141237488Y-114434073D01*
X141088188Y-114404376D01*
X140924216Y-114336456D01*
X140776646Y-114237853D01*
X140651147Y-114112354D01*
X140552544Y-113964784D01*
X140484624Y-113800812D01*
X140450000Y-113626741D01*
X140450000Y-113449259D01*
X140484624Y-113275188D01*
X140552544Y-113111216D01*
X140651147Y-112963646D01*
X140776646Y-112838147D01*
X140924216Y-112739544D01*
X141088188Y-112671624D01*
X141237488Y-112641927D01*
X141262258Y-112637000D01*
X141439742Y-112637000D01*
X141464512Y-112641927D01*
G37*
G36*
X138924512Y-112641927D02*
G01*
X139073812Y-112671624D01*
X139237784Y-112739544D01*
X139385354Y-112838147D01*
X139510853Y-112963646D01*
X139609456Y-113111216D01*
X139677376Y-113275188D01*
X139712000Y-113449259D01*
X139712000Y-113626741D01*
X139677376Y-113800812D01*
X139609456Y-113964784D01*
X139510853Y-114112354D01*
X139385354Y-114237853D01*
X139237784Y-114336456D01*
X139073812Y-114404376D01*
X138924512Y-114434073D01*
X138899742Y-114439000D01*
X138722258Y-114439000D01*
X138697488Y-114434073D01*
X138548188Y-114404376D01*
X138384216Y-114336456D01*
X138236646Y-114237853D01*
X138111147Y-114112354D01*
X138012544Y-113964784D01*
X137944624Y-113800812D01*
X137910000Y-113626741D01*
X137910000Y-113449259D01*
X137944624Y-113275188D01*
X138012544Y-113111216D01*
X138111147Y-112963646D01*
X138236646Y-112838147D01*
X138384216Y-112739544D01*
X138548188Y-112671624D01*
X138697488Y-112641927D01*
X138722258Y-112637000D01*
X138899742Y-112637000D01*
X138924512Y-112641927D01*
G37*
G36*
X136384512Y-112641927D02*
G01*
X136533812Y-112671624D01*
X136697784Y-112739544D01*
X136845354Y-112838147D01*
X136970853Y-112963646D01*
X137069456Y-113111216D01*
X137137376Y-113275188D01*
X137172000Y-113449259D01*
X137172000Y-113626741D01*
X137137376Y-113800812D01*
X137069456Y-113964784D01*
X136970853Y-114112354D01*
X136845354Y-114237853D01*
X136697784Y-114336456D01*
X136533812Y-114404376D01*
X136384512Y-114434073D01*
X136359742Y-114439000D01*
X136182258Y-114439000D01*
X136157488Y-114434073D01*
X136008188Y-114404376D01*
X135844216Y-114336456D01*
X135696646Y-114237853D01*
X135571147Y-114112354D01*
X135472544Y-113964784D01*
X135404624Y-113800812D01*
X135370000Y-113626741D01*
X135370000Y-113449259D01*
X135404624Y-113275188D01*
X135472544Y-113111216D01*
X135571147Y-112963646D01*
X135696646Y-112838147D01*
X135844216Y-112739544D01*
X136008188Y-112671624D01*
X136157488Y-112641927D01*
X136182258Y-112637000D01*
X136359742Y-112637000D01*
X136384512Y-112641927D01*
G37*
G36*
X149084512Y-112641927D02*
G01*
X149233812Y-112671624D01*
X149397784Y-112739544D01*
X149545354Y-112838147D01*
X149670853Y-112963646D01*
X149769456Y-113111216D01*
X149837376Y-113275188D01*
X149872000Y-113449259D01*
X149872000Y-113626741D01*
X149837376Y-113800812D01*
X149769456Y-113964784D01*
X149670853Y-114112354D01*
X149545354Y-114237853D01*
X149397784Y-114336456D01*
X149233812Y-114404376D01*
X149084512Y-114434073D01*
X149059742Y-114439000D01*
X148882258Y-114439000D01*
X148857488Y-114434073D01*
X148708188Y-114404376D01*
X148544216Y-114336456D01*
X148396646Y-114237853D01*
X148271147Y-114112354D01*
X148172544Y-113964784D01*
X148104624Y-113800812D01*
X148070000Y-113626741D01*
X148070000Y-113449259D01*
X148104624Y-113275188D01*
X148172544Y-113111216D01*
X148271147Y-112963646D01*
X148396646Y-112838147D01*
X148544216Y-112739544D01*
X148708188Y-112671624D01*
X148857488Y-112641927D01*
X148882258Y-112637000D01*
X149059742Y-112637000D01*
X149084512Y-112641927D01*
G37*
G36*
X166039012Y-106609427D02*
G01*
X166188312Y-106639124D01*
X166352284Y-106707044D01*
X166499854Y-106805647D01*
X166625353Y-106931146D01*
X166723956Y-107078716D01*
X166791876Y-107242688D01*
X166826500Y-107416759D01*
X166826500Y-107594241D01*
X166791876Y-107768312D01*
X166723956Y-107932284D01*
X166625353Y-108079854D01*
X166499854Y-108205353D01*
X166352284Y-108303956D01*
X166188312Y-108371876D01*
X166039012Y-108401573D01*
X166014242Y-108406500D01*
X165836758Y-108406500D01*
X165811988Y-108401573D01*
X165662688Y-108371876D01*
X165498716Y-108303956D01*
X165351146Y-108205353D01*
X165225647Y-108079854D01*
X165127044Y-107932284D01*
X165059124Y-107768312D01*
X165024500Y-107594241D01*
X165024500Y-107416759D01*
X165059124Y-107242688D01*
X165127044Y-107078716D01*
X165225647Y-106931146D01*
X165351146Y-106805647D01*
X165498716Y-106707044D01*
X165662688Y-106639124D01*
X165811988Y-106609427D01*
X165836758Y-106604500D01*
X166014242Y-106604500D01*
X166039012Y-106609427D01*
G37*
G36*
X173229012Y-106609427D02*
G01*
X173378312Y-106639124D01*
X173542284Y-106707044D01*
X173689854Y-106805647D01*
X173815353Y-106931146D01*
X173913956Y-107078716D01*
X173981876Y-107242688D01*
X174016500Y-107416759D01*
X174016500Y-107594241D01*
X173981876Y-107768312D01*
X173913956Y-107932284D01*
X173815353Y-108079854D01*
X173689854Y-108205353D01*
X173542284Y-108303956D01*
X173378312Y-108371876D01*
X173229012Y-108401573D01*
X173204242Y-108406500D01*
X173026758Y-108406500D01*
X173001988Y-108401573D01*
X172852688Y-108371876D01*
X172688716Y-108303956D01*
X172541146Y-108205353D01*
X172415647Y-108079854D01*
X172317044Y-107932284D01*
X172249124Y-107768312D01*
X172214500Y-107594241D01*
X172214500Y-107416759D01*
X172249124Y-107242688D01*
X172317044Y-107078716D01*
X172415647Y-106931146D01*
X172541146Y-106805647D01*
X172688716Y-106707044D01*
X172852688Y-106639124D01*
X173001988Y-106609427D01*
X173026758Y-106604500D01*
X173204242Y-106604500D01*
X173229012Y-106609427D01*
G37*
G36*
X156323512Y-104513927D02*
G01*
X156472812Y-104543624D01*
X156636784Y-104611544D01*
X156784354Y-104710147D01*
X156909853Y-104835646D01*
X157008456Y-104983216D01*
X157076376Y-105147188D01*
X157111000Y-105321259D01*
X157111000Y-105498741D01*
X157076376Y-105672812D01*
X157008456Y-105836784D01*
X156909853Y-105984354D01*
X156784354Y-106109853D01*
X156636784Y-106208456D01*
X156472812Y-106276376D01*
X156323512Y-106306073D01*
X156298742Y-106311000D01*
X156121258Y-106311000D01*
X156096488Y-106306073D01*
X155947188Y-106276376D01*
X155783216Y-106208456D01*
X155635646Y-106109853D01*
X155510147Y-105984354D01*
X155411544Y-105836784D01*
X155343624Y-105672812D01*
X155309000Y-105498741D01*
X155309000Y-105321259D01*
X155343624Y-105147188D01*
X155411544Y-104983216D01*
X155510147Y-104835646D01*
X155635646Y-104710147D01*
X155783216Y-104611544D01*
X155947188Y-104543624D01*
X156096488Y-104513927D01*
X156121258Y-104509000D01*
X156298742Y-104509000D01*
X156323512Y-104513927D01*
G37*
G36*
X140016712Y-104513927D02*
G01*
X140166012Y-104543624D01*
X140329984Y-104611544D01*
X140477554Y-104710147D01*
X140603053Y-104835646D01*
X140701656Y-104983216D01*
X140769576Y-105147188D01*
X140804200Y-105321259D01*
X140804200Y-105498741D01*
X140769576Y-105672812D01*
X140701656Y-105836784D01*
X140603053Y-105984354D01*
X140477554Y-106109853D01*
X140329984Y-106208456D01*
X140166012Y-106276376D01*
X140016712Y-106306073D01*
X139991942Y-106311000D01*
X139814458Y-106311000D01*
X139789688Y-106306073D01*
X139640388Y-106276376D01*
X139476416Y-106208456D01*
X139328846Y-106109853D01*
X139203347Y-105984354D01*
X139104744Y-105836784D01*
X139036824Y-105672812D01*
X139002200Y-105498741D01*
X139002200Y-105321259D01*
X139036824Y-105147188D01*
X139104744Y-104983216D01*
X139203347Y-104835646D01*
X139328846Y-104710147D01*
X139476416Y-104611544D01*
X139640388Y-104543624D01*
X139789688Y-104513927D01*
X139814458Y-104509000D01*
X139991942Y-104509000D01*
X140016712Y-104513927D01*
G37*
G36*
X148476712Y-104513927D02*
G01*
X148626012Y-104543624D01*
X148789984Y-104611544D01*
X148937554Y-104710147D01*
X149063053Y-104835646D01*
X149161656Y-104983216D01*
X149229576Y-105147188D01*
X149264200Y-105321259D01*
X149264200Y-105498741D01*
X149229576Y-105672812D01*
X149161656Y-105836784D01*
X149063053Y-105984354D01*
X148937554Y-106109853D01*
X148789984Y-106208456D01*
X148626012Y-106276376D01*
X148476712Y-106306073D01*
X148451942Y-106311000D01*
X148274458Y-106311000D01*
X148249688Y-106306073D01*
X148100388Y-106276376D01*
X147936416Y-106208456D01*
X147788846Y-106109853D01*
X147663347Y-105984354D01*
X147564744Y-105836784D01*
X147496824Y-105672812D01*
X147462200Y-105498741D01*
X147462200Y-105321259D01*
X147496824Y-105147188D01*
X147564744Y-104983216D01*
X147663347Y-104835646D01*
X147788846Y-104710147D01*
X147936416Y-104611544D01*
X148100388Y-104543624D01*
X148249688Y-104513927D01*
X148274458Y-104509000D01*
X148451942Y-104509000D01*
X148476712Y-104513927D01*
G37*
G36*
X166039012Y-104069427D02*
G01*
X166188312Y-104099124D01*
X166352284Y-104167044D01*
X166499854Y-104265647D01*
X166625353Y-104391146D01*
X166723956Y-104538716D01*
X166791876Y-104702688D01*
X166826500Y-104876759D01*
X166826500Y-105054241D01*
X166791876Y-105228312D01*
X166723956Y-105392284D01*
X166625353Y-105539854D01*
X166499854Y-105665353D01*
X166352284Y-105763956D01*
X166188312Y-105831876D01*
X166039012Y-105861573D01*
X166014242Y-105866500D01*
X165836758Y-105866500D01*
X165811988Y-105861573D01*
X165662688Y-105831876D01*
X165498716Y-105763956D01*
X165351146Y-105665353D01*
X165225647Y-105539854D01*
X165127044Y-105392284D01*
X165059124Y-105228312D01*
X165024500Y-105054241D01*
X165024500Y-104876759D01*
X165059124Y-104702688D01*
X165127044Y-104538716D01*
X165225647Y-104391146D01*
X165351146Y-104265647D01*
X165498716Y-104167044D01*
X165662688Y-104099124D01*
X165811988Y-104069427D01*
X165836758Y-104064500D01*
X166014242Y-104064500D01*
X166039012Y-104069427D01*
G37*
G36*
X173229012Y-104069427D02*
G01*
X173378312Y-104099124D01*
X173542284Y-104167044D01*
X173689854Y-104265647D01*
X173815353Y-104391146D01*
X173913956Y-104538716D01*
X173981876Y-104702688D01*
X174016500Y-104876759D01*
X174016500Y-105054241D01*
X173981876Y-105228312D01*
X173913956Y-105392284D01*
X173815353Y-105539854D01*
X173689854Y-105665353D01*
X173542284Y-105763956D01*
X173378312Y-105831876D01*
X173229012Y-105861573D01*
X173204242Y-105866500D01*
X173026758Y-105866500D01*
X173001988Y-105861573D01*
X172852688Y-105831876D01*
X172688716Y-105763956D01*
X172541146Y-105665353D01*
X172415647Y-105539854D01*
X172317044Y-105392284D01*
X172249124Y-105228312D01*
X172214500Y-105054241D01*
X172214500Y-104876759D01*
X172249124Y-104702688D01*
X172317044Y-104538716D01*
X172415647Y-104391146D01*
X172541146Y-104265647D01*
X172688716Y-104167044D01*
X172852688Y-104099124D01*
X173001988Y-104069427D01*
X173026758Y-104064500D01*
X173204242Y-104064500D01*
X173229012Y-104069427D01*
G37*
G36*
X119430012Y-103370927D02*
G01*
X119579312Y-103400624D01*
X119743284Y-103468544D01*
X119890854Y-103567147D01*
X120016353Y-103692646D01*
X120114956Y-103840216D01*
X120182876Y-104004188D01*
X120217500Y-104178259D01*
X120217500Y-104355741D01*
X120182876Y-104529812D01*
X120114956Y-104693784D01*
X120016353Y-104841354D01*
X119890854Y-104966853D01*
X119743284Y-105065456D01*
X119579312Y-105133376D01*
X119430012Y-105163073D01*
X119405242Y-105168000D01*
X119227758Y-105168000D01*
X119202988Y-105163073D01*
X119053688Y-105133376D01*
X118889716Y-105065456D01*
X118742146Y-104966853D01*
X118616647Y-104841354D01*
X118518044Y-104693784D01*
X118450124Y-104529812D01*
X118415500Y-104355741D01*
X118415500Y-104178259D01*
X118450124Y-104004188D01*
X118518044Y-103840216D01*
X118616647Y-103692646D01*
X118742146Y-103567147D01*
X118889716Y-103468544D01*
X119053688Y-103400624D01*
X119202988Y-103370927D01*
X119227758Y-103366000D01*
X119405242Y-103366000D01*
X119430012Y-103370927D01*
G37*
G36*
X116890012Y-103370927D02*
G01*
X117039312Y-103400624D01*
X117203284Y-103468544D01*
X117350854Y-103567147D01*
X117476353Y-103692646D01*
X117574956Y-103840216D01*
X117642876Y-104004188D01*
X117677500Y-104178259D01*
X117677500Y-104355741D01*
X117642876Y-104529812D01*
X117574956Y-104693784D01*
X117476353Y-104841354D01*
X117350854Y-104966853D01*
X117203284Y-105065456D01*
X117039312Y-105133376D01*
X116890012Y-105163073D01*
X116865242Y-105168000D01*
X116687758Y-105168000D01*
X116662988Y-105163073D01*
X116513688Y-105133376D01*
X116349716Y-105065456D01*
X116202146Y-104966853D01*
X116076647Y-104841354D01*
X115978044Y-104693784D01*
X115910124Y-104529812D01*
X115875500Y-104355741D01*
X115875500Y-104178259D01*
X115910124Y-104004188D01*
X115978044Y-103840216D01*
X116076647Y-103692646D01*
X116202146Y-103567147D01*
X116349716Y-103468544D01*
X116513688Y-103400624D01*
X116662988Y-103370927D01*
X116687758Y-103366000D01*
X116865242Y-103366000D01*
X116890012Y-103370927D01*
G37*
G36*
X115137500Y-105168000D02*
G01*
X113335500Y-105168000D01*
X113335500Y-103366000D01*
X115137500Y-103366000D01*
X115137500Y-105168000D01*
G37*
G36*
X140016712Y-101973927D02*
G01*
X140166012Y-102003624D01*
X140329984Y-102071544D01*
X140477554Y-102170147D01*
X140603053Y-102295646D01*
X140701656Y-102443216D01*
X140769576Y-102607188D01*
X140804200Y-102781259D01*
X140804200Y-102958741D01*
X140769576Y-103132812D01*
X140701656Y-103296784D01*
X140603053Y-103444354D01*
X140477554Y-103569853D01*
X140329984Y-103668456D01*
X140166012Y-103736376D01*
X140016712Y-103766073D01*
X139991942Y-103771000D01*
X139814458Y-103771000D01*
X139789688Y-103766073D01*
X139640388Y-103736376D01*
X139476416Y-103668456D01*
X139328846Y-103569853D01*
X139203347Y-103444354D01*
X139104744Y-103296784D01*
X139036824Y-103132812D01*
X139002200Y-102958741D01*
X139002200Y-102781259D01*
X139036824Y-102607188D01*
X139104744Y-102443216D01*
X139203347Y-102295646D01*
X139328846Y-102170147D01*
X139476416Y-102071544D01*
X139640388Y-102003624D01*
X139789688Y-101973927D01*
X139814458Y-101969000D01*
X139991942Y-101969000D01*
X140016712Y-101973927D01*
G37*
G36*
X148476712Y-101973927D02*
G01*
X148626012Y-102003624D01*
X148789984Y-102071544D01*
X148937554Y-102170147D01*
X149063053Y-102295646D01*
X149161656Y-102443216D01*
X149229576Y-102607188D01*
X149264200Y-102781259D01*
X149264200Y-102958741D01*
X149229576Y-103132812D01*
X149161656Y-103296784D01*
X149063053Y-103444354D01*
X148937554Y-103569853D01*
X148789984Y-103668456D01*
X148626012Y-103736376D01*
X148476712Y-103766073D01*
X148451942Y-103771000D01*
X148274458Y-103771000D01*
X148249688Y-103766073D01*
X148100388Y-103736376D01*
X147936416Y-103668456D01*
X147788846Y-103569853D01*
X147663347Y-103444354D01*
X147564744Y-103296784D01*
X147496824Y-103132812D01*
X147462200Y-102958741D01*
X147462200Y-102781259D01*
X147496824Y-102607188D01*
X147564744Y-102443216D01*
X147663347Y-102295646D01*
X147788846Y-102170147D01*
X147936416Y-102071544D01*
X148100388Y-102003624D01*
X148249688Y-101973927D01*
X148274458Y-101969000D01*
X148451942Y-101969000D01*
X148476712Y-101973927D01*
G37*
G36*
X156323512Y-101973927D02*
G01*
X156472812Y-102003624D01*
X156636784Y-102071544D01*
X156784354Y-102170147D01*
X156909853Y-102295646D01*
X157008456Y-102443216D01*
X157076376Y-102607188D01*
X157111000Y-102781259D01*
X157111000Y-102958741D01*
X157076376Y-103132812D01*
X157008456Y-103296784D01*
X156909853Y-103444354D01*
X156784354Y-103569853D01*
X156636784Y-103668456D01*
X156472812Y-103736376D01*
X156323512Y-103766073D01*
X156298742Y-103771000D01*
X156121258Y-103771000D01*
X156096488Y-103766073D01*
X155947188Y-103736376D01*
X155783216Y-103668456D01*
X155635646Y-103569853D01*
X155510147Y-103444354D01*
X155411544Y-103296784D01*
X155343624Y-103132812D01*
X155309000Y-102958741D01*
X155309000Y-102781259D01*
X155343624Y-102607188D01*
X155411544Y-102443216D01*
X155510147Y-102295646D01*
X155635646Y-102170147D01*
X155783216Y-102071544D01*
X155947188Y-102003624D01*
X156096488Y-101973927D01*
X156121258Y-101969000D01*
X156298742Y-101969000D01*
X156323512Y-101973927D01*
G37*
G36*
X173229012Y-101529427D02*
G01*
X173378312Y-101559124D01*
X173542284Y-101627044D01*
X173689854Y-101725647D01*
X173815353Y-101851146D01*
X173913956Y-101998716D01*
X173981876Y-102162688D01*
X174016500Y-102336759D01*
X174016500Y-102514241D01*
X173981876Y-102688312D01*
X173913956Y-102852284D01*
X173815353Y-102999854D01*
X173689854Y-103125353D01*
X173542284Y-103223956D01*
X173378312Y-103291876D01*
X173229012Y-103321573D01*
X173204242Y-103326500D01*
X173026758Y-103326500D01*
X173001988Y-103321573D01*
X172852688Y-103291876D01*
X172688716Y-103223956D01*
X172541146Y-103125353D01*
X172415647Y-102999854D01*
X172317044Y-102852284D01*
X172249124Y-102688312D01*
X172214500Y-102514241D01*
X172214500Y-102336759D01*
X172249124Y-102162688D01*
X172317044Y-101998716D01*
X172415647Y-101851146D01*
X172541146Y-101725647D01*
X172688716Y-101627044D01*
X172852688Y-101559124D01*
X173001988Y-101529427D01*
X173026758Y-101524500D01*
X173204242Y-101524500D01*
X173229012Y-101529427D01*
G37*
G36*
X166039012Y-101529427D02*
G01*
X166188312Y-101559124D01*
X166352284Y-101627044D01*
X166499854Y-101725647D01*
X166625353Y-101851146D01*
X166723956Y-101998716D01*
X166791876Y-102162688D01*
X166826500Y-102336759D01*
X166826500Y-102514241D01*
X166791876Y-102688312D01*
X166723956Y-102852284D01*
X166625353Y-102999854D01*
X166499854Y-103125353D01*
X166352284Y-103223956D01*
X166188312Y-103291876D01*
X166039012Y-103321573D01*
X166014242Y-103326500D01*
X165836758Y-103326500D01*
X165811988Y-103321573D01*
X165662688Y-103291876D01*
X165498716Y-103223956D01*
X165351146Y-103125353D01*
X165225647Y-102999854D01*
X165127044Y-102852284D01*
X165059124Y-102688312D01*
X165024500Y-102514241D01*
X165024500Y-102336759D01*
X165059124Y-102162688D01*
X165127044Y-101998716D01*
X165225647Y-101851146D01*
X165351146Y-101725647D01*
X165498716Y-101627044D01*
X165662688Y-101559124D01*
X165811988Y-101529427D01*
X165836758Y-101524500D01*
X166014242Y-101524500D01*
X166039012Y-101529427D01*
G37*
G36*
X148476712Y-99433927D02*
G01*
X148626012Y-99463624D01*
X148789984Y-99531544D01*
X148937554Y-99630147D01*
X149063053Y-99755646D01*
X149161656Y-99903216D01*
X149229576Y-100067188D01*
X149264200Y-100241259D01*
X149264200Y-100418741D01*
X149229576Y-100592812D01*
X149161656Y-100756784D01*
X149063053Y-100904354D01*
X148937554Y-101029853D01*
X148789984Y-101128456D01*
X148626012Y-101196376D01*
X148476712Y-101226073D01*
X148451942Y-101231000D01*
X148274458Y-101231000D01*
X148249688Y-101226073D01*
X148100388Y-101196376D01*
X147936416Y-101128456D01*
X147788846Y-101029853D01*
X147663347Y-100904354D01*
X147564744Y-100756784D01*
X147496824Y-100592812D01*
X147462200Y-100418741D01*
X147462200Y-100241259D01*
X147496824Y-100067188D01*
X147564744Y-99903216D01*
X147663347Y-99755646D01*
X147788846Y-99630147D01*
X147936416Y-99531544D01*
X148100388Y-99463624D01*
X148249688Y-99433927D01*
X148274458Y-99429000D01*
X148451942Y-99429000D01*
X148476712Y-99433927D01*
G37*
G36*
X156323512Y-99433927D02*
G01*
X156472812Y-99463624D01*
X156636784Y-99531544D01*
X156784354Y-99630147D01*
X156909853Y-99755646D01*
X157008456Y-99903216D01*
X157076376Y-100067188D01*
X157111000Y-100241259D01*
X157111000Y-100418741D01*
X157076376Y-100592812D01*
X157008456Y-100756784D01*
X156909853Y-100904354D01*
X156784354Y-101029853D01*
X156636784Y-101128456D01*
X156472812Y-101196376D01*
X156323512Y-101226073D01*
X156298742Y-101231000D01*
X156121258Y-101231000D01*
X156096488Y-101226073D01*
X155947188Y-101196376D01*
X155783216Y-101128456D01*
X155635646Y-101029853D01*
X155510147Y-100904354D01*
X155411544Y-100756784D01*
X155343624Y-100592812D01*
X155309000Y-100418741D01*
X155309000Y-100241259D01*
X155343624Y-100067188D01*
X155411544Y-99903216D01*
X155510147Y-99755646D01*
X155635646Y-99630147D01*
X155783216Y-99531544D01*
X155947188Y-99463624D01*
X156096488Y-99433927D01*
X156121258Y-99429000D01*
X156298742Y-99429000D01*
X156323512Y-99433927D01*
G37*
G36*
X140016712Y-99433927D02*
G01*
X140166012Y-99463624D01*
X140329984Y-99531544D01*
X140477554Y-99630147D01*
X140603053Y-99755646D01*
X140701656Y-99903216D01*
X140769576Y-100067188D01*
X140804200Y-100241259D01*
X140804200Y-100418741D01*
X140769576Y-100592812D01*
X140701656Y-100756784D01*
X140603053Y-100904354D01*
X140477554Y-101029853D01*
X140329984Y-101128456D01*
X140166012Y-101196376D01*
X140016712Y-101226073D01*
X139991942Y-101231000D01*
X139814458Y-101231000D01*
X139789688Y-101226073D01*
X139640388Y-101196376D01*
X139476416Y-101128456D01*
X139328846Y-101029853D01*
X139203347Y-100904354D01*
X139104744Y-100756784D01*
X139036824Y-100592812D01*
X139002200Y-100418741D01*
X139002200Y-100241259D01*
X139036824Y-100067188D01*
X139104744Y-99903216D01*
X139203347Y-99755646D01*
X139328846Y-99630147D01*
X139476416Y-99531544D01*
X139640388Y-99463624D01*
X139789688Y-99433927D01*
X139814458Y-99429000D01*
X139991942Y-99429000D01*
X140016712Y-99433927D01*
G37*
G36*
X166826500Y-100786500D02*
G01*
X165024500Y-100786500D01*
X165024500Y-98984500D01*
X166826500Y-98984500D01*
X166826500Y-100786500D01*
G37*
G36*
X174016500Y-100786500D02*
G01*
X172214500Y-100786500D01*
X172214500Y-98984500D01*
X174016500Y-98984500D01*
X174016500Y-100786500D01*
G37*
G36*
X140804200Y-98691000D02*
G01*
X139002200Y-98691000D01*
X139002200Y-96889000D01*
X140804200Y-96889000D01*
X140804200Y-98691000D01*
G37*
G36*
X157111000Y-98691000D02*
G01*
X155309000Y-98691000D01*
X155309000Y-96889000D01*
X157111000Y-96889000D01*
X157111000Y-98691000D01*
G37*
G36*
X149264200Y-98691000D02*
G01*
X147462200Y-98691000D01*
X147462200Y-96889000D01*
X149264200Y-96889000D01*
X149264200Y-98691000D01*
G37*
G36*
X116890012Y-94910927D02*
G01*
X117039312Y-94940624D01*
X117203284Y-95008544D01*
X117350854Y-95107147D01*
X117476353Y-95232646D01*
X117574956Y-95380216D01*
X117642876Y-95544188D01*
X117677500Y-95718259D01*
X117677500Y-95895741D01*
X117642876Y-96069812D01*
X117574956Y-96233784D01*
X117476353Y-96381354D01*
X117350854Y-96506853D01*
X117203284Y-96605456D01*
X117039312Y-96673376D01*
X116890012Y-96703073D01*
X116865242Y-96708000D01*
X116687758Y-96708000D01*
X116662988Y-96703073D01*
X116513688Y-96673376D01*
X116349716Y-96605456D01*
X116202146Y-96506853D01*
X116076647Y-96381354D01*
X115978044Y-96233784D01*
X115910124Y-96069812D01*
X115875500Y-95895741D01*
X115875500Y-95718259D01*
X115910124Y-95544188D01*
X115978044Y-95380216D01*
X116076647Y-95232646D01*
X116202146Y-95107147D01*
X116349716Y-95008544D01*
X116513688Y-94940624D01*
X116662988Y-94910927D01*
X116687758Y-94906000D01*
X116865242Y-94906000D01*
X116890012Y-94910927D01*
G37*
G36*
X119430012Y-94910927D02*
G01*
X119579312Y-94940624D01*
X119743284Y-95008544D01*
X119890854Y-95107147D01*
X120016353Y-95232646D01*
X120114956Y-95380216D01*
X120182876Y-95544188D01*
X120217500Y-95718259D01*
X120217500Y-95895741D01*
X120182876Y-96069812D01*
X120114956Y-96233784D01*
X120016353Y-96381354D01*
X119890854Y-96506853D01*
X119743284Y-96605456D01*
X119579312Y-96673376D01*
X119430012Y-96703073D01*
X119405242Y-96708000D01*
X119227758Y-96708000D01*
X119202988Y-96703073D01*
X119053688Y-96673376D01*
X118889716Y-96605456D01*
X118742146Y-96506853D01*
X118616647Y-96381354D01*
X118518044Y-96233784D01*
X118450124Y-96069812D01*
X118415500Y-95895741D01*
X118415500Y-95718259D01*
X118450124Y-95544188D01*
X118518044Y-95380216D01*
X118616647Y-95232646D01*
X118742146Y-95107147D01*
X118889716Y-95008544D01*
X119053688Y-94940624D01*
X119202988Y-94910927D01*
X119227758Y-94906000D01*
X119405242Y-94906000D01*
X119430012Y-94910927D01*
G37*
G36*
X115137500Y-96708000D02*
G01*
X113335500Y-96708000D01*
X113335500Y-94906000D01*
X115137500Y-94906000D01*
X115137500Y-96708000D01*
G37*
G36*
X169666256Y-91926798D02*
G01*
X169772579Y-91947947D01*
X170073042Y-92072403D01*
X170343451Y-92253085D01*
X170573415Y-92483049D01*
X170754097Y-92753458D01*
X170878553Y-93053921D01*
X170942000Y-93372891D01*
X170942000Y-93698109D01*
X170878553Y-94017079D01*
X170754097Y-94317542D01*
X170573415Y-94587951D01*
X170343451Y-94817915D01*
X170073042Y-94998597D01*
X169772579Y-95123053D01*
X169666256Y-95144202D01*
X169453611Y-95186500D01*
X169128389Y-95186500D01*
X168915744Y-95144202D01*
X168809421Y-95123053D01*
X168508958Y-94998597D01*
X168238549Y-94817915D01*
X168008585Y-94587951D01*
X167827903Y-94317542D01*
X167703447Y-94017079D01*
X167640000Y-93698109D01*
X167640000Y-93372891D01*
X167703447Y-93053921D01*
X167827903Y-92753458D01*
X168008585Y-92483049D01*
X168238549Y-92253085D01*
X168508958Y-92072403D01*
X168809421Y-91947947D01*
X168915744Y-91926798D01*
X169128389Y-91884500D01*
X169453611Y-91884500D01*
X169666256Y-91926798D01*
G37*
G36*
X176639500Y-90736500D02*
G01*
X172337500Y-90736500D01*
X172337500Y-89284500D01*
X176639500Y-89284500D01*
X176639500Y-90736500D01*
G37*
G36*
X176639499Y-85681500D02*
G01*
X172337501Y-85681500D01*
X172337501Y-83039500D01*
X176639499Y-83039500D01*
X176639499Y-85681500D01*
G37*
G36*
X172587256Y-69828798D02*
G01*
X172693579Y-69849947D01*
X172994042Y-69974403D01*
X173264451Y-70155085D01*
X173494415Y-70385049D01*
X173675097Y-70655458D01*
X173799553Y-70955921D01*
X173863000Y-71274891D01*
X173863000Y-71600109D01*
X173799553Y-71919079D01*
X173675097Y-72219542D01*
X173494415Y-72489951D01*
X173264451Y-72719915D01*
X172994042Y-72900597D01*
X172693579Y-73025053D01*
X172587256Y-73046202D01*
X172374611Y-73088500D01*
X172049389Y-73088500D01*
X171836744Y-73046202D01*
X171730421Y-73025053D01*
X171429958Y-72900597D01*
X171159549Y-72719915D01*
X170929585Y-72489951D01*
X170748903Y-72219542D01*
X170624447Y-71919079D01*
X170561000Y-71600109D01*
X170561000Y-71274891D01*
X170624447Y-70955921D01*
X170748903Y-70655458D01*
X170929585Y-70385049D01*
X171159549Y-70155085D01*
X171429958Y-69974403D01*
X171730421Y-69849947D01*
X171836744Y-69828798D01*
X172049389Y-69786500D01*
X172374611Y-69786500D01*
X172587256Y-69828798D01*
G37*
G36*
X172732000Y-66179000D02*
G01*
X170930000Y-66179000D01*
X170930000Y-64377000D01*
X172732000Y-64377000D01*
X172732000Y-66179000D01*
G37*
G36*
X169404512Y-64381927D02*
G01*
X169553812Y-64411624D01*
X169717784Y-64479544D01*
X169865354Y-64578147D01*
X169990853Y-64703646D01*
X170089456Y-64851216D01*
X170157376Y-65015188D01*
X170192000Y-65189259D01*
X170192000Y-65366741D01*
X170157376Y-65540812D01*
X170089456Y-65704784D01*
X169990853Y-65852354D01*
X169865354Y-65977853D01*
X169717784Y-66076456D01*
X169553812Y-66144376D01*
X169404512Y-66174073D01*
X169379742Y-66179000D01*
X169202258Y-66179000D01*
X169177488Y-66174073D01*
X169028188Y-66144376D01*
X168864216Y-66076456D01*
X168716646Y-65977853D01*
X168591147Y-65852354D01*
X168492544Y-65704784D01*
X168424624Y-65540812D01*
X168390000Y-65366741D01*
X168390000Y-65189259D01*
X168424624Y-65015188D01*
X168492544Y-64851216D01*
X168591147Y-64703646D01*
X168716646Y-64578147D01*
X168864216Y-64479544D01*
X169028188Y-64411624D01*
X169177488Y-64381927D01*
X169202258Y-64377000D01*
X169379742Y-64377000D01*
X169404512Y-64381927D01*
G37*
G36*
X166864512Y-64381927D02*
G01*
X167013812Y-64411624D01*
X167177784Y-64479544D01*
X167325354Y-64578147D01*
X167450853Y-64703646D01*
X167549456Y-64851216D01*
X167617376Y-65015188D01*
X167652000Y-65189259D01*
X167652000Y-65366741D01*
X167617376Y-65540812D01*
X167549456Y-65704784D01*
X167450853Y-65852354D01*
X167325354Y-65977853D01*
X167177784Y-66076456D01*
X167013812Y-66144376D01*
X166864512Y-66174073D01*
X166839742Y-66179000D01*
X166662258Y-66179000D01*
X166637488Y-66174073D01*
X166488188Y-66144376D01*
X166324216Y-66076456D01*
X166176646Y-65977853D01*
X166051147Y-65852354D01*
X165952544Y-65704784D01*
X165884624Y-65540812D01*
X165850000Y-65366741D01*
X165850000Y-65189259D01*
X165884624Y-65015188D01*
X165952544Y-64851216D01*
X166051147Y-64703646D01*
X166176646Y-64578147D01*
X166324216Y-64479544D01*
X166488188Y-64411624D01*
X166637488Y-64381927D01*
X166662258Y-64377000D01*
X166839742Y-64377000D01*
X166864512Y-64381927D01*
G37*
G36*
X164324512Y-64381927D02*
G01*
X164473812Y-64411624D01*
X164637784Y-64479544D01*
X164785354Y-64578147D01*
X164910853Y-64703646D01*
X165009456Y-64851216D01*
X165077376Y-65015188D01*
X165112000Y-65189259D01*
X165112000Y-65366741D01*
X165077376Y-65540812D01*
X165009456Y-65704784D01*
X164910853Y-65852354D01*
X164785354Y-65977853D01*
X164637784Y-66076456D01*
X164473812Y-66144376D01*
X164324512Y-66174073D01*
X164299742Y-66179000D01*
X164122258Y-66179000D01*
X164097488Y-66174073D01*
X163948188Y-66144376D01*
X163784216Y-66076456D01*
X163636646Y-65977853D01*
X163511147Y-65852354D01*
X163412544Y-65704784D01*
X163344624Y-65540812D01*
X163310000Y-65366741D01*
X163310000Y-65189259D01*
X163344624Y-65015188D01*
X163412544Y-64851216D01*
X163511147Y-64703646D01*
X163636646Y-64578147D01*
X163784216Y-64479544D01*
X163948188Y-64411624D01*
X164097488Y-64381927D01*
X164122258Y-64377000D01*
X164299742Y-64377000D01*
X164324512Y-64381927D01*
G37*
G36*
X161784512Y-64381927D02*
G01*
X161933812Y-64411624D01*
X162097784Y-64479544D01*
X162245354Y-64578147D01*
X162370853Y-64703646D01*
X162469456Y-64851216D01*
X162537376Y-65015188D01*
X162572000Y-65189259D01*
X162572000Y-65366741D01*
X162537376Y-65540812D01*
X162469456Y-65704784D01*
X162370853Y-65852354D01*
X162245354Y-65977853D01*
X162097784Y-66076456D01*
X161933812Y-66144376D01*
X161784512Y-66174073D01*
X161759742Y-66179000D01*
X161582258Y-66179000D01*
X161557488Y-66174073D01*
X161408188Y-66144376D01*
X161244216Y-66076456D01*
X161096646Y-65977853D01*
X160971147Y-65852354D01*
X160872544Y-65704784D01*
X160804624Y-65540812D01*
X160770000Y-65366741D01*
X160770000Y-65189259D01*
X160804624Y-65015188D01*
X160872544Y-64851216D01*
X160971147Y-64703646D01*
X161096646Y-64578147D01*
X161244216Y-64479544D01*
X161408188Y-64411624D01*
X161557488Y-64381927D01*
X161582258Y-64377000D01*
X161759742Y-64377000D01*
X161784512Y-64381927D01*
G37*
G36*
X159244512Y-64381927D02*
G01*
X159393812Y-64411624D01*
X159557784Y-64479544D01*
X159705354Y-64578147D01*
X159830853Y-64703646D01*
X159929456Y-64851216D01*
X159997376Y-65015188D01*
X160032000Y-65189259D01*
X160032000Y-65366741D01*
X159997376Y-65540812D01*
X159929456Y-65704784D01*
X159830853Y-65852354D01*
X159705354Y-65977853D01*
X159557784Y-66076456D01*
X159393812Y-66144376D01*
X159244512Y-66174073D01*
X159219742Y-66179000D01*
X159042258Y-66179000D01*
X159017488Y-66174073D01*
X158868188Y-66144376D01*
X158704216Y-66076456D01*
X158556646Y-65977853D01*
X158431147Y-65852354D01*
X158332544Y-65704784D01*
X158264624Y-65540812D01*
X158230000Y-65366741D01*
X158230000Y-65189259D01*
X158264624Y-65015188D01*
X158332544Y-64851216D01*
X158431147Y-64703646D01*
X158556646Y-64578147D01*
X158704216Y-64479544D01*
X158868188Y-64411624D01*
X159017488Y-64381927D01*
X159042258Y-64377000D01*
X159219742Y-64377000D01*
X159244512Y-64381927D01*
G37*
G36*
X156704512Y-64381927D02*
G01*
X156853812Y-64411624D01*
X157017784Y-64479544D01*
X157165354Y-64578147D01*
X157290853Y-64703646D01*
X157389456Y-64851216D01*
X157457376Y-65015188D01*
X157492000Y-65189259D01*
X157492000Y-65366741D01*
X157457376Y-65540812D01*
X157389456Y-65704784D01*
X157290853Y-65852354D01*
X157165354Y-65977853D01*
X157017784Y-66076456D01*
X156853812Y-66144376D01*
X156704512Y-66174073D01*
X156679742Y-66179000D01*
X156502258Y-66179000D01*
X156477488Y-66174073D01*
X156328188Y-66144376D01*
X156164216Y-66076456D01*
X156016646Y-65977853D01*
X155891147Y-65852354D01*
X155792544Y-65704784D01*
X155724624Y-65540812D01*
X155690000Y-65366741D01*
X155690000Y-65189259D01*
X155724624Y-65015188D01*
X155792544Y-64851216D01*
X155891147Y-64703646D01*
X156016646Y-64578147D01*
X156164216Y-64479544D01*
X156328188Y-64411624D01*
X156477488Y-64381927D01*
X156502258Y-64377000D01*
X156679742Y-64377000D01*
X156704512Y-64381927D01*
G37*
G36*
X154164512Y-64381927D02*
G01*
X154313812Y-64411624D01*
X154477784Y-64479544D01*
X154625354Y-64578147D01*
X154750853Y-64703646D01*
X154849456Y-64851216D01*
X154917376Y-65015188D01*
X154952000Y-65189259D01*
X154952000Y-65366741D01*
X154917376Y-65540812D01*
X154849456Y-65704784D01*
X154750853Y-65852354D01*
X154625354Y-65977853D01*
X154477784Y-66076456D01*
X154313812Y-66144376D01*
X154164512Y-66174073D01*
X154139742Y-66179000D01*
X153962258Y-66179000D01*
X153937488Y-66174073D01*
X153788188Y-66144376D01*
X153624216Y-66076456D01*
X153476646Y-65977853D01*
X153351147Y-65852354D01*
X153252544Y-65704784D01*
X153184624Y-65540812D01*
X153150000Y-65366741D01*
X153150000Y-65189259D01*
X153184624Y-65015188D01*
X153252544Y-64851216D01*
X153351147Y-64703646D01*
X153476646Y-64578147D01*
X153624216Y-64479544D01*
X153788188Y-64411624D01*
X153937488Y-64381927D01*
X153962258Y-64377000D01*
X154139742Y-64377000D01*
X154164512Y-64381927D01*
G37*
G36*
X132320512Y-64381927D02*
G01*
X132469812Y-64411624D01*
X132633784Y-64479544D01*
X132781354Y-64578147D01*
X132906853Y-64703646D01*
X133005456Y-64851216D01*
X133073376Y-65015188D01*
X133108000Y-65189259D01*
X133108000Y-65366741D01*
X133073376Y-65540812D01*
X133005456Y-65704784D01*
X132906853Y-65852354D01*
X132781354Y-65977853D01*
X132633784Y-66076456D01*
X132469812Y-66144376D01*
X132320512Y-66174073D01*
X132295742Y-66179000D01*
X132118258Y-66179000D01*
X132093488Y-66174073D01*
X131944188Y-66144376D01*
X131780216Y-66076456D01*
X131632646Y-65977853D01*
X131507147Y-65852354D01*
X131408544Y-65704784D01*
X131340624Y-65540812D01*
X131306000Y-65366741D01*
X131306000Y-65189259D01*
X131340624Y-65015188D01*
X131408544Y-64851216D01*
X131507147Y-64703646D01*
X131632646Y-64578147D01*
X131780216Y-64479544D01*
X131944188Y-64411624D01*
X132093488Y-64381927D01*
X132118258Y-64377000D01*
X132295742Y-64377000D01*
X132320512Y-64381927D01*
G37*
G36*
X134860512Y-64381927D02*
G01*
X135009812Y-64411624D01*
X135173784Y-64479544D01*
X135321354Y-64578147D01*
X135446853Y-64703646D01*
X135545456Y-64851216D01*
X135613376Y-65015188D01*
X135648000Y-65189259D01*
X135648000Y-65366741D01*
X135613376Y-65540812D01*
X135545456Y-65704784D01*
X135446853Y-65852354D01*
X135321354Y-65977853D01*
X135173784Y-66076456D01*
X135009812Y-66144376D01*
X134860512Y-66174073D01*
X134835742Y-66179000D01*
X134658258Y-66179000D01*
X134633488Y-66174073D01*
X134484188Y-66144376D01*
X134320216Y-66076456D01*
X134172646Y-65977853D01*
X134047147Y-65852354D01*
X133948544Y-65704784D01*
X133880624Y-65540812D01*
X133846000Y-65366741D01*
X133846000Y-65189259D01*
X133880624Y-65015188D01*
X133948544Y-64851216D01*
X134047147Y-64703646D01*
X134172646Y-64578147D01*
X134320216Y-64479544D01*
X134484188Y-64411624D01*
X134633488Y-64381927D01*
X134658258Y-64377000D01*
X134835742Y-64377000D01*
X134860512Y-64381927D01*
G37*
G36*
X137400512Y-64381927D02*
G01*
X137549812Y-64411624D01*
X137713784Y-64479544D01*
X137861354Y-64578147D01*
X137986853Y-64703646D01*
X138085456Y-64851216D01*
X138153376Y-65015188D01*
X138188000Y-65189259D01*
X138188000Y-65366741D01*
X138153376Y-65540812D01*
X138085456Y-65704784D01*
X137986853Y-65852354D01*
X137861354Y-65977853D01*
X137713784Y-66076456D01*
X137549812Y-66144376D01*
X137400512Y-66174073D01*
X137375742Y-66179000D01*
X137198258Y-66179000D01*
X137173488Y-66174073D01*
X137024188Y-66144376D01*
X136860216Y-66076456D01*
X136712646Y-65977853D01*
X136587147Y-65852354D01*
X136488544Y-65704784D01*
X136420624Y-65540812D01*
X136386000Y-65366741D01*
X136386000Y-65189259D01*
X136420624Y-65015188D01*
X136488544Y-64851216D01*
X136587147Y-64703646D01*
X136712646Y-64578147D01*
X136860216Y-64479544D01*
X137024188Y-64411624D01*
X137173488Y-64381927D01*
X137198258Y-64377000D01*
X137375742Y-64377000D01*
X137400512Y-64381927D01*
G37*
G36*
X139940512Y-64381927D02*
G01*
X140089812Y-64411624D01*
X140253784Y-64479544D01*
X140401354Y-64578147D01*
X140526853Y-64703646D01*
X140625456Y-64851216D01*
X140693376Y-65015188D01*
X140728000Y-65189259D01*
X140728000Y-65366741D01*
X140693376Y-65540812D01*
X140625456Y-65704784D01*
X140526853Y-65852354D01*
X140401354Y-65977853D01*
X140253784Y-66076456D01*
X140089812Y-66144376D01*
X139940512Y-66174073D01*
X139915742Y-66179000D01*
X139738258Y-66179000D01*
X139713488Y-66174073D01*
X139564188Y-66144376D01*
X139400216Y-66076456D01*
X139252646Y-65977853D01*
X139127147Y-65852354D01*
X139028544Y-65704784D01*
X138960624Y-65540812D01*
X138926000Y-65366741D01*
X138926000Y-65189259D01*
X138960624Y-65015188D01*
X139028544Y-64851216D01*
X139127147Y-64703646D01*
X139252646Y-64578147D01*
X139400216Y-64479544D01*
X139564188Y-64411624D01*
X139713488Y-64381927D01*
X139738258Y-64377000D01*
X139915742Y-64377000D01*
X139940512Y-64381927D01*
G37*
G36*
X142480512Y-64381927D02*
G01*
X142629812Y-64411624D01*
X142793784Y-64479544D01*
X142941354Y-64578147D01*
X143066853Y-64703646D01*
X143165456Y-64851216D01*
X143233376Y-65015188D01*
X143268000Y-65189259D01*
X143268000Y-65366741D01*
X143233376Y-65540812D01*
X143165456Y-65704784D01*
X143066853Y-65852354D01*
X142941354Y-65977853D01*
X142793784Y-66076456D01*
X142629812Y-66144376D01*
X142480512Y-66174073D01*
X142455742Y-66179000D01*
X142278258Y-66179000D01*
X142253488Y-66174073D01*
X142104188Y-66144376D01*
X141940216Y-66076456D01*
X141792646Y-65977853D01*
X141667147Y-65852354D01*
X141568544Y-65704784D01*
X141500624Y-65540812D01*
X141466000Y-65366741D01*
X141466000Y-65189259D01*
X141500624Y-65015188D01*
X141568544Y-64851216D01*
X141667147Y-64703646D01*
X141792646Y-64578147D01*
X141940216Y-64479544D01*
X142104188Y-64411624D01*
X142253488Y-64381927D01*
X142278258Y-64377000D01*
X142455742Y-64377000D01*
X142480512Y-64381927D01*
G37*
G36*
X145020512Y-64381927D02*
G01*
X145169812Y-64411624D01*
X145333784Y-64479544D01*
X145481354Y-64578147D01*
X145606853Y-64703646D01*
X145705456Y-64851216D01*
X145773376Y-65015188D01*
X145808000Y-65189259D01*
X145808000Y-65366741D01*
X145773376Y-65540812D01*
X145705456Y-65704784D01*
X145606853Y-65852354D01*
X145481354Y-65977853D01*
X145333784Y-66076456D01*
X145169812Y-66144376D01*
X145020512Y-66174073D01*
X144995742Y-66179000D01*
X144818258Y-66179000D01*
X144793488Y-66174073D01*
X144644188Y-66144376D01*
X144480216Y-66076456D01*
X144332646Y-65977853D01*
X144207147Y-65852354D01*
X144108544Y-65704784D01*
X144040624Y-65540812D01*
X144006000Y-65366741D01*
X144006000Y-65189259D01*
X144040624Y-65015188D01*
X144108544Y-64851216D01*
X144207147Y-64703646D01*
X144332646Y-64578147D01*
X144480216Y-64479544D01*
X144644188Y-64411624D01*
X144793488Y-64381927D01*
X144818258Y-64377000D01*
X144995742Y-64377000D01*
X145020512Y-64381927D01*
G37*
G36*
X150888000Y-66179000D02*
G01*
X149086000Y-66179000D01*
X149086000Y-64377000D01*
X150888000Y-64377000D01*
X150888000Y-66179000D01*
G37*
G36*
X147560512Y-64381927D02*
G01*
X147709812Y-64411624D01*
X147873784Y-64479544D01*
X148021354Y-64578147D01*
X148146853Y-64703646D01*
X148245456Y-64851216D01*
X148313376Y-65015188D01*
X148348000Y-65189259D01*
X148348000Y-65366741D01*
X148313376Y-65540812D01*
X148245456Y-65704784D01*
X148146853Y-65852354D01*
X148021354Y-65977853D01*
X147873784Y-66076456D01*
X147709812Y-66144376D01*
X147560512Y-66174073D01*
X147535742Y-66179000D01*
X147358258Y-66179000D01*
X147333488Y-66174073D01*
X147184188Y-66144376D01*
X147020216Y-66076456D01*
X146872646Y-65977853D01*
X146747147Y-65852354D01*
X146648544Y-65704784D01*
X146580624Y-65540812D01*
X146546000Y-65366741D01*
X146546000Y-65189259D01*
X146580624Y-65015188D01*
X146648544Y-64851216D01*
X146747147Y-64703646D01*
X146872646Y-64578147D01*
X147020216Y-64479544D01*
X147184188Y-64411624D01*
X147333488Y-64381927D01*
X147358258Y-64377000D01*
X147535742Y-64377000D01*
X147560512Y-64381927D01*
G37*
M02*
