G04 #@! TF.GenerationSoftware,KiCad,Pcbnew,(5.1.5)-3*
G04 #@! TF.CreationDate,2020-07-30T14:07:20+07:00*
G04 #@! TF.ProjectId,lora_shield,6c6f7261-5f73-4686-9965-6c642e6b6963,rev?*
G04 #@! TF.SameCoordinates,Original*
G04 #@! TF.FileFunction,Copper,L2,Bot*
G04 #@! TF.FilePolarity,Positive*
%FSLAX46Y46*%
G04 Gerber Fmt 4.6, Leading zero omitted, Abs format (unit mm)*
G04 Created by KiCad (PCBNEW (5.1.5)-3) date 2020-07-30 14:07:20*
%MOMM*%
%LPD*%
G04 APERTURE LIST*
%ADD10O,1.700000X1.700000*%
%ADD11R,1.700000X1.700000*%
%ADD12R,4.199999X2.540000*%
%ADD13R,4.200000X1.350000*%
%ADD14C,0.800000*%
%ADD15C,0.250000*%
%ADD16C,0.508000*%
%ADD17C,0.254000*%
G04 APERTURE END LIST*
D10*
X156210000Y-105410000D03*
X156210000Y-102870000D03*
X156210000Y-100330000D03*
D11*
X156210000Y-97790000D03*
D10*
X148363200Y-105410000D03*
X148363200Y-102870000D03*
X148363200Y-100330000D03*
D11*
X148363200Y-97790000D03*
D10*
X139903200Y-105410000D03*
X139903200Y-102870000D03*
X139903200Y-100330000D03*
D11*
X139903200Y-97790000D03*
D10*
X119316500Y-95807000D03*
X116776500Y-95807000D03*
D11*
X114236500Y-95807000D03*
D10*
X119316500Y-104267000D03*
X116776500Y-104267000D03*
D11*
X114236500Y-104267000D03*
D12*
X174488500Y-84360500D03*
D13*
X174488500Y-90010500D03*
D10*
X173115500Y-107505500D03*
X173115500Y-104965500D03*
X173115500Y-102425500D03*
D11*
X173115500Y-99885500D03*
D10*
X165925500Y-107505500D03*
X165925500Y-104965500D03*
X165925500Y-102425500D03*
D11*
X165925500Y-99885500D03*
D10*
X136271000Y-113538000D03*
X138811000Y-113538000D03*
X141351000Y-113538000D03*
X143891000Y-113538000D03*
X146431000Y-113538000D03*
X148971000Y-113538000D03*
X151511000Y-113538000D03*
D11*
X154051000Y-113538000D03*
D10*
X171831000Y-113538000D03*
X169291000Y-113538000D03*
X166751000Y-113538000D03*
X164211000Y-113538000D03*
X161671000Y-113538000D03*
D11*
X159131000Y-113538000D03*
D10*
X132207000Y-65278000D03*
X134747000Y-65278000D03*
X137287000Y-65278000D03*
X139827000Y-65278000D03*
X142367000Y-65278000D03*
X144907000Y-65278000D03*
X147447000Y-65278000D03*
D11*
X149987000Y-65278000D03*
D10*
X154051000Y-65278000D03*
X156591000Y-65278000D03*
X159131000Y-65278000D03*
X161671000Y-65278000D03*
X164211000Y-65278000D03*
X166751000Y-65278000D03*
X169291000Y-65278000D03*
D11*
X171831000Y-65278000D03*
D14*
X143256000Y-75311000D03*
X144208500Y-74422000D03*
X134620000Y-72898000D03*
X135763000Y-72898000D03*
X135191500Y-71818500D03*
X149733000Y-90805000D03*
X151003000Y-90805000D03*
X152527000Y-90805000D03*
X141668500Y-92583000D03*
X140843000Y-91757500D03*
X140144500Y-90868500D03*
X139319000Y-89979500D03*
X136588500Y-92392500D03*
X137350500Y-93345000D03*
X138176000Y-94107000D03*
X168846500Y-85852000D03*
X169862500Y-85852000D03*
X170878500Y-85852000D03*
X171831000Y-85852000D03*
X168719500Y-88328500D03*
X169799000Y-88328500D03*
X170815000Y-88328500D03*
X171831000Y-88328500D03*
X142557500Y-106426000D03*
X132334000Y-74993500D03*
X135572500Y-99060000D03*
X136969500Y-70993000D03*
X137047500Y-72326500D03*
X130746500Y-102171500D03*
X145737153Y-86301153D03*
X160464500Y-75184000D03*
X145732500Y-85217000D03*
X160464500Y-73533000D03*
X146304000Y-87249000D03*
X160464500Y-77025500D03*
D15*
X146431000Y-110865185D02*
X146431000Y-113538000D01*
X142557500Y-106426000D02*
X142557500Y-106991685D01*
X142557500Y-106991685D02*
X146431000Y-110865185D01*
D16*
X139903200Y-102870000D02*
X148363200Y-102870000D01*
X154051000Y-70675500D02*
X154051000Y-65278000D01*
X143764000Y-71818500D02*
X152908000Y-71818500D01*
X152908000Y-71818500D02*
X154051000Y-70675500D01*
X132334000Y-74993500D02*
X140589000Y-74993500D01*
X140589000Y-74993500D02*
X143764000Y-71818500D01*
X119316500Y-104267000D02*
X133477000Y-104267000D01*
X133477000Y-104267000D02*
X135572500Y-102171500D01*
X135572500Y-102171500D02*
X135572500Y-99060000D01*
D15*
X136969500Y-70993000D02*
X138874500Y-70993000D01*
X139827000Y-70040500D02*
X139827000Y-65278000D01*
X138874500Y-70993000D02*
X139827000Y-70040500D01*
X137447499Y-71926501D02*
X140480999Y-71926501D01*
X137047500Y-72326500D02*
X137447499Y-71926501D01*
X142367000Y-70040500D02*
X142367000Y-65278000D01*
X140480999Y-71926501D02*
X142367000Y-70040500D01*
D16*
X149987000Y-65278000D02*
X149987000Y-69332490D01*
X148209000Y-71110490D02*
X143265510Y-71110490D01*
X149987000Y-69332490D02*
X148209000Y-71110490D01*
X140525500Y-73850500D02*
X140525500Y-74055724D01*
X143265510Y-71110490D02*
X140525500Y-73850500D01*
X140525500Y-74055724D02*
X131938276Y-74055724D01*
X131938276Y-74055724D02*
X130746500Y-75247500D01*
X130746500Y-75247500D02*
X130746500Y-102171500D01*
X141105281Y-100330000D02*
X148363200Y-100330000D01*
X139903200Y-100330000D02*
X141105281Y-100330000D01*
X139903200Y-97790000D02*
X148363200Y-97790000D01*
D15*
X152908000Y-75184000D02*
X160464500Y-75184000D01*
X146457501Y-81634499D02*
X152908000Y-75184000D01*
X145737153Y-86301153D02*
X146457501Y-85580805D01*
X146457501Y-85580805D02*
X146457501Y-81634499D01*
X145732500Y-85217000D02*
X145732500Y-81470500D01*
X145732500Y-81470500D02*
X153670000Y-73533000D01*
X153670000Y-73533000D02*
X160464500Y-73533000D01*
X151828500Y-77025500D02*
X160464500Y-77025500D01*
X151003000Y-77851000D02*
X151828500Y-77025500D01*
X146304000Y-87249000D02*
X146939000Y-86614000D01*
X146939000Y-81851500D02*
X150939500Y-77851000D01*
X146939000Y-86614000D02*
X146939000Y-81851500D01*
X150939500Y-77851000D02*
X151003000Y-77851000D01*
D17*
G36*
X174041201Y-64451214D02*
G01*
X174041200Y-70544231D01*
X174012558Y-70475082D01*
X173790202Y-70142303D01*
X173507197Y-69859298D01*
X173174418Y-69636942D01*
X172804654Y-69483781D01*
X172412115Y-69405700D01*
X172011885Y-69405700D01*
X171619346Y-69483781D01*
X171249582Y-69636942D01*
X170916803Y-69859298D01*
X170633798Y-70142303D01*
X170411442Y-70475082D01*
X170258281Y-70844846D01*
X170180200Y-71237385D01*
X170180200Y-71637615D01*
X170258281Y-72030154D01*
X170411442Y-72399918D01*
X170633798Y-72732697D01*
X170916803Y-73015702D01*
X171249582Y-73238058D01*
X171619346Y-73391219D01*
X172011885Y-73469300D01*
X172412115Y-73469300D01*
X172804654Y-73391219D01*
X173174418Y-73238058D01*
X173507197Y-73015702D01*
X173790202Y-72732697D01*
X174012558Y-72399918D01*
X174041200Y-72330769D01*
X174041200Y-75669570D01*
X174038991Y-75692000D01*
X174041200Y-75714430D01*
X174041200Y-75714437D01*
X174047810Y-75781547D01*
X174073930Y-75867655D01*
X174116347Y-75947011D01*
X174173431Y-76016569D01*
X174190863Y-76030875D01*
X176581201Y-78421214D01*
X176581200Y-110808787D01*
X174190859Y-113199129D01*
X174173432Y-113213431D01*
X174159130Y-113230858D01*
X174159128Y-113230860D01*
X174116348Y-113282988D01*
X174073930Y-113362345D01*
X174047810Y-113448452D01*
X174038991Y-113538000D01*
X174041201Y-113560440D01*
X174041200Y-115748200D01*
X108660800Y-115748200D01*
X108660800Y-113411754D01*
X134989200Y-113411754D01*
X134989200Y-113664246D01*
X135038459Y-113911887D01*
X135135084Y-114145160D01*
X135275361Y-114355100D01*
X135453900Y-114533639D01*
X135663840Y-114673916D01*
X135897113Y-114770541D01*
X136144754Y-114819800D01*
X136397246Y-114819800D01*
X136644887Y-114770541D01*
X136878160Y-114673916D01*
X137088100Y-114533639D01*
X137266639Y-114355100D01*
X137406916Y-114145160D01*
X137503541Y-113911887D01*
X137541000Y-113723568D01*
X137578459Y-113911887D01*
X137675084Y-114145160D01*
X137815361Y-114355100D01*
X137993900Y-114533639D01*
X138203840Y-114673916D01*
X138437113Y-114770541D01*
X138684754Y-114819800D01*
X138937246Y-114819800D01*
X139184887Y-114770541D01*
X139418160Y-114673916D01*
X139628100Y-114533639D01*
X139806639Y-114355100D01*
X139946916Y-114145160D01*
X140043541Y-113911887D01*
X140081000Y-113723568D01*
X140118459Y-113911887D01*
X140215084Y-114145160D01*
X140355361Y-114355100D01*
X140533900Y-114533639D01*
X140743840Y-114673916D01*
X140977113Y-114770541D01*
X141224754Y-114819800D01*
X141477246Y-114819800D01*
X141724887Y-114770541D01*
X141958160Y-114673916D01*
X142168100Y-114533639D01*
X142346639Y-114355100D01*
X142486916Y-114145160D01*
X142583541Y-113911887D01*
X142621000Y-113723568D01*
X142658459Y-113911887D01*
X142755084Y-114145160D01*
X142895361Y-114355100D01*
X143073900Y-114533639D01*
X143283840Y-114673916D01*
X143517113Y-114770541D01*
X143764754Y-114819800D01*
X144017246Y-114819800D01*
X144264887Y-114770541D01*
X144498160Y-114673916D01*
X144708100Y-114533639D01*
X144886639Y-114355100D01*
X145026916Y-114145160D01*
X145123541Y-113911887D01*
X145161000Y-113723568D01*
X145198459Y-113911887D01*
X145295084Y-114145160D01*
X145435361Y-114355100D01*
X145613900Y-114533639D01*
X145823840Y-114673916D01*
X146057113Y-114770541D01*
X146304754Y-114819800D01*
X146557246Y-114819800D01*
X146804887Y-114770541D01*
X147038160Y-114673916D01*
X147248100Y-114533639D01*
X147426639Y-114355100D01*
X147566916Y-114145160D01*
X147663541Y-113911887D01*
X147712800Y-113664246D01*
X147712800Y-113411754D01*
X147663541Y-113164113D01*
X147566916Y-112930840D01*
X147426639Y-112720900D01*
X147393739Y-112688000D01*
X152767111Y-112688000D01*
X152767111Y-114388000D01*
X152775448Y-114472648D01*
X152800139Y-114554042D01*
X152840234Y-114629056D01*
X152894194Y-114694806D01*
X152959944Y-114748766D01*
X153034958Y-114788861D01*
X153116352Y-114813552D01*
X153201000Y-114821889D01*
X154901000Y-114821889D01*
X154985648Y-114813552D01*
X155067042Y-114788861D01*
X155142056Y-114748766D01*
X155207806Y-114694806D01*
X155261766Y-114629056D01*
X155301861Y-114554042D01*
X155326552Y-114472648D01*
X155334889Y-114388000D01*
X155334889Y-112688000D01*
X157847111Y-112688000D01*
X157847111Y-114388000D01*
X157855448Y-114472648D01*
X157880139Y-114554042D01*
X157920234Y-114629056D01*
X157974194Y-114694806D01*
X158039944Y-114748766D01*
X158114958Y-114788861D01*
X158196352Y-114813552D01*
X158281000Y-114821889D01*
X159981000Y-114821889D01*
X160065648Y-114813552D01*
X160147042Y-114788861D01*
X160222056Y-114748766D01*
X160287806Y-114694806D01*
X160341766Y-114629056D01*
X160381861Y-114554042D01*
X160406552Y-114472648D01*
X160414889Y-114388000D01*
X160414889Y-113793393D01*
X160438459Y-113911887D01*
X160535084Y-114145160D01*
X160675361Y-114355100D01*
X160853900Y-114533639D01*
X161063840Y-114673916D01*
X161297113Y-114770541D01*
X161544754Y-114819800D01*
X161797246Y-114819800D01*
X162044887Y-114770541D01*
X162278160Y-114673916D01*
X162488100Y-114533639D01*
X162666639Y-114355100D01*
X162806916Y-114145160D01*
X162903541Y-113911887D01*
X162941000Y-113723568D01*
X162978459Y-113911887D01*
X163075084Y-114145160D01*
X163215361Y-114355100D01*
X163393900Y-114533639D01*
X163603840Y-114673916D01*
X163837113Y-114770541D01*
X164084754Y-114819800D01*
X164337246Y-114819800D01*
X164584887Y-114770541D01*
X164818160Y-114673916D01*
X165028100Y-114533639D01*
X165206639Y-114355100D01*
X165346916Y-114145160D01*
X165443541Y-113911887D01*
X165481000Y-113723568D01*
X165518459Y-113911887D01*
X165615084Y-114145160D01*
X165755361Y-114355100D01*
X165933900Y-114533639D01*
X166143840Y-114673916D01*
X166377113Y-114770541D01*
X166624754Y-114819800D01*
X166877246Y-114819800D01*
X167124887Y-114770541D01*
X167358160Y-114673916D01*
X167568100Y-114533639D01*
X167746639Y-114355100D01*
X167886916Y-114145160D01*
X167983541Y-113911887D01*
X168021000Y-113723568D01*
X168058459Y-113911887D01*
X168155084Y-114145160D01*
X168295361Y-114355100D01*
X168473900Y-114533639D01*
X168683840Y-114673916D01*
X168917113Y-114770541D01*
X169164754Y-114819800D01*
X169417246Y-114819800D01*
X169664887Y-114770541D01*
X169898160Y-114673916D01*
X170108100Y-114533639D01*
X170286639Y-114355100D01*
X170426916Y-114145160D01*
X170523541Y-113911887D01*
X170561000Y-113723568D01*
X170598459Y-113911887D01*
X170695084Y-114145160D01*
X170835361Y-114355100D01*
X171013900Y-114533639D01*
X171223840Y-114673916D01*
X171457113Y-114770541D01*
X171704754Y-114819800D01*
X171957246Y-114819800D01*
X172204887Y-114770541D01*
X172438160Y-114673916D01*
X172648100Y-114533639D01*
X172826639Y-114355100D01*
X172966916Y-114145160D01*
X173063541Y-113911887D01*
X173112800Y-113664246D01*
X173112800Y-113411754D01*
X173063541Y-113164113D01*
X172966916Y-112930840D01*
X172826639Y-112720900D01*
X172648100Y-112542361D01*
X172438160Y-112402084D01*
X172204887Y-112305459D01*
X171957246Y-112256200D01*
X171704754Y-112256200D01*
X171457113Y-112305459D01*
X171223840Y-112402084D01*
X171013900Y-112542361D01*
X170835361Y-112720900D01*
X170695084Y-112930840D01*
X170598459Y-113164113D01*
X170561000Y-113352432D01*
X170523541Y-113164113D01*
X170426916Y-112930840D01*
X170286639Y-112720900D01*
X170108100Y-112542361D01*
X169898160Y-112402084D01*
X169664887Y-112305459D01*
X169417246Y-112256200D01*
X169164754Y-112256200D01*
X168917113Y-112305459D01*
X168683840Y-112402084D01*
X168473900Y-112542361D01*
X168295361Y-112720900D01*
X168155084Y-112930840D01*
X168058459Y-113164113D01*
X168021000Y-113352432D01*
X167983541Y-113164113D01*
X167886916Y-112930840D01*
X167746639Y-112720900D01*
X167568100Y-112542361D01*
X167358160Y-112402084D01*
X167124887Y-112305459D01*
X166877246Y-112256200D01*
X166624754Y-112256200D01*
X166377113Y-112305459D01*
X166143840Y-112402084D01*
X165933900Y-112542361D01*
X165755361Y-112720900D01*
X165615084Y-112930840D01*
X165518459Y-113164113D01*
X165481000Y-113352432D01*
X165443541Y-113164113D01*
X165346916Y-112930840D01*
X165206639Y-112720900D01*
X165028100Y-112542361D01*
X164818160Y-112402084D01*
X164584887Y-112305459D01*
X164337246Y-112256200D01*
X164084754Y-112256200D01*
X163837113Y-112305459D01*
X163603840Y-112402084D01*
X163393900Y-112542361D01*
X163215361Y-112720900D01*
X163075084Y-112930840D01*
X162978459Y-113164113D01*
X162941000Y-113352432D01*
X162903541Y-113164113D01*
X162806916Y-112930840D01*
X162666639Y-112720900D01*
X162488100Y-112542361D01*
X162278160Y-112402084D01*
X162044887Y-112305459D01*
X161797246Y-112256200D01*
X161544754Y-112256200D01*
X161297113Y-112305459D01*
X161063840Y-112402084D01*
X160853900Y-112542361D01*
X160675361Y-112720900D01*
X160535084Y-112930840D01*
X160438459Y-113164113D01*
X160414889Y-113282607D01*
X160414889Y-112688000D01*
X160406552Y-112603352D01*
X160381861Y-112521958D01*
X160341766Y-112446944D01*
X160287806Y-112381194D01*
X160222056Y-112327234D01*
X160147042Y-112287139D01*
X160065648Y-112262448D01*
X159981000Y-112254111D01*
X158281000Y-112254111D01*
X158196352Y-112262448D01*
X158114958Y-112287139D01*
X158039944Y-112327234D01*
X157974194Y-112381194D01*
X157920234Y-112446944D01*
X157880139Y-112521958D01*
X157855448Y-112603352D01*
X157847111Y-112688000D01*
X155334889Y-112688000D01*
X155326552Y-112603352D01*
X155301861Y-112521958D01*
X155261766Y-112446944D01*
X155207806Y-112381194D01*
X155142056Y-112327234D01*
X155067042Y-112287139D01*
X154985648Y-112262448D01*
X154901000Y-112254111D01*
X153201000Y-112254111D01*
X153116352Y-112262448D01*
X153034958Y-112287139D01*
X152959944Y-112327234D01*
X152894194Y-112381194D01*
X152840234Y-112446944D01*
X152800139Y-112521958D01*
X152775448Y-112603352D01*
X152767111Y-112688000D01*
X147393739Y-112688000D01*
X147248100Y-112542361D01*
X147038160Y-112402084D01*
X146987800Y-112381224D01*
X146987800Y-110892525D01*
X146990493Y-110865184D01*
X146987800Y-110837843D01*
X146987800Y-110837834D01*
X146979743Y-110756033D01*
X146947905Y-110651076D01*
X146896202Y-110554347D01*
X146826622Y-110469563D01*
X146805376Y-110452127D01*
X143246014Y-106892766D01*
X143294632Y-106820005D01*
X143357335Y-106668627D01*
X143389300Y-106507925D01*
X143389300Y-106344075D01*
X143357335Y-106183373D01*
X143294632Y-106031995D01*
X143203601Y-105895758D01*
X143087742Y-105779899D01*
X142951505Y-105688868D01*
X142800127Y-105626165D01*
X142639425Y-105594200D01*
X142475575Y-105594200D01*
X142314873Y-105626165D01*
X142163495Y-105688868D01*
X142027258Y-105779899D01*
X141911399Y-105895758D01*
X141820368Y-106031995D01*
X141757665Y-106183373D01*
X141725700Y-106344075D01*
X141725700Y-106507925D01*
X141757665Y-106668627D01*
X141820368Y-106820005D01*
X141911399Y-106956242D01*
X142003596Y-107048439D01*
X142008757Y-107100837D01*
X142040596Y-107205794D01*
X142092299Y-107302523D01*
X142161879Y-107387307D01*
X142183125Y-107404743D01*
X145874200Y-111095819D01*
X145874201Y-112381224D01*
X145823840Y-112402084D01*
X145613900Y-112542361D01*
X145435361Y-112720900D01*
X145295084Y-112930840D01*
X145198459Y-113164113D01*
X145161000Y-113352432D01*
X145123541Y-113164113D01*
X145026916Y-112930840D01*
X144886639Y-112720900D01*
X144708100Y-112542361D01*
X144498160Y-112402084D01*
X144264887Y-112305459D01*
X144017246Y-112256200D01*
X143764754Y-112256200D01*
X143517113Y-112305459D01*
X143283840Y-112402084D01*
X143073900Y-112542361D01*
X142895361Y-112720900D01*
X142755084Y-112930840D01*
X142658459Y-113164113D01*
X142621000Y-113352432D01*
X142583541Y-113164113D01*
X142486916Y-112930840D01*
X142346639Y-112720900D01*
X142168100Y-112542361D01*
X141958160Y-112402084D01*
X141724887Y-112305459D01*
X141477246Y-112256200D01*
X141224754Y-112256200D01*
X140977113Y-112305459D01*
X140743840Y-112402084D01*
X140533900Y-112542361D01*
X140355361Y-112720900D01*
X140215084Y-112930840D01*
X140118459Y-113164113D01*
X140081000Y-113352432D01*
X140043541Y-113164113D01*
X139946916Y-112930840D01*
X139806639Y-112720900D01*
X139628100Y-112542361D01*
X139418160Y-112402084D01*
X139184887Y-112305459D01*
X138937246Y-112256200D01*
X138684754Y-112256200D01*
X138437113Y-112305459D01*
X138203840Y-112402084D01*
X137993900Y-112542361D01*
X137815361Y-112720900D01*
X137675084Y-112930840D01*
X137578459Y-113164113D01*
X137541000Y-113352432D01*
X137503541Y-113164113D01*
X137406916Y-112930840D01*
X137266639Y-112720900D01*
X137088100Y-112542361D01*
X136878160Y-112402084D01*
X136644887Y-112305459D01*
X136397246Y-112256200D01*
X136144754Y-112256200D01*
X135897113Y-112305459D01*
X135663840Y-112402084D01*
X135453900Y-112542361D01*
X135275361Y-112720900D01*
X135135084Y-112930840D01*
X135038459Y-113164113D01*
X134989200Y-113411754D01*
X108660800Y-113411754D01*
X108660800Y-103417000D01*
X112952611Y-103417000D01*
X112952611Y-105117000D01*
X112960948Y-105201648D01*
X112985639Y-105283042D01*
X113025734Y-105358056D01*
X113079694Y-105423806D01*
X113145444Y-105477766D01*
X113220458Y-105517861D01*
X113301852Y-105542552D01*
X113386500Y-105550889D01*
X115086500Y-105550889D01*
X115171148Y-105542552D01*
X115252542Y-105517861D01*
X115327556Y-105477766D01*
X115393306Y-105423806D01*
X115447266Y-105358056D01*
X115487361Y-105283042D01*
X115512052Y-105201648D01*
X115520389Y-105117000D01*
X115520389Y-104140754D01*
X118034700Y-104140754D01*
X118034700Y-104393246D01*
X118083959Y-104640887D01*
X118180584Y-104874160D01*
X118320861Y-105084100D01*
X118499400Y-105262639D01*
X118709340Y-105402916D01*
X118942613Y-105499541D01*
X119190254Y-105548800D01*
X119442746Y-105548800D01*
X119690387Y-105499541D01*
X119923660Y-105402916D01*
X120133600Y-105262639D01*
X120312139Y-105084100D01*
X120399871Y-104952800D01*
X133443321Y-104952800D01*
X133477000Y-104956117D01*
X133510679Y-104952800D01*
X133510689Y-104952800D01*
X133611440Y-104942877D01*
X133740714Y-104903662D01*
X133859853Y-104839981D01*
X133964280Y-104754280D01*
X133985758Y-104728109D01*
X136033614Y-102680253D01*
X136059779Y-102658780D01*
X136145481Y-102554353D01*
X136209162Y-102435214D01*
X136248377Y-102305940D01*
X136258300Y-102205189D01*
X136258300Y-102205188D01*
X136261618Y-102171500D01*
X136258300Y-102137811D01*
X136258300Y-99530828D01*
X136309632Y-99454005D01*
X136372335Y-99302627D01*
X136404300Y-99141925D01*
X136404300Y-98978075D01*
X136372335Y-98817373D01*
X136309632Y-98665995D01*
X136218601Y-98529758D01*
X136102742Y-98413899D01*
X135966505Y-98322868D01*
X135815127Y-98260165D01*
X135654425Y-98228200D01*
X135490575Y-98228200D01*
X135329873Y-98260165D01*
X135178495Y-98322868D01*
X135042258Y-98413899D01*
X134926399Y-98529758D01*
X134835368Y-98665995D01*
X134772665Y-98817373D01*
X134740700Y-98978075D01*
X134740700Y-99141925D01*
X134772665Y-99302627D01*
X134835368Y-99454005D01*
X134886701Y-99530830D01*
X134886700Y-101887433D01*
X133192933Y-103581200D01*
X120399871Y-103581200D01*
X120312139Y-103449900D01*
X120133600Y-103271361D01*
X119923660Y-103131084D01*
X119690387Y-103034459D01*
X119442746Y-102985200D01*
X119190254Y-102985200D01*
X118942613Y-103034459D01*
X118709340Y-103131084D01*
X118499400Y-103271361D01*
X118320861Y-103449900D01*
X118180584Y-103659840D01*
X118083959Y-103893113D01*
X118034700Y-104140754D01*
X115520389Y-104140754D01*
X115520389Y-103417000D01*
X115512052Y-103332352D01*
X115487361Y-103250958D01*
X115447266Y-103175944D01*
X115393306Y-103110194D01*
X115327556Y-103056234D01*
X115252542Y-103016139D01*
X115171148Y-102991448D01*
X115086500Y-102983111D01*
X113386500Y-102983111D01*
X113301852Y-102991448D01*
X113220458Y-103016139D01*
X113145444Y-103056234D01*
X113079694Y-103110194D01*
X113025734Y-103175944D01*
X112985639Y-103250958D01*
X112960948Y-103332352D01*
X112952611Y-103417000D01*
X108660800Y-103417000D01*
X108660800Y-102089575D01*
X129914700Y-102089575D01*
X129914700Y-102253425D01*
X129946665Y-102414127D01*
X130009368Y-102565505D01*
X130100399Y-102701742D01*
X130216258Y-102817601D01*
X130352495Y-102908632D01*
X130503873Y-102971335D01*
X130664575Y-103003300D01*
X130828425Y-103003300D01*
X130989127Y-102971335D01*
X131140505Y-102908632D01*
X131276742Y-102817601D01*
X131392601Y-102701742D01*
X131483632Y-102565505D01*
X131546335Y-102414127D01*
X131578300Y-102253425D01*
X131578300Y-102089575D01*
X131546335Y-101928873D01*
X131483632Y-101777495D01*
X131432300Y-101700672D01*
X131432300Y-96940000D01*
X138619311Y-96940000D01*
X138619311Y-98640000D01*
X138627648Y-98724648D01*
X138652339Y-98806042D01*
X138692434Y-98881056D01*
X138746394Y-98946806D01*
X138812144Y-99000766D01*
X138887158Y-99040861D01*
X138968552Y-99065552D01*
X139053200Y-99073889D01*
X139647807Y-99073889D01*
X139529313Y-99097459D01*
X139296040Y-99194084D01*
X139086100Y-99334361D01*
X138907561Y-99512900D01*
X138767284Y-99722840D01*
X138670659Y-99956113D01*
X138621400Y-100203754D01*
X138621400Y-100456246D01*
X138670659Y-100703887D01*
X138767284Y-100937160D01*
X138907561Y-101147100D01*
X139086100Y-101325639D01*
X139296040Y-101465916D01*
X139529313Y-101562541D01*
X139717632Y-101600000D01*
X139529313Y-101637459D01*
X139296040Y-101734084D01*
X139086100Y-101874361D01*
X138907561Y-102052900D01*
X138767284Y-102262840D01*
X138670659Y-102496113D01*
X138621400Y-102743754D01*
X138621400Y-102996246D01*
X138670659Y-103243887D01*
X138767284Y-103477160D01*
X138907561Y-103687100D01*
X139086100Y-103865639D01*
X139296040Y-104005916D01*
X139529313Y-104102541D01*
X139776954Y-104151800D01*
X140029446Y-104151800D01*
X140277087Y-104102541D01*
X140510360Y-104005916D01*
X140720300Y-103865639D01*
X140898839Y-103687100D01*
X140986571Y-103555800D01*
X147279829Y-103555800D01*
X147367561Y-103687100D01*
X147546100Y-103865639D01*
X147756040Y-104005916D01*
X147989313Y-104102541D01*
X148236954Y-104151800D01*
X148489446Y-104151800D01*
X148737087Y-104102541D01*
X148970360Y-104005916D01*
X149180300Y-103865639D01*
X149358839Y-103687100D01*
X149499116Y-103477160D01*
X149595741Y-103243887D01*
X149645000Y-102996246D01*
X149645000Y-102743754D01*
X149595741Y-102496113D01*
X149499116Y-102262840D01*
X149358839Y-102052900D01*
X149180300Y-101874361D01*
X148970360Y-101734084D01*
X148737087Y-101637459D01*
X148548768Y-101600000D01*
X148737087Y-101562541D01*
X148970360Y-101465916D01*
X149180300Y-101325639D01*
X149358839Y-101147100D01*
X149499116Y-100937160D01*
X149595741Y-100703887D01*
X149645000Y-100456246D01*
X149645000Y-100203754D01*
X149595741Y-99956113D01*
X149499116Y-99722840D01*
X149358839Y-99512900D01*
X149180300Y-99334361D01*
X148970360Y-99194084D01*
X148737087Y-99097459D01*
X148618593Y-99073889D01*
X149213200Y-99073889D01*
X149297848Y-99065552D01*
X149379242Y-99040861D01*
X149454256Y-99000766D01*
X149520006Y-98946806D01*
X149573966Y-98881056D01*
X149614061Y-98806042D01*
X149638752Y-98724648D01*
X149647089Y-98640000D01*
X149647089Y-96940000D01*
X154926111Y-96940000D01*
X154926111Y-98640000D01*
X154934448Y-98724648D01*
X154959139Y-98806042D01*
X154999234Y-98881056D01*
X155053194Y-98946806D01*
X155118944Y-99000766D01*
X155193958Y-99040861D01*
X155275352Y-99065552D01*
X155360000Y-99073889D01*
X155954607Y-99073889D01*
X155836113Y-99097459D01*
X155602840Y-99194084D01*
X155392900Y-99334361D01*
X155214361Y-99512900D01*
X155074084Y-99722840D01*
X154977459Y-99956113D01*
X154928200Y-100203754D01*
X154928200Y-100456246D01*
X154977459Y-100703887D01*
X155074084Y-100937160D01*
X155214361Y-101147100D01*
X155392900Y-101325639D01*
X155602840Y-101465916D01*
X155836113Y-101562541D01*
X156024432Y-101600000D01*
X155836113Y-101637459D01*
X155602840Y-101734084D01*
X155392900Y-101874361D01*
X155214361Y-102052900D01*
X155074084Y-102262840D01*
X154977459Y-102496113D01*
X154928200Y-102743754D01*
X154928200Y-102996246D01*
X154977459Y-103243887D01*
X155074084Y-103477160D01*
X155214361Y-103687100D01*
X155392900Y-103865639D01*
X155602840Y-104005916D01*
X155836113Y-104102541D01*
X156083754Y-104151800D01*
X156336246Y-104151800D01*
X156583887Y-104102541D01*
X156817160Y-104005916D01*
X157027100Y-103865639D01*
X157205639Y-103687100D01*
X157345916Y-103477160D01*
X157442541Y-103243887D01*
X157491800Y-102996246D01*
X157491800Y-102743754D01*
X157442541Y-102496113D01*
X157345916Y-102262840D01*
X157205639Y-102052900D01*
X157027100Y-101874361D01*
X156817160Y-101734084D01*
X156583887Y-101637459D01*
X156395568Y-101600000D01*
X156583887Y-101562541D01*
X156817160Y-101465916D01*
X157027100Y-101325639D01*
X157205639Y-101147100D01*
X157345916Y-100937160D01*
X157442541Y-100703887D01*
X157491800Y-100456246D01*
X157491800Y-100203754D01*
X157442541Y-99956113D01*
X157345916Y-99722840D01*
X157205639Y-99512900D01*
X157027100Y-99334361D01*
X156817160Y-99194084D01*
X156583887Y-99097459D01*
X156465393Y-99073889D01*
X157060000Y-99073889D01*
X157144648Y-99065552D01*
X157226042Y-99040861D01*
X157236071Y-99035500D01*
X164641611Y-99035500D01*
X164641611Y-100735500D01*
X164649948Y-100820148D01*
X164674639Y-100901542D01*
X164714734Y-100976556D01*
X164768694Y-101042306D01*
X164834444Y-101096266D01*
X164909458Y-101136361D01*
X164990852Y-101161052D01*
X165075500Y-101169389D01*
X165670107Y-101169389D01*
X165551613Y-101192959D01*
X165318340Y-101289584D01*
X165108400Y-101429861D01*
X164929861Y-101608400D01*
X164789584Y-101818340D01*
X164692959Y-102051613D01*
X164643700Y-102299254D01*
X164643700Y-102551746D01*
X164692959Y-102799387D01*
X164789584Y-103032660D01*
X164929861Y-103242600D01*
X165108400Y-103421139D01*
X165318340Y-103561416D01*
X165551613Y-103658041D01*
X165739932Y-103695500D01*
X165551613Y-103732959D01*
X165318340Y-103829584D01*
X165108400Y-103969861D01*
X164929861Y-104148400D01*
X164789584Y-104358340D01*
X164692959Y-104591613D01*
X164643700Y-104839254D01*
X164643700Y-105091746D01*
X164692959Y-105339387D01*
X164789584Y-105572660D01*
X164929861Y-105782600D01*
X165108400Y-105961139D01*
X165318340Y-106101416D01*
X165551613Y-106198041D01*
X165799254Y-106247300D01*
X166051746Y-106247300D01*
X166299387Y-106198041D01*
X166532660Y-106101416D01*
X166742600Y-105961139D01*
X166921139Y-105782600D01*
X167061416Y-105572660D01*
X167158041Y-105339387D01*
X167207300Y-105091746D01*
X167207300Y-104839254D01*
X167158041Y-104591613D01*
X167061416Y-104358340D01*
X166921139Y-104148400D01*
X166742600Y-103969861D01*
X166532660Y-103829584D01*
X166299387Y-103732959D01*
X166111068Y-103695500D01*
X166299387Y-103658041D01*
X166532660Y-103561416D01*
X166742600Y-103421139D01*
X166921139Y-103242600D01*
X167061416Y-103032660D01*
X167158041Y-102799387D01*
X167207300Y-102551746D01*
X167207300Y-102299254D01*
X167158041Y-102051613D01*
X167061416Y-101818340D01*
X166921139Y-101608400D01*
X166742600Y-101429861D01*
X166532660Y-101289584D01*
X166299387Y-101192959D01*
X166180893Y-101169389D01*
X166775500Y-101169389D01*
X166860148Y-101161052D01*
X166941542Y-101136361D01*
X167016556Y-101096266D01*
X167082306Y-101042306D01*
X167136266Y-100976556D01*
X167176361Y-100901542D01*
X167201052Y-100820148D01*
X167209389Y-100735500D01*
X167209389Y-99035500D01*
X171831611Y-99035500D01*
X171831611Y-100735500D01*
X171839948Y-100820148D01*
X171864639Y-100901542D01*
X171904734Y-100976556D01*
X171958694Y-101042306D01*
X172024444Y-101096266D01*
X172099458Y-101136361D01*
X172180852Y-101161052D01*
X172265500Y-101169389D01*
X172860107Y-101169389D01*
X172741613Y-101192959D01*
X172508340Y-101289584D01*
X172298400Y-101429861D01*
X172119861Y-101608400D01*
X171979584Y-101818340D01*
X171882959Y-102051613D01*
X171833700Y-102299254D01*
X171833700Y-102551746D01*
X171882959Y-102799387D01*
X171979584Y-103032660D01*
X172119861Y-103242600D01*
X172298400Y-103421139D01*
X172508340Y-103561416D01*
X172741613Y-103658041D01*
X172929932Y-103695500D01*
X172741613Y-103732959D01*
X172508340Y-103829584D01*
X172298400Y-103969861D01*
X172119861Y-104148400D01*
X171979584Y-104358340D01*
X171882959Y-104591613D01*
X171833700Y-104839254D01*
X171833700Y-105091746D01*
X171882959Y-105339387D01*
X171979584Y-105572660D01*
X172119861Y-105782600D01*
X172298400Y-105961139D01*
X172508340Y-106101416D01*
X172741613Y-106198041D01*
X172989254Y-106247300D01*
X173241746Y-106247300D01*
X173489387Y-106198041D01*
X173722660Y-106101416D01*
X173932600Y-105961139D01*
X174111139Y-105782600D01*
X174251416Y-105572660D01*
X174348041Y-105339387D01*
X174397300Y-105091746D01*
X174397300Y-104839254D01*
X174348041Y-104591613D01*
X174251416Y-104358340D01*
X174111139Y-104148400D01*
X173932600Y-103969861D01*
X173722660Y-103829584D01*
X173489387Y-103732959D01*
X173301068Y-103695500D01*
X173489387Y-103658041D01*
X173722660Y-103561416D01*
X173932600Y-103421139D01*
X174111139Y-103242600D01*
X174251416Y-103032660D01*
X174348041Y-102799387D01*
X174397300Y-102551746D01*
X174397300Y-102299254D01*
X174348041Y-102051613D01*
X174251416Y-101818340D01*
X174111139Y-101608400D01*
X173932600Y-101429861D01*
X173722660Y-101289584D01*
X173489387Y-101192959D01*
X173370893Y-101169389D01*
X173965500Y-101169389D01*
X174050148Y-101161052D01*
X174131542Y-101136361D01*
X174206556Y-101096266D01*
X174272306Y-101042306D01*
X174326266Y-100976556D01*
X174366361Y-100901542D01*
X174391052Y-100820148D01*
X174399389Y-100735500D01*
X174399389Y-99035500D01*
X174391052Y-98950852D01*
X174366361Y-98869458D01*
X174326266Y-98794444D01*
X174272306Y-98728694D01*
X174206556Y-98674734D01*
X174131542Y-98634639D01*
X174050148Y-98609948D01*
X173965500Y-98601611D01*
X172265500Y-98601611D01*
X172180852Y-98609948D01*
X172099458Y-98634639D01*
X172024444Y-98674734D01*
X171958694Y-98728694D01*
X171904734Y-98794444D01*
X171864639Y-98869458D01*
X171839948Y-98950852D01*
X171831611Y-99035500D01*
X167209389Y-99035500D01*
X167201052Y-98950852D01*
X167176361Y-98869458D01*
X167136266Y-98794444D01*
X167082306Y-98728694D01*
X167016556Y-98674734D01*
X166941542Y-98634639D01*
X166860148Y-98609948D01*
X166775500Y-98601611D01*
X165075500Y-98601611D01*
X164990852Y-98609948D01*
X164909458Y-98634639D01*
X164834444Y-98674734D01*
X164768694Y-98728694D01*
X164714734Y-98794444D01*
X164674639Y-98869458D01*
X164649948Y-98950852D01*
X164641611Y-99035500D01*
X157236071Y-99035500D01*
X157301056Y-99000766D01*
X157366806Y-98946806D01*
X157420766Y-98881056D01*
X157460861Y-98806042D01*
X157485552Y-98724648D01*
X157493889Y-98640000D01*
X157493889Y-96940000D01*
X157485552Y-96855352D01*
X157460861Y-96773958D01*
X157420766Y-96698944D01*
X157366806Y-96633194D01*
X157301056Y-96579234D01*
X157226042Y-96539139D01*
X157144648Y-96514448D01*
X157060000Y-96506111D01*
X155360000Y-96506111D01*
X155275352Y-96514448D01*
X155193958Y-96539139D01*
X155118944Y-96579234D01*
X155053194Y-96633194D01*
X154999234Y-96698944D01*
X154959139Y-96773958D01*
X154934448Y-96855352D01*
X154926111Y-96940000D01*
X149647089Y-96940000D01*
X149638752Y-96855352D01*
X149614061Y-96773958D01*
X149573966Y-96698944D01*
X149520006Y-96633194D01*
X149454256Y-96579234D01*
X149379242Y-96539139D01*
X149297848Y-96514448D01*
X149213200Y-96506111D01*
X147513200Y-96506111D01*
X147428552Y-96514448D01*
X147347158Y-96539139D01*
X147272144Y-96579234D01*
X147206394Y-96633194D01*
X147152434Y-96698944D01*
X147112339Y-96773958D01*
X147087648Y-96855352D01*
X147079311Y-96940000D01*
X147079311Y-97104200D01*
X141187089Y-97104200D01*
X141187089Y-96940000D01*
X141178752Y-96855352D01*
X141154061Y-96773958D01*
X141113966Y-96698944D01*
X141060006Y-96633194D01*
X140994256Y-96579234D01*
X140919242Y-96539139D01*
X140837848Y-96514448D01*
X140753200Y-96506111D01*
X139053200Y-96506111D01*
X138968552Y-96514448D01*
X138887158Y-96539139D01*
X138812144Y-96579234D01*
X138746394Y-96633194D01*
X138692434Y-96698944D01*
X138652339Y-96773958D01*
X138627648Y-96855352D01*
X138619311Y-96940000D01*
X131432300Y-96940000D01*
X131432300Y-93335385D01*
X167259200Y-93335385D01*
X167259200Y-93735615D01*
X167337281Y-94128154D01*
X167490442Y-94497918D01*
X167712798Y-94830697D01*
X167995803Y-95113702D01*
X168328582Y-95336058D01*
X168698346Y-95489219D01*
X169090885Y-95567300D01*
X169491115Y-95567300D01*
X169883654Y-95489219D01*
X170253418Y-95336058D01*
X170586197Y-95113702D01*
X170869202Y-94830697D01*
X171091558Y-94497918D01*
X171244719Y-94128154D01*
X171322800Y-93735615D01*
X171322800Y-93335385D01*
X171244719Y-92942846D01*
X171091558Y-92573082D01*
X170869202Y-92240303D01*
X170586197Y-91957298D01*
X170253418Y-91734942D01*
X169883654Y-91581781D01*
X169491115Y-91503700D01*
X169090885Y-91503700D01*
X168698346Y-91581781D01*
X168328582Y-91734942D01*
X167995803Y-91957298D01*
X167712798Y-92240303D01*
X167490442Y-92573082D01*
X167337281Y-92942846D01*
X167259200Y-93335385D01*
X131432300Y-93335385D01*
X131432300Y-85135075D01*
X144900700Y-85135075D01*
X144900700Y-85298925D01*
X144932665Y-85459627D01*
X144995368Y-85611005D01*
X145086399Y-85747242D01*
X145100560Y-85761403D01*
X145091052Y-85770911D01*
X145000021Y-85907148D01*
X144937318Y-86058526D01*
X144905353Y-86219228D01*
X144905353Y-86383078D01*
X144937318Y-86543780D01*
X145000021Y-86695158D01*
X145091052Y-86831395D01*
X145206911Y-86947254D01*
X145343148Y-87038285D01*
X145486044Y-87097475D01*
X145472200Y-87167075D01*
X145472200Y-87330925D01*
X145504165Y-87491627D01*
X145566868Y-87643005D01*
X145657899Y-87779242D01*
X145773758Y-87895101D01*
X145909995Y-87986132D01*
X146061373Y-88048835D01*
X146222075Y-88080800D01*
X146385925Y-88080800D01*
X146546627Y-88048835D01*
X146698005Y-87986132D01*
X146834242Y-87895101D01*
X146950101Y-87779242D01*
X147041132Y-87643005D01*
X147103835Y-87491627D01*
X147135800Y-87330925D01*
X147135800Y-87204634D01*
X147313375Y-87027058D01*
X147334622Y-87009622D01*
X147404202Y-86924838D01*
X147455905Y-86828109D01*
X147487743Y-86723152D01*
X147495800Y-86641351D01*
X147495800Y-86641350D01*
X147498494Y-86614000D01*
X147495800Y-86586649D01*
X147495800Y-82082133D01*
X151206946Y-78370988D01*
X151217109Y-78367905D01*
X151313838Y-78316202D01*
X151398622Y-78246622D01*
X151416063Y-78225370D01*
X152059134Y-77582300D01*
X159844957Y-77582300D01*
X159934258Y-77671601D01*
X160070495Y-77762632D01*
X160221873Y-77825335D01*
X160382575Y-77857300D01*
X160546425Y-77857300D01*
X160707127Y-77825335D01*
X160858505Y-77762632D01*
X160994742Y-77671601D01*
X161110601Y-77555742D01*
X161201632Y-77419505D01*
X161264335Y-77268127D01*
X161296300Y-77107425D01*
X161296300Y-76943575D01*
X161264335Y-76782873D01*
X161201632Y-76631495D01*
X161110601Y-76495258D01*
X160994742Y-76379399D01*
X160858505Y-76288368D01*
X160707127Y-76225665D01*
X160546425Y-76193700D01*
X160382575Y-76193700D01*
X160221873Y-76225665D01*
X160070495Y-76288368D01*
X159934258Y-76379399D01*
X159844957Y-76468700D01*
X152410735Y-76468700D01*
X153138635Y-75740800D01*
X159844957Y-75740800D01*
X159934258Y-75830101D01*
X160070495Y-75921132D01*
X160221873Y-75983835D01*
X160382575Y-76015800D01*
X160546425Y-76015800D01*
X160707127Y-75983835D01*
X160858505Y-75921132D01*
X160994742Y-75830101D01*
X161110601Y-75714242D01*
X161201632Y-75578005D01*
X161264335Y-75426627D01*
X161296300Y-75265925D01*
X161296300Y-75102075D01*
X161264335Y-74941373D01*
X161201632Y-74789995D01*
X161110601Y-74653758D01*
X160994742Y-74537899D01*
X160858505Y-74446868D01*
X160707127Y-74384165D01*
X160578098Y-74358500D01*
X160707127Y-74332835D01*
X160858505Y-74270132D01*
X160994742Y-74179101D01*
X161110601Y-74063242D01*
X161201632Y-73927005D01*
X161264335Y-73775627D01*
X161296300Y-73614925D01*
X161296300Y-73451075D01*
X161264335Y-73290373D01*
X161201632Y-73138995D01*
X161110601Y-73002758D01*
X160994742Y-72886899D01*
X160858505Y-72795868D01*
X160707127Y-72733165D01*
X160546425Y-72701200D01*
X160382575Y-72701200D01*
X160221873Y-72733165D01*
X160070495Y-72795868D01*
X159934258Y-72886899D01*
X159844957Y-72976200D01*
X153697343Y-72976200D01*
X153669999Y-72973507D01*
X153642655Y-72976200D01*
X153642649Y-72976200D01*
X153560848Y-72984257D01*
X153455891Y-73016095D01*
X153359162Y-73067798D01*
X153319639Y-73100234D01*
X153295622Y-73119943D01*
X153295619Y-73119946D01*
X153274378Y-73137378D01*
X153256946Y-73158619D01*
X145358125Y-81057442D01*
X145336879Y-81074878D01*
X145319443Y-81096124D01*
X145267298Y-81159663D01*
X145215596Y-81256391D01*
X145183757Y-81361349D01*
X145173007Y-81470500D01*
X145175701Y-81497854D01*
X145175700Y-84597457D01*
X145086399Y-84686758D01*
X144995368Y-84822995D01*
X144932665Y-84974373D01*
X144900700Y-85135075D01*
X131432300Y-85135075D01*
X131432300Y-75531567D01*
X131590862Y-75373005D01*
X131596868Y-75387505D01*
X131687899Y-75523742D01*
X131803758Y-75639601D01*
X131939995Y-75730632D01*
X132091373Y-75793335D01*
X132252075Y-75825300D01*
X132415925Y-75825300D01*
X132576627Y-75793335D01*
X132728005Y-75730632D01*
X132804828Y-75679300D01*
X140555321Y-75679300D01*
X140589000Y-75682617D01*
X140622679Y-75679300D01*
X140622689Y-75679300D01*
X140723440Y-75669377D01*
X140852714Y-75630162D01*
X140971853Y-75566481D01*
X141076280Y-75480780D01*
X141097758Y-75454609D01*
X144048068Y-72504300D01*
X152874321Y-72504300D01*
X152908000Y-72507617D01*
X152941679Y-72504300D01*
X152941689Y-72504300D01*
X153042440Y-72494377D01*
X153171714Y-72455162D01*
X153290853Y-72391481D01*
X153395280Y-72305780D01*
X153416758Y-72279609D01*
X154512119Y-71184249D01*
X154538279Y-71162780D01*
X154559749Y-71136619D01*
X154559755Y-71136613D01*
X154623980Y-71058354D01*
X154623981Y-71058353D01*
X154687662Y-70939214D01*
X154726877Y-70809940D01*
X154736800Y-70709189D01*
X154736800Y-70709180D01*
X154740117Y-70675501D01*
X154736800Y-70641822D01*
X154736800Y-66361371D01*
X154868100Y-66273639D01*
X155046639Y-66095100D01*
X155186916Y-65885160D01*
X155283541Y-65651887D01*
X155321000Y-65463568D01*
X155358459Y-65651887D01*
X155455084Y-65885160D01*
X155595361Y-66095100D01*
X155773900Y-66273639D01*
X155983840Y-66413916D01*
X156217113Y-66510541D01*
X156464754Y-66559800D01*
X156717246Y-66559800D01*
X156964887Y-66510541D01*
X157198160Y-66413916D01*
X157408100Y-66273639D01*
X157586639Y-66095100D01*
X157726916Y-65885160D01*
X157823541Y-65651887D01*
X157861000Y-65463568D01*
X157898459Y-65651887D01*
X157995084Y-65885160D01*
X158135361Y-66095100D01*
X158313900Y-66273639D01*
X158523840Y-66413916D01*
X158757113Y-66510541D01*
X159004754Y-66559800D01*
X159257246Y-66559800D01*
X159504887Y-66510541D01*
X159738160Y-66413916D01*
X159948100Y-66273639D01*
X160126639Y-66095100D01*
X160266916Y-65885160D01*
X160363541Y-65651887D01*
X160401000Y-65463568D01*
X160438459Y-65651887D01*
X160535084Y-65885160D01*
X160675361Y-66095100D01*
X160853900Y-66273639D01*
X161063840Y-66413916D01*
X161297113Y-66510541D01*
X161544754Y-66559800D01*
X161797246Y-66559800D01*
X162044887Y-66510541D01*
X162278160Y-66413916D01*
X162488100Y-66273639D01*
X162666639Y-66095100D01*
X162806916Y-65885160D01*
X162903541Y-65651887D01*
X162941000Y-65463568D01*
X162978459Y-65651887D01*
X163075084Y-65885160D01*
X163215361Y-66095100D01*
X163393900Y-66273639D01*
X163603840Y-66413916D01*
X163837113Y-66510541D01*
X164084754Y-66559800D01*
X164337246Y-66559800D01*
X164584887Y-66510541D01*
X164818160Y-66413916D01*
X165028100Y-66273639D01*
X165206639Y-66095100D01*
X165346916Y-65885160D01*
X165443541Y-65651887D01*
X165481000Y-65463568D01*
X165518459Y-65651887D01*
X165615084Y-65885160D01*
X165755361Y-66095100D01*
X165933900Y-66273639D01*
X166143840Y-66413916D01*
X166377113Y-66510541D01*
X166624754Y-66559800D01*
X166877246Y-66559800D01*
X167124887Y-66510541D01*
X167358160Y-66413916D01*
X167568100Y-66273639D01*
X167746639Y-66095100D01*
X167886916Y-65885160D01*
X167983541Y-65651887D01*
X168021000Y-65463568D01*
X168058459Y-65651887D01*
X168155084Y-65885160D01*
X168295361Y-66095100D01*
X168473900Y-66273639D01*
X168683840Y-66413916D01*
X168917113Y-66510541D01*
X169164754Y-66559800D01*
X169417246Y-66559800D01*
X169664887Y-66510541D01*
X169898160Y-66413916D01*
X170108100Y-66273639D01*
X170286639Y-66095100D01*
X170426916Y-65885160D01*
X170523541Y-65651887D01*
X170547111Y-65533393D01*
X170547111Y-66128000D01*
X170555448Y-66212648D01*
X170580139Y-66294042D01*
X170620234Y-66369056D01*
X170674194Y-66434806D01*
X170739944Y-66488766D01*
X170814958Y-66528861D01*
X170896352Y-66553552D01*
X170981000Y-66561889D01*
X172681000Y-66561889D01*
X172765648Y-66553552D01*
X172847042Y-66528861D01*
X172922056Y-66488766D01*
X172987806Y-66434806D01*
X173041766Y-66369056D01*
X173081861Y-66294042D01*
X173106552Y-66212648D01*
X173114889Y-66128000D01*
X173114889Y-64428000D01*
X173106552Y-64343352D01*
X173081861Y-64261958D01*
X173041766Y-64186944D01*
X172987806Y-64121194D01*
X172922056Y-64067234D01*
X172847042Y-64027139D01*
X172765648Y-64002448D01*
X172681000Y-63994111D01*
X170981000Y-63994111D01*
X170896352Y-64002448D01*
X170814958Y-64027139D01*
X170739944Y-64067234D01*
X170674194Y-64121194D01*
X170620234Y-64186944D01*
X170580139Y-64261958D01*
X170555448Y-64343352D01*
X170547111Y-64428000D01*
X170547111Y-65022607D01*
X170523541Y-64904113D01*
X170426916Y-64670840D01*
X170286639Y-64460900D01*
X170108100Y-64282361D01*
X169898160Y-64142084D01*
X169664887Y-64045459D01*
X169417246Y-63996200D01*
X169164754Y-63996200D01*
X168917113Y-64045459D01*
X168683840Y-64142084D01*
X168473900Y-64282361D01*
X168295361Y-64460900D01*
X168155084Y-64670840D01*
X168058459Y-64904113D01*
X168021000Y-65092432D01*
X167983541Y-64904113D01*
X167886916Y-64670840D01*
X167746639Y-64460900D01*
X167568100Y-64282361D01*
X167358160Y-64142084D01*
X167124887Y-64045459D01*
X166877246Y-63996200D01*
X166624754Y-63996200D01*
X166377113Y-64045459D01*
X166143840Y-64142084D01*
X165933900Y-64282361D01*
X165755361Y-64460900D01*
X165615084Y-64670840D01*
X165518459Y-64904113D01*
X165481000Y-65092432D01*
X165443541Y-64904113D01*
X165346916Y-64670840D01*
X165206639Y-64460900D01*
X165028100Y-64282361D01*
X164818160Y-64142084D01*
X164584887Y-64045459D01*
X164337246Y-63996200D01*
X164084754Y-63996200D01*
X163837113Y-64045459D01*
X163603840Y-64142084D01*
X163393900Y-64282361D01*
X163215361Y-64460900D01*
X163075084Y-64670840D01*
X162978459Y-64904113D01*
X162941000Y-65092432D01*
X162903541Y-64904113D01*
X162806916Y-64670840D01*
X162666639Y-64460900D01*
X162488100Y-64282361D01*
X162278160Y-64142084D01*
X162044887Y-64045459D01*
X161797246Y-63996200D01*
X161544754Y-63996200D01*
X161297113Y-64045459D01*
X161063840Y-64142084D01*
X160853900Y-64282361D01*
X160675361Y-64460900D01*
X160535084Y-64670840D01*
X160438459Y-64904113D01*
X160401000Y-65092432D01*
X160363541Y-64904113D01*
X160266916Y-64670840D01*
X160126639Y-64460900D01*
X159948100Y-64282361D01*
X159738160Y-64142084D01*
X159504887Y-64045459D01*
X159257246Y-63996200D01*
X159004754Y-63996200D01*
X158757113Y-64045459D01*
X158523840Y-64142084D01*
X158313900Y-64282361D01*
X158135361Y-64460900D01*
X157995084Y-64670840D01*
X157898459Y-64904113D01*
X157861000Y-65092432D01*
X157823541Y-64904113D01*
X157726916Y-64670840D01*
X157586639Y-64460900D01*
X157408100Y-64282361D01*
X157198160Y-64142084D01*
X156964887Y-64045459D01*
X156717246Y-63996200D01*
X156464754Y-63996200D01*
X156217113Y-64045459D01*
X155983840Y-64142084D01*
X155773900Y-64282361D01*
X155595361Y-64460900D01*
X155455084Y-64670840D01*
X155358459Y-64904113D01*
X155321000Y-65092432D01*
X155283541Y-64904113D01*
X155186916Y-64670840D01*
X155046639Y-64460900D01*
X154868100Y-64282361D01*
X154658160Y-64142084D01*
X154424887Y-64045459D01*
X154177246Y-63996200D01*
X153924754Y-63996200D01*
X153677113Y-64045459D01*
X153443840Y-64142084D01*
X153233900Y-64282361D01*
X153055361Y-64460900D01*
X152915084Y-64670840D01*
X152818459Y-64904113D01*
X152769200Y-65151754D01*
X152769200Y-65404246D01*
X152818459Y-65651887D01*
X152915084Y-65885160D01*
X153055361Y-66095100D01*
X153233900Y-66273639D01*
X153365201Y-66361371D01*
X153365200Y-70391432D01*
X152623933Y-71132700D01*
X149156657Y-71132700D01*
X150448109Y-69841248D01*
X150474280Y-69819770D01*
X150559981Y-69715343D01*
X150623662Y-69596204D01*
X150662877Y-69466930D01*
X150672800Y-69366179D01*
X150672800Y-69366176D01*
X150676118Y-69332490D01*
X150672800Y-69298804D01*
X150672800Y-66561889D01*
X150837000Y-66561889D01*
X150921648Y-66553552D01*
X151003042Y-66528861D01*
X151078056Y-66488766D01*
X151143806Y-66434806D01*
X151197766Y-66369056D01*
X151237861Y-66294042D01*
X151262552Y-66212648D01*
X151270889Y-66128000D01*
X151270889Y-64428000D01*
X151262552Y-64343352D01*
X151237861Y-64261958D01*
X151197766Y-64186944D01*
X151143806Y-64121194D01*
X151078056Y-64067234D01*
X151003042Y-64027139D01*
X150921648Y-64002448D01*
X150837000Y-63994111D01*
X149137000Y-63994111D01*
X149052352Y-64002448D01*
X148970958Y-64027139D01*
X148895944Y-64067234D01*
X148830194Y-64121194D01*
X148776234Y-64186944D01*
X148736139Y-64261958D01*
X148711448Y-64343352D01*
X148703111Y-64428000D01*
X148703111Y-65022607D01*
X148679541Y-64904113D01*
X148582916Y-64670840D01*
X148442639Y-64460900D01*
X148264100Y-64282361D01*
X148054160Y-64142084D01*
X147820887Y-64045459D01*
X147573246Y-63996200D01*
X147320754Y-63996200D01*
X147073113Y-64045459D01*
X146839840Y-64142084D01*
X146629900Y-64282361D01*
X146451361Y-64460900D01*
X146311084Y-64670840D01*
X146214459Y-64904113D01*
X146177000Y-65092432D01*
X146139541Y-64904113D01*
X146042916Y-64670840D01*
X145902639Y-64460900D01*
X145724100Y-64282361D01*
X145514160Y-64142084D01*
X145280887Y-64045459D01*
X145033246Y-63996200D01*
X144780754Y-63996200D01*
X144533113Y-64045459D01*
X144299840Y-64142084D01*
X144089900Y-64282361D01*
X143911361Y-64460900D01*
X143771084Y-64670840D01*
X143674459Y-64904113D01*
X143637000Y-65092432D01*
X143599541Y-64904113D01*
X143502916Y-64670840D01*
X143362639Y-64460900D01*
X143184100Y-64282361D01*
X142974160Y-64142084D01*
X142740887Y-64045459D01*
X142493246Y-63996200D01*
X142240754Y-63996200D01*
X141993113Y-64045459D01*
X141759840Y-64142084D01*
X141549900Y-64282361D01*
X141371361Y-64460900D01*
X141231084Y-64670840D01*
X141134459Y-64904113D01*
X141097000Y-65092432D01*
X141059541Y-64904113D01*
X140962916Y-64670840D01*
X140822639Y-64460900D01*
X140644100Y-64282361D01*
X140434160Y-64142084D01*
X140200887Y-64045459D01*
X139953246Y-63996200D01*
X139700754Y-63996200D01*
X139453113Y-64045459D01*
X139219840Y-64142084D01*
X139009900Y-64282361D01*
X138831361Y-64460900D01*
X138691084Y-64670840D01*
X138594459Y-64904113D01*
X138557000Y-65092432D01*
X138519541Y-64904113D01*
X138422916Y-64670840D01*
X138282639Y-64460900D01*
X138104100Y-64282361D01*
X137894160Y-64142084D01*
X137660887Y-64045459D01*
X137413246Y-63996200D01*
X137160754Y-63996200D01*
X136913113Y-64045459D01*
X136679840Y-64142084D01*
X136469900Y-64282361D01*
X136291361Y-64460900D01*
X136151084Y-64670840D01*
X136054459Y-64904113D01*
X136017000Y-65092432D01*
X135979541Y-64904113D01*
X135882916Y-64670840D01*
X135742639Y-64460900D01*
X135564100Y-64282361D01*
X135354160Y-64142084D01*
X135120887Y-64045459D01*
X134873246Y-63996200D01*
X134620754Y-63996200D01*
X134373113Y-64045459D01*
X134139840Y-64142084D01*
X133929900Y-64282361D01*
X133751361Y-64460900D01*
X133611084Y-64670840D01*
X133514459Y-64904113D01*
X133477000Y-65092432D01*
X133439541Y-64904113D01*
X133342916Y-64670840D01*
X133202639Y-64460900D01*
X133024100Y-64282361D01*
X132814160Y-64142084D01*
X132580887Y-64045459D01*
X132333246Y-63996200D01*
X132080754Y-63996200D01*
X131833113Y-64045459D01*
X131599840Y-64142084D01*
X131389900Y-64282361D01*
X131211361Y-64460900D01*
X131071084Y-64670840D01*
X130974459Y-64904113D01*
X130925200Y-65151754D01*
X130925200Y-65404246D01*
X130974459Y-65651887D01*
X131071084Y-65885160D01*
X131211361Y-66095100D01*
X131389900Y-66273639D01*
X131599840Y-66413916D01*
X131833113Y-66510541D01*
X132080754Y-66559800D01*
X132333246Y-66559800D01*
X132580887Y-66510541D01*
X132814160Y-66413916D01*
X133024100Y-66273639D01*
X133202639Y-66095100D01*
X133342916Y-65885160D01*
X133439541Y-65651887D01*
X133477000Y-65463568D01*
X133514459Y-65651887D01*
X133611084Y-65885160D01*
X133751361Y-66095100D01*
X133929900Y-66273639D01*
X134139840Y-66413916D01*
X134373113Y-66510541D01*
X134620754Y-66559800D01*
X134873246Y-66559800D01*
X135120887Y-66510541D01*
X135354160Y-66413916D01*
X135564100Y-66273639D01*
X135742639Y-66095100D01*
X135882916Y-65885160D01*
X135979541Y-65651887D01*
X136017000Y-65463568D01*
X136054459Y-65651887D01*
X136151084Y-65885160D01*
X136291361Y-66095100D01*
X136469900Y-66273639D01*
X136679840Y-66413916D01*
X136913113Y-66510541D01*
X137160754Y-66559800D01*
X137413246Y-66559800D01*
X137660887Y-66510541D01*
X137894160Y-66413916D01*
X138104100Y-66273639D01*
X138282639Y-66095100D01*
X138422916Y-65885160D01*
X138519541Y-65651887D01*
X138557000Y-65463568D01*
X138594459Y-65651887D01*
X138691084Y-65885160D01*
X138831361Y-66095100D01*
X139009900Y-66273639D01*
X139219840Y-66413916D01*
X139270201Y-66434776D01*
X139270200Y-69809866D01*
X138643867Y-70436200D01*
X137589043Y-70436200D01*
X137499742Y-70346899D01*
X137363505Y-70255868D01*
X137212127Y-70193165D01*
X137051425Y-70161200D01*
X136887575Y-70161200D01*
X136726873Y-70193165D01*
X136575495Y-70255868D01*
X136439258Y-70346899D01*
X136323399Y-70462758D01*
X136232368Y-70598995D01*
X136169665Y-70750373D01*
X136137700Y-70911075D01*
X136137700Y-71074925D01*
X136169665Y-71235627D01*
X136232368Y-71387005D01*
X136323399Y-71523242D01*
X136439258Y-71639101D01*
X136510772Y-71686885D01*
X136401399Y-71796258D01*
X136310368Y-71932495D01*
X136247665Y-72083873D01*
X136215700Y-72244575D01*
X136215700Y-72408425D01*
X136247665Y-72569127D01*
X136310368Y-72720505D01*
X136401399Y-72856742D01*
X136517258Y-72972601D01*
X136653495Y-73063632D01*
X136804873Y-73126335D01*
X136965575Y-73158300D01*
X137129425Y-73158300D01*
X137290127Y-73126335D01*
X137441505Y-73063632D01*
X137577742Y-72972601D01*
X137693601Y-72856742D01*
X137784632Y-72720505D01*
X137847335Y-72569127D01*
X137864407Y-72483301D01*
X140453655Y-72483301D01*
X140480999Y-72485994D01*
X140508343Y-72483301D01*
X140508350Y-72483301D01*
X140590151Y-72475244D01*
X140695108Y-72443406D01*
X140791837Y-72391703D01*
X140876621Y-72322123D01*
X140894062Y-72300871D01*
X142741376Y-70453558D01*
X142762622Y-70436122D01*
X142832202Y-70351338D01*
X142883905Y-70254609D01*
X142915743Y-70149652D01*
X142923800Y-70067851D01*
X142923800Y-70067845D01*
X142926493Y-70040501D01*
X142923800Y-70013157D01*
X142923800Y-66434776D01*
X142974160Y-66413916D01*
X143184100Y-66273639D01*
X143362639Y-66095100D01*
X143502916Y-65885160D01*
X143599541Y-65651887D01*
X143637000Y-65463568D01*
X143674459Y-65651887D01*
X143771084Y-65885160D01*
X143911361Y-66095100D01*
X144089900Y-66273639D01*
X144299840Y-66413916D01*
X144533113Y-66510541D01*
X144780754Y-66559800D01*
X145033246Y-66559800D01*
X145280887Y-66510541D01*
X145514160Y-66413916D01*
X145724100Y-66273639D01*
X145902639Y-66095100D01*
X146042916Y-65885160D01*
X146139541Y-65651887D01*
X146177000Y-65463568D01*
X146214459Y-65651887D01*
X146311084Y-65885160D01*
X146451361Y-66095100D01*
X146629900Y-66273639D01*
X146839840Y-66413916D01*
X147073113Y-66510541D01*
X147320754Y-66559800D01*
X147573246Y-66559800D01*
X147820887Y-66510541D01*
X148054160Y-66413916D01*
X148264100Y-66273639D01*
X148442639Y-66095100D01*
X148582916Y-65885160D01*
X148679541Y-65651887D01*
X148703111Y-65533393D01*
X148703111Y-66128000D01*
X148711448Y-66212648D01*
X148736139Y-66294042D01*
X148776234Y-66369056D01*
X148830194Y-66434806D01*
X148895944Y-66488766D01*
X148970958Y-66528861D01*
X149052352Y-66553552D01*
X149137000Y-66561889D01*
X149301200Y-66561889D01*
X149301201Y-69048422D01*
X147924933Y-70424690D01*
X143299188Y-70424690D01*
X143265509Y-70421373D01*
X143231830Y-70424690D01*
X143231821Y-70424690D01*
X143131070Y-70434613D01*
X143001796Y-70473828D01*
X142882657Y-70537509D01*
X142882655Y-70537510D01*
X142882656Y-70537510D01*
X142806519Y-70599994D01*
X142778230Y-70623210D01*
X142756757Y-70649375D01*
X140064387Y-73341746D01*
X140038220Y-73363221D01*
X140032719Y-73369924D01*
X131971962Y-73369924D01*
X131938276Y-73366606D01*
X131904590Y-73369924D01*
X131904587Y-73369924D01*
X131803836Y-73379847D01*
X131674562Y-73419062D01*
X131555423Y-73482743D01*
X131450996Y-73568444D01*
X131429518Y-73594615D01*
X130285387Y-74738746D01*
X130259220Y-74760221D01*
X130173519Y-74864648D01*
X130109838Y-74983787D01*
X130070623Y-75113061D01*
X130060700Y-75213812D01*
X130060700Y-75213821D01*
X130057383Y-75247500D01*
X130060700Y-75281179D01*
X130060701Y-101700670D01*
X130009368Y-101777495D01*
X129946665Y-101928873D01*
X129914700Y-102089575D01*
X108660800Y-102089575D01*
X108660800Y-94957000D01*
X112952611Y-94957000D01*
X112952611Y-96657000D01*
X112960948Y-96741648D01*
X112985639Y-96823042D01*
X113025734Y-96898056D01*
X113079694Y-96963806D01*
X113145444Y-97017766D01*
X113220458Y-97057861D01*
X113301852Y-97082552D01*
X113386500Y-97090889D01*
X115086500Y-97090889D01*
X115171148Y-97082552D01*
X115252542Y-97057861D01*
X115327556Y-97017766D01*
X115393306Y-96963806D01*
X115447266Y-96898056D01*
X115487361Y-96823042D01*
X115512052Y-96741648D01*
X115520389Y-96657000D01*
X115520389Y-95680754D01*
X118034700Y-95680754D01*
X118034700Y-95933246D01*
X118083959Y-96180887D01*
X118180584Y-96414160D01*
X118320861Y-96624100D01*
X118499400Y-96802639D01*
X118709340Y-96942916D01*
X118942613Y-97039541D01*
X119190254Y-97088800D01*
X119442746Y-97088800D01*
X119690387Y-97039541D01*
X119923660Y-96942916D01*
X120133600Y-96802639D01*
X120312139Y-96624100D01*
X120452416Y-96414160D01*
X120549041Y-96180887D01*
X120598300Y-95933246D01*
X120598300Y-95680754D01*
X120549041Y-95433113D01*
X120452416Y-95199840D01*
X120312139Y-94989900D01*
X120133600Y-94811361D01*
X119923660Y-94671084D01*
X119690387Y-94574459D01*
X119442746Y-94525200D01*
X119190254Y-94525200D01*
X118942613Y-94574459D01*
X118709340Y-94671084D01*
X118499400Y-94811361D01*
X118320861Y-94989900D01*
X118180584Y-95199840D01*
X118083959Y-95433113D01*
X118034700Y-95680754D01*
X115520389Y-95680754D01*
X115520389Y-94957000D01*
X115512052Y-94872352D01*
X115487361Y-94790958D01*
X115447266Y-94715944D01*
X115393306Y-94650194D01*
X115327556Y-94596234D01*
X115252542Y-94556139D01*
X115171148Y-94531448D01*
X115086500Y-94523111D01*
X113386500Y-94523111D01*
X113301852Y-94531448D01*
X113220458Y-94556139D01*
X113145444Y-94596234D01*
X113079694Y-94650194D01*
X113025734Y-94715944D01*
X112985639Y-94790958D01*
X112960948Y-94872352D01*
X112952611Y-94957000D01*
X108660800Y-94957000D01*
X108660800Y-63067800D01*
X172657788Y-63067800D01*
X174041201Y-64451214D01*
G37*
X174041201Y-64451214D02*
X174041200Y-70544231D01*
X174012558Y-70475082D01*
X173790202Y-70142303D01*
X173507197Y-69859298D01*
X173174418Y-69636942D01*
X172804654Y-69483781D01*
X172412115Y-69405700D01*
X172011885Y-69405700D01*
X171619346Y-69483781D01*
X171249582Y-69636942D01*
X170916803Y-69859298D01*
X170633798Y-70142303D01*
X170411442Y-70475082D01*
X170258281Y-70844846D01*
X170180200Y-71237385D01*
X170180200Y-71637615D01*
X170258281Y-72030154D01*
X170411442Y-72399918D01*
X170633798Y-72732697D01*
X170916803Y-73015702D01*
X171249582Y-73238058D01*
X171619346Y-73391219D01*
X172011885Y-73469300D01*
X172412115Y-73469300D01*
X172804654Y-73391219D01*
X173174418Y-73238058D01*
X173507197Y-73015702D01*
X173790202Y-72732697D01*
X174012558Y-72399918D01*
X174041200Y-72330769D01*
X174041200Y-75669570D01*
X174038991Y-75692000D01*
X174041200Y-75714430D01*
X174041200Y-75714437D01*
X174047810Y-75781547D01*
X174073930Y-75867655D01*
X174116347Y-75947011D01*
X174173431Y-76016569D01*
X174190863Y-76030875D01*
X176581201Y-78421214D01*
X176581200Y-110808787D01*
X174190859Y-113199129D01*
X174173432Y-113213431D01*
X174159130Y-113230858D01*
X174159128Y-113230860D01*
X174116348Y-113282988D01*
X174073930Y-113362345D01*
X174047810Y-113448452D01*
X174038991Y-113538000D01*
X174041201Y-113560440D01*
X174041200Y-115748200D01*
X108660800Y-115748200D01*
X108660800Y-113411754D01*
X134989200Y-113411754D01*
X134989200Y-113664246D01*
X135038459Y-113911887D01*
X135135084Y-114145160D01*
X135275361Y-114355100D01*
X135453900Y-114533639D01*
X135663840Y-114673916D01*
X135897113Y-114770541D01*
X136144754Y-114819800D01*
X136397246Y-114819800D01*
X136644887Y-114770541D01*
X136878160Y-114673916D01*
X137088100Y-114533639D01*
X137266639Y-114355100D01*
X137406916Y-114145160D01*
X137503541Y-113911887D01*
X137541000Y-113723568D01*
X137578459Y-113911887D01*
X137675084Y-114145160D01*
X137815361Y-114355100D01*
X137993900Y-114533639D01*
X138203840Y-114673916D01*
X138437113Y-114770541D01*
X138684754Y-114819800D01*
X138937246Y-114819800D01*
X139184887Y-114770541D01*
X139418160Y-114673916D01*
X139628100Y-114533639D01*
X139806639Y-114355100D01*
X139946916Y-114145160D01*
X140043541Y-113911887D01*
X140081000Y-113723568D01*
X140118459Y-113911887D01*
X140215084Y-114145160D01*
X140355361Y-114355100D01*
X140533900Y-114533639D01*
X140743840Y-114673916D01*
X140977113Y-114770541D01*
X141224754Y-114819800D01*
X141477246Y-114819800D01*
X141724887Y-114770541D01*
X141958160Y-114673916D01*
X142168100Y-114533639D01*
X142346639Y-114355100D01*
X142486916Y-114145160D01*
X142583541Y-113911887D01*
X142621000Y-113723568D01*
X142658459Y-113911887D01*
X142755084Y-114145160D01*
X142895361Y-114355100D01*
X143073900Y-114533639D01*
X143283840Y-114673916D01*
X143517113Y-114770541D01*
X143764754Y-114819800D01*
X144017246Y-114819800D01*
X144264887Y-114770541D01*
X144498160Y-114673916D01*
X144708100Y-114533639D01*
X144886639Y-114355100D01*
X145026916Y-114145160D01*
X145123541Y-113911887D01*
X145161000Y-113723568D01*
X145198459Y-113911887D01*
X145295084Y-114145160D01*
X145435361Y-114355100D01*
X145613900Y-114533639D01*
X145823840Y-114673916D01*
X146057113Y-114770541D01*
X146304754Y-114819800D01*
X146557246Y-114819800D01*
X146804887Y-114770541D01*
X147038160Y-114673916D01*
X147248100Y-114533639D01*
X147426639Y-114355100D01*
X147566916Y-114145160D01*
X147663541Y-113911887D01*
X147712800Y-113664246D01*
X147712800Y-113411754D01*
X147663541Y-113164113D01*
X147566916Y-112930840D01*
X147426639Y-112720900D01*
X147393739Y-112688000D01*
X152767111Y-112688000D01*
X152767111Y-114388000D01*
X152775448Y-114472648D01*
X152800139Y-114554042D01*
X152840234Y-114629056D01*
X152894194Y-114694806D01*
X152959944Y-114748766D01*
X153034958Y-114788861D01*
X153116352Y-114813552D01*
X153201000Y-114821889D01*
X154901000Y-114821889D01*
X154985648Y-114813552D01*
X155067042Y-114788861D01*
X155142056Y-114748766D01*
X155207806Y-114694806D01*
X155261766Y-114629056D01*
X155301861Y-114554042D01*
X155326552Y-114472648D01*
X155334889Y-114388000D01*
X155334889Y-112688000D01*
X157847111Y-112688000D01*
X157847111Y-114388000D01*
X157855448Y-114472648D01*
X157880139Y-114554042D01*
X157920234Y-114629056D01*
X157974194Y-114694806D01*
X158039944Y-114748766D01*
X158114958Y-114788861D01*
X158196352Y-114813552D01*
X158281000Y-114821889D01*
X159981000Y-114821889D01*
X160065648Y-114813552D01*
X160147042Y-114788861D01*
X160222056Y-114748766D01*
X160287806Y-114694806D01*
X160341766Y-114629056D01*
X160381861Y-114554042D01*
X160406552Y-114472648D01*
X160414889Y-114388000D01*
X160414889Y-113793393D01*
X160438459Y-113911887D01*
X160535084Y-114145160D01*
X160675361Y-114355100D01*
X160853900Y-114533639D01*
X161063840Y-114673916D01*
X161297113Y-114770541D01*
X161544754Y-114819800D01*
X161797246Y-114819800D01*
X162044887Y-114770541D01*
X162278160Y-114673916D01*
X162488100Y-114533639D01*
X162666639Y-114355100D01*
X162806916Y-114145160D01*
X162903541Y-113911887D01*
X162941000Y-113723568D01*
X162978459Y-113911887D01*
X163075084Y-114145160D01*
X163215361Y-114355100D01*
X163393900Y-114533639D01*
X163603840Y-114673916D01*
X163837113Y-114770541D01*
X164084754Y-114819800D01*
X164337246Y-114819800D01*
X164584887Y-114770541D01*
X164818160Y-114673916D01*
X165028100Y-114533639D01*
X165206639Y-114355100D01*
X165346916Y-114145160D01*
X165443541Y-113911887D01*
X165481000Y-113723568D01*
X165518459Y-113911887D01*
X165615084Y-114145160D01*
X165755361Y-114355100D01*
X165933900Y-114533639D01*
X166143840Y-114673916D01*
X166377113Y-114770541D01*
X166624754Y-114819800D01*
X166877246Y-114819800D01*
X167124887Y-114770541D01*
X167358160Y-114673916D01*
X167568100Y-114533639D01*
X167746639Y-114355100D01*
X167886916Y-114145160D01*
X167983541Y-113911887D01*
X168021000Y-113723568D01*
X168058459Y-113911887D01*
X168155084Y-114145160D01*
X168295361Y-114355100D01*
X168473900Y-114533639D01*
X168683840Y-114673916D01*
X168917113Y-114770541D01*
X169164754Y-114819800D01*
X169417246Y-114819800D01*
X169664887Y-114770541D01*
X169898160Y-114673916D01*
X170108100Y-114533639D01*
X170286639Y-114355100D01*
X170426916Y-114145160D01*
X170523541Y-113911887D01*
X170561000Y-113723568D01*
X170598459Y-113911887D01*
X170695084Y-114145160D01*
X170835361Y-114355100D01*
X171013900Y-114533639D01*
X171223840Y-114673916D01*
X171457113Y-114770541D01*
X171704754Y-114819800D01*
X171957246Y-114819800D01*
X172204887Y-114770541D01*
X172438160Y-114673916D01*
X172648100Y-114533639D01*
X172826639Y-114355100D01*
X172966916Y-114145160D01*
X173063541Y-113911887D01*
X173112800Y-113664246D01*
X173112800Y-113411754D01*
X173063541Y-113164113D01*
X172966916Y-112930840D01*
X172826639Y-112720900D01*
X172648100Y-112542361D01*
X172438160Y-112402084D01*
X172204887Y-112305459D01*
X171957246Y-112256200D01*
X171704754Y-112256200D01*
X171457113Y-112305459D01*
X171223840Y-112402084D01*
X171013900Y-112542361D01*
X170835361Y-112720900D01*
X170695084Y-112930840D01*
X170598459Y-113164113D01*
X170561000Y-113352432D01*
X170523541Y-113164113D01*
X170426916Y-112930840D01*
X170286639Y-112720900D01*
X170108100Y-112542361D01*
X169898160Y-112402084D01*
X169664887Y-112305459D01*
X169417246Y-112256200D01*
X169164754Y-112256200D01*
X168917113Y-112305459D01*
X168683840Y-112402084D01*
X168473900Y-112542361D01*
X168295361Y-112720900D01*
X168155084Y-112930840D01*
X168058459Y-113164113D01*
X168021000Y-113352432D01*
X167983541Y-113164113D01*
X167886916Y-112930840D01*
X167746639Y-112720900D01*
X167568100Y-112542361D01*
X167358160Y-112402084D01*
X167124887Y-112305459D01*
X166877246Y-112256200D01*
X166624754Y-112256200D01*
X166377113Y-112305459D01*
X166143840Y-112402084D01*
X165933900Y-112542361D01*
X165755361Y-112720900D01*
X165615084Y-112930840D01*
X165518459Y-113164113D01*
X165481000Y-113352432D01*
X165443541Y-113164113D01*
X165346916Y-112930840D01*
X165206639Y-112720900D01*
X165028100Y-112542361D01*
X164818160Y-112402084D01*
X164584887Y-112305459D01*
X164337246Y-112256200D01*
X164084754Y-112256200D01*
X163837113Y-112305459D01*
X163603840Y-112402084D01*
X163393900Y-112542361D01*
X163215361Y-112720900D01*
X163075084Y-112930840D01*
X162978459Y-113164113D01*
X162941000Y-113352432D01*
X162903541Y-113164113D01*
X162806916Y-112930840D01*
X162666639Y-112720900D01*
X162488100Y-112542361D01*
X162278160Y-112402084D01*
X162044887Y-112305459D01*
X161797246Y-112256200D01*
X161544754Y-112256200D01*
X161297113Y-112305459D01*
X161063840Y-112402084D01*
X160853900Y-112542361D01*
X160675361Y-112720900D01*
X160535084Y-112930840D01*
X160438459Y-113164113D01*
X160414889Y-113282607D01*
X160414889Y-112688000D01*
X160406552Y-112603352D01*
X160381861Y-112521958D01*
X160341766Y-112446944D01*
X160287806Y-112381194D01*
X160222056Y-112327234D01*
X160147042Y-112287139D01*
X160065648Y-112262448D01*
X159981000Y-112254111D01*
X158281000Y-112254111D01*
X158196352Y-112262448D01*
X158114958Y-112287139D01*
X158039944Y-112327234D01*
X157974194Y-112381194D01*
X157920234Y-112446944D01*
X157880139Y-112521958D01*
X157855448Y-112603352D01*
X157847111Y-112688000D01*
X155334889Y-112688000D01*
X155326552Y-112603352D01*
X155301861Y-112521958D01*
X155261766Y-112446944D01*
X155207806Y-112381194D01*
X155142056Y-112327234D01*
X155067042Y-112287139D01*
X154985648Y-112262448D01*
X154901000Y-112254111D01*
X153201000Y-112254111D01*
X153116352Y-112262448D01*
X153034958Y-112287139D01*
X152959944Y-112327234D01*
X152894194Y-112381194D01*
X152840234Y-112446944D01*
X152800139Y-112521958D01*
X152775448Y-112603352D01*
X152767111Y-112688000D01*
X147393739Y-112688000D01*
X147248100Y-112542361D01*
X147038160Y-112402084D01*
X146987800Y-112381224D01*
X146987800Y-110892525D01*
X146990493Y-110865184D01*
X146987800Y-110837843D01*
X146987800Y-110837834D01*
X146979743Y-110756033D01*
X146947905Y-110651076D01*
X146896202Y-110554347D01*
X146826622Y-110469563D01*
X146805376Y-110452127D01*
X143246014Y-106892766D01*
X143294632Y-106820005D01*
X143357335Y-106668627D01*
X143389300Y-106507925D01*
X143389300Y-106344075D01*
X143357335Y-106183373D01*
X143294632Y-106031995D01*
X143203601Y-105895758D01*
X143087742Y-105779899D01*
X142951505Y-105688868D01*
X142800127Y-105626165D01*
X142639425Y-105594200D01*
X142475575Y-105594200D01*
X142314873Y-105626165D01*
X142163495Y-105688868D01*
X142027258Y-105779899D01*
X141911399Y-105895758D01*
X141820368Y-106031995D01*
X141757665Y-106183373D01*
X141725700Y-106344075D01*
X141725700Y-106507925D01*
X141757665Y-106668627D01*
X141820368Y-106820005D01*
X141911399Y-106956242D01*
X142003596Y-107048439D01*
X142008757Y-107100837D01*
X142040596Y-107205794D01*
X142092299Y-107302523D01*
X142161879Y-107387307D01*
X142183125Y-107404743D01*
X145874200Y-111095819D01*
X145874201Y-112381224D01*
X145823840Y-112402084D01*
X145613900Y-112542361D01*
X145435361Y-112720900D01*
X145295084Y-112930840D01*
X145198459Y-113164113D01*
X145161000Y-113352432D01*
X145123541Y-113164113D01*
X145026916Y-112930840D01*
X144886639Y-112720900D01*
X144708100Y-112542361D01*
X144498160Y-112402084D01*
X144264887Y-112305459D01*
X144017246Y-112256200D01*
X143764754Y-112256200D01*
X143517113Y-112305459D01*
X143283840Y-112402084D01*
X143073900Y-112542361D01*
X142895361Y-112720900D01*
X142755084Y-112930840D01*
X142658459Y-113164113D01*
X142621000Y-113352432D01*
X142583541Y-113164113D01*
X142486916Y-112930840D01*
X142346639Y-112720900D01*
X142168100Y-112542361D01*
X141958160Y-112402084D01*
X141724887Y-112305459D01*
X141477246Y-112256200D01*
X141224754Y-112256200D01*
X140977113Y-112305459D01*
X140743840Y-112402084D01*
X140533900Y-112542361D01*
X140355361Y-112720900D01*
X140215084Y-112930840D01*
X140118459Y-113164113D01*
X140081000Y-113352432D01*
X140043541Y-113164113D01*
X139946916Y-112930840D01*
X139806639Y-112720900D01*
X139628100Y-112542361D01*
X139418160Y-112402084D01*
X139184887Y-112305459D01*
X138937246Y-112256200D01*
X138684754Y-112256200D01*
X138437113Y-112305459D01*
X138203840Y-112402084D01*
X137993900Y-112542361D01*
X137815361Y-112720900D01*
X137675084Y-112930840D01*
X137578459Y-113164113D01*
X137541000Y-113352432D01*
X137503541Y-113164113D01*
X137406916Y-112930840D01*
X137266639Y-112720900D01*
X137088100Y-112542361D01*
X136878160Y-112402084D01*
X136644887Y-112305459D01*
X136397246Y-112256200D01*
X136144754Y-112256200D01*
X135897113Y-112305459D01*
X135663840Y-112402084D01*
X135453900Y-112542361D01*
X135275361Y-112720900D01*
X135135084Y-112930840D01*
X135038459Y-113164113D01*
X134989200Y-113411754D01*
X108660800Y-113411754D01*
X108660800Y-103417000D01*
X112952611Y-103417000D01*
X112952611Y-105117000D01*
X112960948Y-105201648D01*
X112985639Y-105283042D01*
X113025734Y-105358056D01*
X113079694Y-105423806D01*
X113145444Y-105477766D01*
X113220458Y-105517861D01*
X113301852Y-105542552D01*
X113386500Y-105550889D01*
X115086500Y-105550889D01*
X115171148Y-105542552D01*
X115252542Y-105517861D01*
X115327556Y-105477766D01*
X115393306Y-105423806D01*
X115447266Y-105358056D01*
X115487361Y-105283042D01*
X115512052Y-105201648D01*
X115520389Y-105117000D01*
X115520389Y-104140754D01*
X118034700Y-104140754D01*
X118034700Y-104393246D01*
X118083959Y-104640887D01*
X118180584Y-104874160D01*
X118320861Y-105084100D01*
X118499400Y-105262639D01*
X118709340Y-105402916D01*
X118942613Y-105499541D01*
X119190254Y-105548800D01*
X119442746Y-105548800D01*
X119690387Y-105499541D01*
X119923660Y-105402916D01*
X120133600Y-105262639D01*
X120312139Y-105084100D01*
X120399871Y-104952800D01*
X133443321Y-104952800D01*
X133477000Y-104956117D01*
X133510679Y-104952800D01*
X133510689Y-104952800D01*
X133611440Y-104942877D01*
X133740714Y-104903662D01*
X133859853Y-104839981D01*
X133964280Y-104754280D01*
X133985758Y-104728109D01*
X136033614Y-102680253D01*
X136059779Y-102658780D01*
X136145481Y-102554353D01*
X136209162Y-102435214D01*
X136248377Y-102305940D01*
X136258300Y-102205189D01*
X136258300Y-102205188D01*
X136261618Y-102171500D01*
X136258300Y-102137811D01*
X136258300Y-99530828D01*
X136309632Y-99454005D01*
X136372335Y-99302627D01*
X136404300Y-99141925D01*
X136404300Y-98978075D01*
X136372335Y-98817373D01*
X136309632Y-98665995D01*
X136218601Y-98529758D01*
X136102742Y-98413899D01*
X135966505Y-98322868D01*
X135815127Y-98260165D01*
X135654425Y-98228200D01*
X135490575Y-98228200D01*
X135329873Y-98260165D01*
X135178495Y-98322868D01*
X135042258Y-98413899D01*
X134926399Y-98529758D01*
X134835368Y-98665995D01*
X134772665Y-98817373D01*
X134740700Y-98978075D01*
X134740700Y-99141925D01*
X134772665Y-99302627D01*
X134835368Y-99454005D01*
X134886701Y-99530830D01*
X134886700Y-101887433D01*
X133192933Y-103581200D01*
X120399871Y-103581200D01*
X120312139Y-103449900D01*
X120133600Y-103271361D01*
X119923660Y-103131084D01*
X119690387Y-103034459D01*
X119442746Y-102985200D01*
X119190254Y-102985200D01*
X118942613Y-103034459D01*
X118709340Y-103131084D01*
X118499400Y-103271361D01*
X118320861Y-103449900D01*
X118180584Y-103659840D01*
X118083959Y-103893113D01*
X118034700Y-104140754D01*
X115520389Y-104140754D01*
X115520389Y-103417000D01*
X115512052Y-103332352D01*
X115487361Y-103250958D01*
X115447266Y-103175944D01*
X115393306Y-103110194D01*
X115327556Y-103056234D01*
X115252542Y-103016139D01*
X115171148Y-102991448D01*
X115086500Y-102983111D01*
X113386500Y-102983111D01*
X113301852Y-102991448D01*
X113220458Y-103016139D01*
X113145444Y-103056234D01*
X113079694Y-103110194D01*
X113025734Y-103175944D01*
X112985639Y-103250958D01*
X112960948Y-103332352D01*
X112952611Y-103417000D01*
X108660800Y-103417000D01*
X108660800Y-102089575D01*
X129914700Y-102089575D01*
X129914700Y-102253425D01*
X129946665Y-102414127D01*
X130009368Y-102565505D01*
X130100399Y-102701742D01*
X130216258Y-102817601D01*
X130352495Y-102908632D01*
X130503873Y-102971335D01*
X130664575Y-103003300D01*
X130828425Y-103003300D01*
X130989127Y-102971335D01*
X131140505Y-102908632D01*
X131276742Y-102817601D01*
X131392601Y-102701742D01*
X131483632Y-102565505D01*
X131546335Y-102414127D01*
X131578300Y-102253425D01*
X131578300Y-102089575D01*
X131546335Y-101928873D01*
X131483632Y-101777495D01*
X131432300Y-101700672D01*
X131432300Y-96940000D01*
X138619311Y-96940000D01*
X138619311Y-98640000D01*
X138627648Y-98724648D01*
X138652339Y-98806042D01*
X138692434Y-98881056D01*
X138746394Y-98946806D01*
X138812144Y-99000766D01*
X138887158Y-99040861D01*
X138968552Y-99065552D01*
X139053200Y-99073889D01*
X139647807Y-99073889D01*
X139529313Y-99097459D01*
X139296040Y-99194084D01*
X139086100Y-99334361D01*
X138907561Y-99512900D01*
X138767284Y-99722840D01*
X138670659Y-99956113D01*
X138621400Y-100203754D01*
X138621400Y-100456246D01*
X138670659Y-100703887D01*
X138767284Y-100937160D01*
X138907561Y-101147100D01*
X139086100Y-101325639D01*
X139296040Y-101465916D01*
X139529313Y-101562541D01*
X139717632Y-101600000D01*
X139529313Y-101637459D01*
X139296040Y-101734084D01*
X139086100Y-101874361D01*
X138907561Y-102052900D01*
X138767284Y-102262840D01*
X138670659Y-102496113D01*
X138621400Y-102743754D01*
X138621400Y-102996246D01*
X138670659Y-103243887D01*
X138767284Y-103477160D01*
X138907561Y-103687100D01*
X139086100Y-103865639D01*
X139296040Y-104005916D01*
X139529313Y-104102541D01*
X139776954Y-104151800D01*
X140029446Y-104151800D01*
X140277087Y-104102541D01*
X140510360Y-104005916D01*
X140720300Y-103865639D01*
X140898839Y-103687100D01*
X140986571Y-103555800D01*
X147279829Y-103555800D01*
X147367561Y-103687100D01*
X147546100Y-103865639D01*
X147756040Y-104005916D01*
X147989313Y-104102541D01*
X148236954Y-104151800D01*
X148489446Y-104151800D01*
X148737087Y-104102541D01*
X148970360Y-104005916D01*
X149180300Y-103865639D01*
X149358839Y-103687100D01*
X149499116Y-103477160D01*
X149595741Y-103243887D01*
X149645000Y-102996246D01*
X149645000Y-102743754D01*
X149595741Y-102496113D01*
X149499116Y-102262840D01*
X149358839Y-102052900D01*
X149180300Y-101874361D01*
X148970360Y-101734084D01*
X148737087Y-101637459D01*
X148548768Y-101600000D01*
X148737087Y-101562541D01*
X148970360Y-101465916D01*
X149180300Y-101325639D01*
X149358839Y-101147100D01*
X149499116Y-100937160D01*
X149595741Y-100703887D01*
X149645000Y-100456246D01*
X149645000Y-100203754D01*
X149595741Y-99956113D01*
X149499116Y-99722840D01*
X149358839Y-99512900D01*
X149180300Y-99334361D01*
X148970360Y-99194084D01*
X148737087Y-99097459D01*
X148618593Y-99073889D01*
X149213200Y-99073889D01*
X149297848Y-99065552D01*
X149379242Y-99040861D01*
X149454256Y-99000766D01*
X149520006Y-98946806D01*
X149573966Y-98881056D01*
X149614061Y-98806042D01*
X149638752Y-98724648D01*
X149647089Y-98640000D01*
X149647089Y-96940000D01*
X154926111Y-96940000D01*
X154926111Y-98640000D01*
X154934448Y-98724648D01*
X154959139Y-98806042D01*
X154999234Y-98881056D01*
X155053194Y-98946806D01*
X155118944Y-99000766D01*
X155193958Y-99040861D01*
X155275352Y-99065552D01*
X155360000Y-99073889D01*
X155954607Y-99073889D01*
X155836113Y-99097459D01*
X155602840Y-99194084D01*
X155392900Y-99334361D01*
X155214361Y-99512900D01*
X155074084Y-99722840D01*
X154977459Y-99956113D01*
X154928200Y-100203754D01*
X154928200Y-100456246D01*
X154977459Y-100703887D01*
X155074084Y-100937160D01*
X155214361Y-101147100D01*
X155392900Y-101325639D01*
X155602840Y-101465916D01*
X155836113Y-101562541D01*
X156024432Y-101600000D01*
X155836113Y-101637459D01*
X155602840Y-101734084D01*
X155392900Y-101874361D01*
X155214361Y-102052900D01*
X155074084Y-102262840D01*
X154977459Y-102496113D01*
X154928200Y-102743754D01*
X154928200Y-102996246D01*
X154977459Y-103243887D01*
X155074084Y-103477160D01*
X155214361Y-103687100D01*
X155392900Y-103865639D01*
X155602840Y-104005916D01*
X155836113Y-104102541D01*
X156083754Y-104151800D01*
X156336246Y-104151800D01*
X156583887Y-104102541D01*
X156817160Y-104005916D01*
X157027100Y-103865639D01*
X157205639Y-103687100D01*
X157345916Y-103477160D01*
X157442541Y-103243887D01*
X157491800Y-102996246D01*
X157491800Y-102743754D01*
X157442541Y-102496113D01*
X157345916Y-102262840D01*
X157205639Y-102052900D01*
X157027100Y-101874361D01*
X156817160Y-101734084D01*
X156583887Y-101637459D01*
X156395568Y-101600000D01*
X156583887Y-101562541D01*
X156817160Y-101465916D01*
X157027100Y-101325639D01*
X157205639Y-101147100D01*
X157345916Y-100937160D01*
X157442541Y-100703887D01*
X157491800Y-100456246D01*
X157491800Y-100203754D01*
X157442541Y-99956113D01*
X157345916Y-99722840D01*
X157205639Y-99512900D01*
X157027100Y-99334361D01*
X156817160Y-99194084D01*
X156583887Y-99097459D01*
X156465393Y-99073889D01*
X157060000Y-99073889D01*
X157144648Y-99065552D01*
X157226042Y-99040861D01*
X157236071Y-99035500D01*
X164641611Y-99035500D01*
X164641611Y-100735500D01*
X164649948Y-100820148D01*
X164674639Y-100901542D01*
X164714734Y-100976556D01*
X164768694Y-101042306D01*
X164834444Y-101096266D01*
X164909458Y-101136361D01*
X164990852Y-101161052D01*
X165075500Y-101169389D01*
X165670107Y-101169389D01*
X165551613Y-101192959D01*
X165318340Y-101289584D01*
X165108400Y-101429861D01*
X164929861Y-101608400D01*
X164789584Y-101818340D01*
X164692959Y-102051613D01*
X164643700Y-102299254D01*
X164643700Y-102551746D01*
X164692959Y-102799387D01*
X164789584Y-103032660D01*
X164929861Y-103242600D01*
X165108400Y-103421139D01*
X165318340Y-103561416D01*
X165551613Y-103658041D01*
X165739932Y-103695500D01*
X165551613Y-103732959D01*
X165318340Y-103829584D01*
X165108400Y-103969861D01*
X164929861Y-104148400D01*
X164789584Y-104358340D01*
X164692959Y-104591613D01*
X164643700Y-104839254D01*
X164643700Y-105091746D01*
X164692959Y-105339387D01*
X164789584Y-105572660D01*
X164929861Y-105782600D01*
X165108400Y-105961139D01*
X165318340Y-106101416D01*
X165551613Y-106198041D01*
X165799254Y-106247300D01*
X166051746Y-106247300D01*
X166299387Y-106198041D01*
X166532660Y-106101416D01*
X166742600Y-105961139D01*
X166921139Y-105782600D01*
X167061416Y-105572660D01*
X167158041Y-105339387D01*
X167207300Y-105091746D01*
X167207300Y-104839254D01*
X167158041Y-104591613D01*
X167061416Y-104358340D01*
X166921139Y-104148400D01*
X166742600Y-103969861D01*
X166532660Y-103829584D01*
X166299387Y-103732959D01*
X166111068Y-103695500D01*
X166299387Y-103658041D01*
X166532660Y-103561416D01*
X166742600Y-103421139D01*
X166921139Y-103242600D01*
X167061416Y-103032660D01*
X167158041Y-102799387D01*
X167207300Y-102551746D01*
X167207300Y-102299254D01*
X167158041Y-102051613D01*
X167061416Y-101818340D01*
X166921139Y-101608400D01*
X166742600Y-101429861D01*
X166532660Y-101289584D01*
X166299387Y-101192959D01*
X166180893Y-101169389D01*
X166775500Y-101169389D01*
X166860148Y-101161052D01*
X166941542Y-101136361D01*
X167016556Y-101096266D01*
X167082306Y-101042306D01*
X167136266Y-100976556D01*
X167176361Y-100901542D01*
X167201052Y-100820148D01*
X167209389Y-100735500D01*
X167209389Y-99035500D01*
X171831611Y-99035500D01*
X171831611Y-100735500D01*
X171839948Y-100820148D01*
X171864639Y-100901542D01*
X171904734Y-100976556D01*
X171958694Y-101042306D01*
X172024444Y-101096266D01*
X172099458Y-101136361D01*
X172180852Y-101161052D01*
X172265500Y-101169389D01*
X172860107Y-101169389D01*
X172741613Y-101192959D01*
X172508340Y-101289584D01*
X172298400Y-101429861D01*
X172119861Y-101608400D01*
X171979584Y-101818340D01*
X171882959Y-102051613D01*
X171833700Y-102299254D01*
X171833700Y-102551746D01*
X171882959Y-102799387D01*
X171979584Y-103032660D01*
X172119861Y-103242600D01*
X172298400Y-103421139D01*
X172508340Y-103561416D01*
X172741613Y-103658041D01*
X172929932Y-103695500D01*
X172741613Y-103732959D01*
X172508340Y-103829584D01*
X172298400Y-103969861D01*
X172119861Y-104148400D01*
X171979584Y-104358340D01*
X171882959Y-104591613D01*
X171833700Y-104839254D01*
X171833700Y-105091746D01*
X171882959Y-105339387D01*
X171979584Y-105572660D01*
X172119861Y-105782600D01*
X172298400Y-105961139D01*
X172508340Y-106101416D01*
X172741613Y-106198041D01*
X172989254Y-106247300D01*
X173241746Y-106247300D01*
X173489387Y-106198041D01*
X173722660Y-106101416D01*
X173932600Y-105961139D01*
X174111139Y-105782600D01*
X174251416Y-105572660D01*
X174348041Y-105339387D01*
X174397300Y-105091746D01*
X174397300Y-104839254D01*
X174348041Y-104591613D01*
X174251416Y-104358340D01*
X174111139Y-104148400D01*
X173932600Y-103969861D01*
X173722660Y-103829584D01*
X173489387Y-103732959D01*
X173301068Y-103695500D01*
X173489387Y-103658041D01*
X173722660Y-103561416D01*
X173932600Y-103421139D01*
X174111139Y-103242600D01*
X174251416Y-103032660D01*
X174348041Y-102799387D01*
X174397300Y-102551746D01*
X174397300Y-102299254D01*
X174348041Y-102051613D01*
X174251416Y-101818340D01*
X174111139Y-101608400D01*
X173932600Y-101429861D01*
X173722660Y-101289584D01*
X173489387Y-101192959D01*
X173370893Y-101169389D01*
X173965500Y-101169389D01*
X174050148Y-101161052D01*
X174131542Y-101136361D01*
X174206556Y-101096266D01*
X174272306Y-101042306D01*
X174326266Y-100976556D01*
X174366361Y-100901542D01*
X174391052Y-100820148D01*
X174399389Y-100735500D01*
X174399389Y-99035500D01*
X174391052Y-98950852D01*
X174366361Y-98869458D01*
X174326266Y-98794444D01*
X174272306Y-98728694D01*
X174206556Y-98674734D01*
X174131542Y-98634639D01*
X174050148Y-98609948D01*
X173965500Y-98601611D01*
X172265500Y-98601611D01*
X172180852Y-98609948D01*
X172099458Y-98634639D01*
X172024444Y-98674734D01*
X171958694Y-98728694D01*
X171904734Y-98794444D01*
X171864639Y-98869458D01*
X171839948Y-98950852D01*
X171831611Y-99035500D01*
X167209389Y-99035500D01*
X167201052Y-98950852D01*
X167176361Y-98869458D01*
X167136266Y-98794444D01*
X167082306Y-98728694D01*
X167016556Y-98674734D01*
X166941542Y-98634639D01*
X166860148Y-98609948D01*
X166775500Y-98601611D01*
X165075500Y-98601611D01*
X164990852Y-98609948D01*
X164909458Y-98634639D01*
X164834444Y-98674734D01*
X164768694Y-98728694D01*
X164714734Y-98794444D01*
X164674639Y-98869458D01*
X164649948Y-98950852D01*
X164641611Y-99035500D01*
X157236071Y-99035500D01*
X157301056Y-99000766D01*
X157366806Y-98946806D01*
X157420766Y-98881056D01*
X157460861Y-98806042D01*
X157485552Y-98724648D01*
X157493889Y-98640000D01*
X157493889Y-96940000D01*
X157485552Y-96855352D01*
X157460861Y-96773958D01*
X157420766Y-96698944D01*
X157366806Y-96633194D01*
X157301056Y-96579234D01*
X157226042Y-96539139D01*
X157144648Y-96514448D01*
X157060000Y-96506111D01*
X155360000Y-96506111D01*
X155275352Y-96514448D01*
X155193958Y-96539139D01*
X155118944Y-96579234D01*
X155053194Y-96633194D01*
X154999234Y-96698944D01*
X154959139Y-96773958D01*
X154934448Y-96855352D01*
X154926111Y-96940000D01*
X149647089Y-96940000D01*
X149638752Y-96855352D01*
X149614061Y-96773958D01*
X149573966Y-96698944D01*
X149520006Y-96633194D01*
X149454256Y-96579234D01*
X149379242Y-96539139D01*
X149297848Y-96514448D01*
X149213200Y-96506111D01*
X147513200Y-96506111D01*
X147428552Y-96514448D01*
X147347158Y-96539139D01*
X147272144Y-96579234D01*
X147206394Y-96633194D01*
X147152434Y-96698944D01*
X147112339Y-96773958D01*
X147087648Y-96855352D01*
X147079311Y-96940000D01*
X147079311Y-97104200D01*
X141187089Y-97104200D01*
X141187089Y-96940000D01*
X141178752Y-96855352D01*
X141154061Y-96773958D01*
X141113966Y-96698944D01*
X141060006Y-96633194D01*
X140994256Y-96579234D01*
X140919242Y-96539139D01*
X140837848Y-96514448D01*
X140753200Y-96506111D01*
X139053200Y-96506111D01*
X138968552Y-96514448D01*
X138887158Y-96539139D01*
X138812144Y-96579234D01*
X138746394Y-96633194D01*
X138692434Y-96698944D01*
X138652339Y-96773958D01*
X138627648Y-96855352D01*
X138619311Y-96940000D01*
X131432300Y-96940000D01*
X131432300Y-93335385D01*
X167259200Y-93335385D01*
X167259200Y-93735615D01*
X167337281Y-94128154D01*
X167490442Y-94497918D01*
X167712798Y-94830697D01*
X167995803Y-95113702D01*
X168328582Y-95336058D01*
X168698346Y-95489219D01*
X169090885Y-95567300D01*
X169491115Y-95567300D01*
X169883654Y-95489219D01*
X170253418Y-95336058D01*
X170586197Y-95113702D01*
X170869202Y-94830697D01*
X171091558Y-94497918D01*
X171244719Y-94128154D01*
X171322800Y-93735615D01*
X171322800Y-93335385D01*
X171244719Y-92942846D01*
X171091558Y-92573082D01*
X170869202Y-92240303D01*
X170586197Y-91957298D01*
X170253418Y-91734942D01*
X169883654Y-91581781D01*
X169491115Y-91503700D01*
X169090885Y-91503700D01*
X168698346Y-91581781D01*
X168328582Y-91734942D01*
X167995803Y-91957298D01*
X167712798Y-92240303D01*
X167490442Y-92573082D01*
X167337281Y-92942846D01*
X167259200Y-93335385D01*
X131432300Y-93335385D01*
X131432300Y-85135075D01*
X144900700Y-85135075D01*
X144900700Y-85298925D01*
X144932665Y-85459627D01*
X144995368Y-85611005D01*
X145086399Y-85747242D01*
X145100560Y-85761403D01*
X145091052Y-85770911D01*
X145000021Y-85907148D01*
X144937318Y-86058526D01*
X144905353Y-86219228D01*
X144905353Y-86383078D01*
X144937318Y-86543780D01*
X145000021Y-86695158D01*
X145091052Y-86831395D01*
X145206911Y-86947254D01*
X145343148Y-87038285D01*
X145486044Y-87097475D01*
X145472200Y-87167075D01*
X145472200Y-87330925D01*
X145504165Y-87491627D01*
X145566868Y-87643005D01*
X145657899Y-87779242D01*
X145773758Y-87895101D01*
X145909995Y-87986132D01*
X146061373Y-88048835D01*
X146222075Y-88080800D01*
X146385925Y-88080800D01*
X146546627Y-88048835D01*
X146698005Y-87986132D01*
X146834242Y-87895101D01*
X146950101Y-87779242D01*
X147041132Y-87643005D01*
X147103835Y-87491627D01*
X147135800Y-87330925D01*
X147135800Y-87204634D01*
X147313375Y-87027058D01*
X147334622Y-87009622D01*
X147404202Y-86924838D01*
X147455905Y-86828109D01*
X147487743Y-86723152D01*
X147495800Y-86641351D01*
X147495800Y-86641350D01*
X147498494Y-86614000D01*
X147495800Y-86586649D01*
X147495800Y-82082133D01*
X151206946Y-78370988D01*
X151217109Y-78367905D01*
X151313838Y-78316202D01*
X151398622Y-78246622D01*
X151416063Y-78225370D01*
X152059134Y-77582300D01*
X159844957Y-77582300D01*
X159934258Y-77671601D01*
X160070495Y-77762632D01*
X160221873Y-77825335D01*
X160382575Y-77857300D01*
X160546425Y-77857300D01*
X160707127Y-77825335D01*
X160858505Y-77762632D01*
X160994742Y-77671601D01*
X161110601Y-77555742D01*
X161201632Y-77419505D01*
X161264335Y-77268127D01*
X161296300Y-77107425D01*
X161296300Y-76943575D01*
X161264335Y-76782873D01*
X161201632Y-76631495D01*
X161110601Y-76495258D01*
X160994742Y-76379399D01*
X160858505Y-76288368D01*
X160707127Y-76225665D01*
X160546425Y-76193700D01*
X160382575Y-76193700D01*
X160221873Y-76225665D01*
X160070495Y-76288368D01*
X159934258Y-76379399D01*
X159844957Y-76468700D01*
X152410735Y-76468700D01*
X153138635Y-75740800D01*
X159844957Y-75740800D01*
X159934258Y-75830101D01*
X160070495Y-75921132D01*
X160221873Y-75983835D01*
X160382575Y-76015800D01*
X160546425Y-76015800D01*
X160707127Y-75983835D01*
X160858505Y-75921132D01*
X160994742Y-75830101D01*
X161110601Y-75714242D01*
X161201632Y-75578005D01*
X161264335Y-75426627D01*
X161296300Y-75265925D01*
X161296300Y-75102075D01*
X161264335Y-74941373D01*
X161201632Y-74789995D01*
X161110601Y-74653758D01*
X160994742Y-74537899D01*
X160858505Y-74446868D01*
X160707127Y-74384165D01*
X160578098Y-74358500D01*
X160707127Y-74332835D01*
X160858505Y-74270132D01*
X160994742Y-74179101D01*
X161110601Y-74063242D01*
X161201632Y-73927005D01*
X161264335Y-73775627D01*
X161296300Y-73614925D01*
X161296300Y-73451075D01*
X161264335Y-73290373D01*
X161201632Y-73138995D01*
X161110601Y-73002758D01*
X160994742Y-72886899D01*
X160858505Y-72795868D01*
X160707127Y-72733165D01*
X160546425Y-72701200D01*
X160382575Y-72701200D01*
X160221873Y-72733165D01*
X160070495Y-72795868D01*
X159934258Y-72886899D01*
X159844957Y-72976200D01*
X153697343Y-72976200D01*
X153669999Y-72973507D01*
X153642655Y-72976200D01*
X153642649Y-72976200D01*
X153560848Y-72984257D01*
X153455891Y-73016095D01*
X153359162Y-73067798D01*
X153319639Y-73100234D01*
X153295622Y-73119943D01*
X153295619Y-73119946D01*
X153274378Y-73137378D01*
X153256946Y-73158619D01*
X145358125Y-81057442D01*
X145336879Y-81074878D01*
X145319443Y-81096124D01*
X145267298Y-81159663D01*
X145215596Y-81256391D01*
X145183757Y-81361349D01*
X145173007Y-81470500D01*
X145175701Y-81497854D01*
X145175700Y-84597457D01*
X145086399Y-84686758D01*
X144995368Y-84822995D01*
X144932665Y-84974373D01*
X144900700Y-85135075D01*
X131432300Y-85135075D01*
X131432300Y-75531567D01*
X131590862Y-75373005D01*
X131596868Y-75387505D01*
X131687899Y-75523742D01*
X131803758Y-75639601D01*
X131939995Y-75730632D01*
X132091373Y-75793335D01*
X132252075Y-75825300D01*
X132415925Y-75825300D01*
X132576627Y-75793335D01*
X132728005Y-75730632D01*
X132804828Y-75679300D01*
X140555321Y-75679300D01*
X140589000Y-75682617D01*
X140622679Y-75679300D01*
X140622689Y-75679300D01*
X140723440Y-75669377D01*
X140852714Y-75630162D01*
X140971853Y-75566481D01*
X141076280Y-75480780D01*
X141097758Y-75454609D01*
X144048068Y-72504300D01*
X152874321Y-72504300D01*
X152908000Y-72507617D01*
X152941679Y-72504300D01*
X152941689Y-72504300D01*
X153042440Y-72494377D01*
X153171714Y-72455162D01*
X153290853Y-72391481D01*
X153395280Y-72305780D01*
X153416758Y-72279609D01*
X154512119Y-71184249D01*
X154538279Y-71162780D01*
X154559749Y-71136619D01*
X154559755Y-71136613D01*
X154623980Y-71058354D01*
X154623981Y-71058353D01*
X154687662Y-70939214D01*
X154726877Y-70809940D01*
X154736800Y-70709189D01*
X154736800Y-70709180D01*
X154740117Y-70675501D01*
X154736800Y-70641822D01*
X154736800Y-66361371D01*
X154868100Y-66273639D01*
X155046639Y-66095100D01*
X155186916Y-65885160D01*
X155283541Y-65651887D01*
X155321000Y-65463568D01*
X155358459Y-65651887D01*
X155455084Y-65885160D01*
X155595361Y-66095100D01*
X155773900Y-66273639D01*
X155983840Y-66413916D01*
X156217113Y-66510541D01*
X156464754Y-66559800D01*
X156717246Y-66559800D01*
X156964887Y-66510541D01*
X157198160Y-66413916D01*
X157408100Y-66273639D01*
X157586639Y-66095100D01*
X157726916Y-65885160D01*
X157823541Y-65651887D01*
X157861000Y-65463568D01*
X157898459Y-65651887D01*
X157995084Y-65885160D01*
X158135361Y-66095100D01*
X158313900Y-66273639D01*
X158523840Y-66413916D01*
X158757113Y-66510541D01*
X159004754Y-66559800D01*
X159257246Y-66559800D01*
X159504887Y-66510541D01*
X159738160Y-66413916D01*
X159948100Y-66273639D01*
X160126639Y-66095100D01*
X160266916Y-65885160D01*
X160363541Y-65651887D01*
X160401000Y-65463568D01*
X160438459Y-65651887D01*
X160535084Y-65885160D01*
X160675361Y-66095100D01*
X160853900Y-66273639D01*
X161063840Y-66413916D01*
X161297113Y-66510541D01*
X161544754Y-66559800D01*
X161797246Y-66559800D01*
X162044887Y-66510541D01*
X162278160Y-66413916D01*
X162488100Y-66273639D01*
X162666639Y-66095100D01*
X162806916Y-65885160D01*
X162903541Y-65651887D01*
X162941000Y-65463568D01*
X162978459Y-65651887D01*
X163075084Y-65885160D01*
X163215361Y-66095100D01*
X163393900Y-66273639D01*
X163603840Y-66413916D01*
X163837113Y-66510541D01*
X164084754Y-66559800D01*
X164337246Y-66559800D01*
X164584887Y-66510541D01*
X164818160Y-66413916D01*
X165028100Y-66273639D01*
X165206639Y-66095100D01*
X165346916Y-65885160D01*
X165443541Y-65651887D01*
X165481000Y-65463568D01*
X165518459Y-65651887D01*
X165615084Y-65885160D01*
X165755361Y-66095100D01*
X165933900Y-66273639D01*
X166143840Y-66413916D01*
X166377113Y-66510541D01*
X166624754Y-66559800D01*
X166877246Y-66559800D01*
X167124887Y-66510541D01*
X167358160Y-66413916D01*
X167568100Y-66273639D01*
X167746639Y-66095100D01*
X167886916Y-65885160D01*
X167983541Y-65651887D01*
X168021000Y-65463568D01*
X168058459Y-65651887D01*
X168155084Y-65885160D01*
X168295361Y-66095100D01*
X168473900Y-66273639D01*
X168683840Y-66413916D01*
X168917113Y-66510541D01*
X169164754Y-66559800D01*
X169417246Y-66559800D01*
X169664887Y-66510541D01*
X169898160Y-66413916D01*
X170108100Y-66273639D01*
X170286639Y-66095100D01*
X170426916Y-65885160D01*
X170523541Y-65651887D01*
X170547111Y-65533393D01*
X170547111Y-66128000D01*
X170555448Y-66212648D01*
X170580139Y-66294042D01*
X170620234Y-66369056D01*
X170674194Y-66434806D01*
X170739944Y-66488766D01*
X170814958Y-66528861D01*
X170896352Y-66553552D01*
X170981000Y-66561889D01*
X172681000Y-66561889D01*
X172765648Y-66553552D01*
X172847042Y-66528861D01*
X172922056Y-66488766D01*
X172987806Y-66434806D01*
X173041766Y-66369056D01*
X173081861Y-66294042D01*
X173106552Y-66212648D01*
X173114889Y-66128000D01*
X173114889Y-64428000D01*
X173106552Y-64343352D01*
X173081861Y-64261958D01*
X173041766Y-64186944D01*
X172987806Y-64121194D01*
X172922056Y-64067234D01*
X172847042Y-64027139D01*
X172765648Y-64002448D01*
X172681000Y-63994111D01*
X170981000Y-63994111D01*
X170896352Y-64002448D01*
X170814958Y-64027139D01*
X170739944Y-64067234D01*
X170674194Y-64121194D01*
X170620234Y-64186944D01*
X170580139Y-64261958D01*
X170555448Y-64343352D01*
X170547111Y-64428000D01*
X170547111Y-65022607D01*
X170523541Y-64904113D01*
X170426916Y-64670840D01*
X170286639Y-64460900D01*
X170108100Y-64282361D01*
X169898160Y-64142084D01*
X169664887Y-64045459D01*
X169417246Y-63996200D01*
X169164754Y-63996200D01*
X168917113Y-64045459D01*
X168683840Y-64142084D01*
X168473900Y-64282361D01*
X168295361Y-64460900D01*
X168155084Y-64670840D01*
X168058459Y-64904113D01*
X168021000Y-65092432D01*
X167983541Y-64904113D01*
X167886916Y-64670840D01*
X167746639Y-64460900D01*
X167568100Y-64282361D01*
X167358160Y-64142084D01*
X167124887Y-64045459D01*
X166877246Y-63996200D01*
X166624754Y-63996200D01*
X166377113Y-64045459D01*
X166143840Y-64142084D01*
X165933900Y-64282361D01*
X165755361Y-64460900D01*
X165615084Y-64670840D01*
X165518459Y-64904113D01*
X165481000Y-65092432D01*
X165443541Y-64904113D01*
X165346916Y-64670840D01*
X165206639Y-64460900D01*
X165028100Y-64282361D01*
X164818160Y-64142084D01*
X164584887Y-64045459D01*
X164337246Y-63996200D01*
X164084754Y-63996200D01*
X163837113Y-64045459D01*
X163603840Y-64142084D01*
X163393900Y-64282361D01*
X163215361Y-64460900D01*
X163075084Y-64670840D01*
X162978459Y-64904113D01*
X162941000Y-65092432D01*
X162903541Y-64904113D01*
X162806916Y-64670840D01*
X162666639Y-64460900D01*
X162488100Y-64282361D01*
X162278160Y-64142084D01*
X162044887Y-64045459D01*
X161797246Y-63996200D01*
X161544754Y-63996200D01*
X161297113Y-64045459D01*
X161063840Y-64142084D01*
X160853900Y-64282361D01*
X160675361Y-64460900D01*
X160535084Y-64670840D01*
X160438459Y-64904113D01*
X160401000Y-65092432D01*
X160363541Y-64904113D01*
X160266916Y-64670840D01*
X160126639Y-64460900D01*
X159948100Y-64282361D01*
X159738160Y-64142084D01*
X159504887Y-64045459D01*
X159257246Y-63996200D01*
X159004754Y-63996200D01*
X158757113Y-64045459D01*
X158523840Y-64142084D01*
X158313900Y-64282361D01*
X158135361Y-64460900D01*
X157995084Y-64670840D01*
X157898459Y-64904113D01*
X157861000Y-65092432D01*
X157823541Y-64904113D01*
X157726916Y-64670840D01*
X157586639Y-64460900D01*
X157408100Y-64282361D01*
X157198160Y-64142084D01*
X156964887Y-64045459D01*
X156717246Y-63996200D01*
X156464754Y-63996200D01*
X156217113Y-64045459D01*
X155983840Y-64142084D01*
X155773900Y-64282361D01*
X155595361Y-64460900D01*
X155455084Y-64670840D01*
X155358459Y-64904113D01*
X155321000Y-65092432D01*
X155283541Y-64904113D01*
X155186916Y-64670840D01*
X155046639Y-64460900D01*
X154868100Y-64282361D01*
X154658160Y-64142084D01*
X154424887Y-64045459D01*
X154177246Y-63996200D01*
X153924754Y-63996200D01*
X153677113Y-64045459D01*
X153443840Y-64142084D01*
X153233900Y-64282361D01*
X153055361Y-64460900D01*
X152915084Y-64670840D01*
X152818459Y-64904113D01*
X152769200Y-65151754D01*
X152769200Y-65404246D01*
X152818459Y-65651887D01*
X152915084Y-65885160D01*
X153055361Y-66095100D01*
X153233900Y-66273639D01*
X153365201Y-66361371D01*
X153365200Y-70391432D01*
X152623933Y-71132700D01*
X149156657Y-71132700D01*
X150448109Y-69841248D01*
X150474280Y-69819770D01*
X150559981Y-69715343D01*
X150623662Y-69596204D01*
X150662877Y-69466930D01*
X150672800Y-69366179D01*
X150672800Y-69366176D01*
X150676118Y-69332490D01*
X150672800Y-69298804D01*
X150672800Y-66561889D01*
X150837000Y-66561889D01*
X150921648Y-66553552D01*
X151003042Y-66528861D01*
X151078056Y-66488766D01*
X151143806Y-66434806D01*
X151197766Y-66369056D01*
X151237861Y-66294042D01*
X151262552Y-66212648D01*
X151270889Y-66128000D01*
X151270889Y-64428000D01*
X151262552Y-64343352D01*
X151237861Y-64261958D01*
X151197766Y-64186944D01*
X151143806Y-64121194D01*
X151078056Y-64067234D01*
X151003042Y-64027139D01*
X150921648Y-64002448D01*
X150837000Y-63994111D01*
X149137000Y-63994111D01*
X149052352Y-64002448D01*
X148970958Y-64027139D01*
X148895944Y-64067234D01*
X148830194Y-64121194D01*
X148776234Y-64186944D01*
X148736139Y-64261958D01*
X148711448Y-64343352D01*
X148703111Y-64428000D01*
X148703111Y-65022607D01*
X148679541Y-64904113D01*
X148582916Y-64670840D01*
X148442639Y-64460900D01*
X148264100Y-64282361D01*
X148054160Y-64142084D01*
X147820887Y-64045459D01*
X147573246Y-63996200D01*
X147320754Y-63996200D01*
X147073113Y-64045459D01*
X146839840Y-64142084D01*
X146629900Y-64282361D01*
X146451361Y-64460900D01*
X146311084Y-64670840D01*
X146214459Y-64904113D01*
X146177000Y-65092432D01*
X146139541Y-64904113D01*
X146042916Y-64670840D01*
X145902639Y-64460900D01*
X145724100Y-64282361D01*
X145514160Y-64142084D01*
X145280887Y-64045459D01*
X145033246Y-63996200D01*
X144780754Y-63996200D01*
X144533113Y-64045459D01*
X144299840Y-64142084D01*
X144089900Y-64282361D01*
X143911361Y-64460900D01*
X143771084Y-64670840D01*
X143674459Y-64904113D01*
X143637000Y-65092432D01*
X143599541Y-64904113D01*
X143502916Y-64670840D01*
X143362639Y-64460900D01*
X143184100Y-64282361D01*
X142974160Y-64142084D01*
X142740887Y-64045459D01*
X142493246Y-63996200D01*
X142240754Y-63996200D01*
X141993113Y-64045459D01*
X141759840Y-64142084D01*
X141549900Y-64282361D01*
X141371361Y-64460900D01*
X141231084Y-64670840D01*
X141134459Y-64904113D01*
X141097000Y-65092432D01*
X141059541Y-64904113D01*
X140962916Y-64670840D01*
X140822639Y-64460900D01*
X140644100Y-64282361D01*
X140434160Y-64142084D01*
X140200887Y-64045459D01*
X139953246Y-63996200D01*
X139700754Y-63996200D01*
X139453113Y-64045459D01*
X139219840Y-64142084D01*
X139009900Y-64282361D01*
X138831361Y-64460900D01*
X138691084Y-64670840D01*
X138594459Y-64904113D01*
X138557000Y-65092432D01*
X138519541Y-64904113D01*
X138422916Y-64670840D01*
X138282639Y-64460900D01*
X138104100Y-64282361D01*
X137894160Y-64142084D01*
X137660887Y-64045459D01*
X137413246Y-63996200D01*
X137160754Y-63996200D01*
X136913113Y-64045459D01*
X136679840Y-64142084D01*
X136469900Y-64282361D01*
X136291361Y-64460900D01*
X136151084Y-64670840D01*
X136054459Y-64904113D01*
X136017000Y-65092432D01*
X135979541Y-64904113D01*
X135882916Y-64670840D01*
X135742639Y-64460900D01*
X135564100Y-64282361D01*
X135354160Y-64142084D01*
X135120887Y-64045459D01*
X134873246Y-63996200D01*
X134620754Y-63996200D01*
X134373113Y-64045459D01*
X134139840Y-64142084D01*
X133929900Y-64282361D01*
X133751361Y-64460900D01*
X133611084Y-64670840D01*
X133514459Y-64904113D01*
X133477000Y-65092432D01*
X133439541Y-64904113D01*
X133342916Y-64670840D01*
X133202639Y-64460900D01*
X133024100Y-64282361D01*
X132814160Y-64142084D01*
X132580887Y-64045459D01*
X132333246Y-63996200D01*
X132080754Y-63996200D01*
X131833113Y-64045459D01*
X131599840Y-64142084D01*
X131389900Y-64282361D01*
X131211361Y-64460900D01*
X131071084Y-64670840D01*
X130974459Y-64904113D01*
X130925200Y-65151754D01*
X130925200Y-65404246D01*
X130974459Y-65651887D01*
X131071084Y-65885160D01*
X131211361Y-66095100D01*
X131389900Y-66273639D01*
X131599840Y-66413916D01*
X131833113Y-66510541D01*
X132080754Y-66559800D01*
X132333246Y-66559800D01*
X132580887Y-66510541D01*
X132814160Y-66413916D01*
X133024100Y-66273639D01*
X133202639Y-66095100D01*
X133342916Y-65885160D01*
X133439541Y-65651887D01*
X133477000Y-65463568D01*
X133514459Y-65651887D01*
X133611084Y-65885160D01*
X133751361Y-66095100D01*
X133929900Y-66273639D01*
X134139840Y-66413916D01*
X134373113Y-66510541D01*
X134620754Y-66559800D01*
X134873246Y-66559800D01*
X135120887Y-66510541D01*
X135354160Y-66413916D01*
X135564100Y-66273639D01*
X135742639Y-66095100D01*
X135882916Y-65885160D01*
X135979541Y-65651887D01*
X136017000Y-65463568D01*
X136054459Y-65651887D01*
X136151084Y-65885160D01*
X136291361Y-66095100D01*
X136469900Y-66273639D01*
X136679840Y-66413916D01*
X136913113Y-66510541D01*
X137160754Y-66559800D01*
X137413246Y-66559800D01*
X137660887Y-66510541D01*
X137894160Y-66413916D01*
X138104100Y-66273639D01*
X138282639Y-66095100D01*
X138422916Y-65885160D01*
X138519541Y-65651887D01*
X138557000Y-65463568D01*
X138594459Y-65651887D01*
X138691084Y-65885160D01*
X138831361Y-66095100D01*
X139009900Y-66273639D01*
X139219840Y-66413916D01*
X139270201Y-66434776D01*
X139270200Y-69809866D01*
X138643867Y-70436200D01*
X137589043Y-70436200D01*
X137499742Y-70346899D01*
X137363505Y-70255868D01*
X137212127Y-70193165D01*
X137051425Y-70161200D01*
X136887575Y-70161200D01*
X136726873Y-70193165D01*
X136575495Y-70255868D01*
X136439258Y-70346899D01*
X136323399Y-70462758D01*
X136232368Y-70598995D01*
X136169665Y-70750373D01*
X136137700Y-70911075D01*
X136137700Y-71074925D01*
X136169665Y-71235627D01*
X136232368Y-71387005D01*
X136323399Y-71523242D01*
X136439258Y-71639101D01*
X136510772Y-71686885D01*
X136401399Y-71796258D01*
X136310368Y-71932495D01*
X136247665Y-72083873D01*
X136215700Y-72244575D01*
X136215700Y-72408425D01*
X136247665Y-72569127D01*
X136310368Y-72720505D01*
X136401399Y-72856742D01*
X136517258Y-72972601D01*
X136653495Y-73063632D01*
X136804873Y-73126335D01*
X136965575Y-73158300D01*
X137129425Y-73158300D01*
X137290127Y-73126335D01*
X137441505Y-73063632D01*
X137577742Y-72972601D01*
X137693601Y-72856742D01*
X137784632Y-72720505D01*
X137847335Y-72569127D01*
X137864407Y-72483301D01*
X140453655Y-72483301D01*
X140480999Y-72485994D01*
X140508343Y-72483301D01*
X140508350Y-72483301D01*
X140590151Y-72475244D01*
X140695108Y-72443406D01*
X140791837Y-72391703D01*
X140876621Y-72322123D01*
X140894062Y-72300871D01*
X142741376Y-70453558D01*
X142762622Y-70436122D01*
X142832202Y-70351338D01*
X142883905Y-70254609D01*
X142915743Y-70149652D01*
X142923800Y-70067851D01*
X142923800Y-70067845D01*
X142926493Y-70040501D01*
X142923800Y-70013157D01*
X142923800Y-66434776D01*
X142974160Y-66413916D01*
X143184100Y-66273639D01*
X143362639Y-66095100D01*
X143502916Y-65885160D01*
X143599541Y-65651887D01*
X143637000Y-65463568D01*
X143674459Y-65651887D01*
X143771084Y-65885160D01*
X143911361Y-66095100D01*
X144089900Y-66273639D01*
X144299840Y-66413916D01*
X144533113Y-66510541D01*
X144780754Y-66559800D01*
X145033246Y-66559800D01*
X145280887Y-66510541D01*
X145514160Y-66413916D01*
X145724100Y-66273639D01*
X145902639Y-66095100D01*
X146042916Y-65885160D01*
X146139541Y-65651887D01*
X146177000Y-65463568D01*
X146214459Y-65651887D01*
X146311084Y-65885160D01*
X146451361Y-66095100D01*
X146629900Y-66273639D01*
X146839840Y-66413916D01*
X147073113Y-66510541D01*
X147320754Y-66559800D01*
X147573246Y-66559800D01*
X147820887Y-66510541D01*
X148054160Y-66413916D01*
X148264100Y-66273639D01*
X148442639Y-66095100D01*
X148582916Y-65885160D01*
X148679541Y-65651887D01*
X148703111Y-65533393D01*
X148703111Y-66128000D01*
X148711448Y-66212648D01*
X148736139Y-66294042D01*
X148776234Y-66369056D01*
X148830194Y-66434806D01*
X148895944Y-66488766D01*
X148970958Y-66528861D01*
X149052352Y-66553552D01*
X149137000Y-66561889D01*
X149301200Y-66561889D01*
X149301201Y-69048422D01*
X147924933Y-70424690D01*
X143299188Y-70424690D01*
X143265509Y-70421373D01*
X143231830Y-70424690D01*
X143231821Y-70424690D01*
X143131070Y-70434613D01*
X143001796Y-70473828D01*
X142882657Y-70537509D01*
X142882655Y-70537510D01*
X142882656Y-70537510D01*
X142806519Y-70599994D01*
X142778230Y-70623210D01*
X142756757Y-70649375D01*
X140064387Y-73341746D01*
X140038220Y-73363221D01*
X140032719Y-73369924D01*
X131971962Y-73369924D01*
X131938276Y-73366606D01*
X131904590Y-73369924D01*
X131904587Y-73369924D01*
X131803836Y-73379847D01*
X131674562Y-73419062D01*
X131555423Y-73482743D01*
X131450996Y-73568444D01*
X131429518Y-73594615D01*
X130285387Y-74738746D01*
X130259220Y-74760221D01*
X130173519Y-74864648D01*
X130109838Y-74983787D01*
X130070623Y-75113061D01*
X130060700Y-75213812D01*
X130060700Y-75213821D01*
X130057383Y-75247500D01*
X130060700Y-75281179D01*
X130060701Y-101700670D01*
X130009368Y-101777495D01*
X129946665Y-101928873D01*
X129914700Y-102089575D01*
X108660800Y-102089575D01*
X108660800Y-94957000D01*
X112952611Y-94957000D01*
X112952611Y-96657000D01*
X112960948Y-96741648D01*
X112985639Y-96823042D01*
X113025734Y-96898056D01*
X113079694Y-96963806D01*
X113145444Y-97017766D01*
X113220458Y-97057861D01*
X113301852Y-97082552D01*
X113386500Y-97090889D01*
X115086500Y-97090889D01*
X115171148Y-97082552D01*
X115252542Y-97057861D01*
X115327556Y-97017766D01*
X115393306Y-96963806D01*
X115447266Y-96898056D01*
X115487361Y-96823042D01*
X115512052Y-96741648D01*
X115520389Y-96657000D01*
X115520389Y-95680754D01*
X118034700Y-95680754D01*
X118034700Y-95933246D01*
X118083959Y-96180887D01*
X118180584Y-96414160D01*
X118320861Y-96624100D01*
X118499400Y-96802639D01*
X118709340Y-96942916D01*
X118942613Y-97039541D01*
X119190254Y-97088800D01*
X119442746Y-97088800D01*
X119690387Y-97039541D01*
X119923660Y-96942916D01*
X120133600Y-96802639D01*
X120312139Y-96624100D01*
X120452416Y-96414160D01*
X120549041Y-96180887D01*
X120598300Y-95933246D01*
X120598300Y-95680754D01*
X120549041Y-95433113D01*
X120452416Y-95199840D01*
X120312139Y-94989900D01*
X120133600Y-94811361D01*
X119923660Y-94671084D01*
X119690387Y-94574459D01*
X119442746Y-94525200D01*
X119190254Y-94525200D01*
X118942613Y-94574459D01*
X118709340Y-94671084D01*
X118499400Y-94811361D01*
X118320861Y-94989900D01*
X118180584Y-95199840D01*
X118083959Y-95433113D01*
X118034700Y-95680754D01*
X115520389Y-95680754D01*
X115520389Y-94957000D01*
X115512052Y-94872352D01*
X115487361Y-94790958D01*
X115447266Y-94715944D01*
X115393306Y-94650194D01*
X115327556Y-94596234D01*
X115252542Y-94556139D01*
X115171148Y-94531448D01*
X115086500Y-94523111D01*
X113386500Y-94523111D01*
X113301852Y-94531448D01*
X113220458Y-94556139D01*
X113145444Y-94596234D01*
X113079694Y-94650194D01*
X113025734Y-94715944D01*
X112985639Y-94790958D01*
X112960948Y-94872352D01*
X112952611Y-94957000D01*
X108660800Y-94957000D01*
X108660800Y-63067800D01*
X172657788Y-63067800D01*
X174041201Y-64451214D01*
M02*
