G04 #@! TF.GenerationSoftware,KiCad,Pcbnew,(5.1.5)-3*
G04 #@! TF.CreationDate,2020-07-30T14:07:20+07:00*
G04 #@! TF.ProjectId,lora_shield,6c6f7261-5f73-4686-9965-6c642e6b6963,rev?*
G04 #@! TF.SameCoordinates,Original*
G04 #@! TF.FileFunction,Legend,Top*
G04 #@! TF.FilePolarity,Positive*
%FSLAX46Y46*%
G04 Gerber Fmt 4.6, Leading zero omitted, Abs format (unit mm)*
G04 Created by KiCad (PCBNEW (5.1.5)-3) date 2020-07-30 14:07:20*
%MOMM*%
%LPD*%
G04 APERTURE LIST*
%ADD10C,0.152400*%
%ADD11C,0.177800*%
%ADD12C,0.203200*%
%ADD13C,0.120000*%
%ADD14C,0.300000*%
%ADD15C,0.127000*%
%ADD16C,0.146050*%
%ADD17C,0.150000*%
%ADD18C,0.015000*%
G04 APERTURE END LIST*
D10*
X136662305Y-81788000D02*
G75*
G03X136662305Y-81788000I-200805J0D01*
G01*
D11*
X141770100Y-103111300D02*
X142311966Y-103111300D01*
X142041033Y-103382233D02*
X142041033Y-102840366D01*
X142989300Y-102671033D02*
X142650633Y-102671033D01*
X142616766Y-103009700D01*
X142650633Y-102975833D01*
X142718366Y-102941966D01*
X142887700Y-102941966D01*
X142955433Y-102975833D01*
X142989300Y-103009700D01*
X143023166Y-103077433D01*
X143023166Y-103246766D01*
X142989300Y-103314500D01*
X142955433Y-103348366D01*
X142887700Y-103382233D01*
X142718366Y-103382233D01*
X142650633Y-103348366D01*
X142616766Y-103314500D01*
X143226366Y-102671033D02*
X143463433Y-103382233D01*
X143700500Y-102671033D01*
X141837833Y-98204866D02*
X141939433Y-98238733D01*
X142108766Y-98238733D01*
X142176500Y-98204866D01*
X142210366Y-98171000D01*
X142244233Y-98103266D01*
X142244233Y-98035533D01*
X142210366Y-97967800D01*
X142176500Y-97933933D01*
X142108766Y-97900066D01*
X141973300Y-97866200D01*
X141905566Y-97832333D01*
X141871700Y-97798466D01*
X141837833Y-97730733D01*
X141837833Y-97663000D01*
X141871700Y-97595266D01*
X141905566Y-97561400D01*
X141973300Y-97527533D01*
X142142633Y-97527533D01*
X142244233Y-97561400D01*
X142955433Y-98171000D02*
X142921566Y-98204866D01*
X142819966Y-98238733D01*
X142752233Y-98238733D01*
X142650633Y-98204866D01*
X142582900Y-98137133D01*
X142549033Y-98069400D01*
X142515166Y-97933933D01*
X142515166Y-97832333D01*
X142549033Y-97696866D01*
X142582900Y-97629133D01*
X142650633Y-97561400D01*
X142752233Y-97527533D01*
X142819966Y-97527533D01*
X142921566Y-97561400D01*
X142955433Y-97595266D01*
X143598900Y-98238733D02*
X143260233Y-98238733D01*
X143260233Y-97527533D01*
X142396633Y-104990900D02*
X142328900Y-104957033D01*
X142227300Y-104957033D01*
X142125700Y-104990900D01*
X142057966Y-105058633D01*
X142024100Y-105126366D01*
X141990233Y-105261833D01*
X141990233Y-105363433D01*
X142024100Y-105498900D01*
X142057966Y-105566633D01*
X142125700Y-105634366D01*
X142227300Y-105668233D01*
X142295033Y-105668233D01*
X142396633Y-105634366D01*
X142430500Y-105600500D01*
X142430500Y-105363433D01*
X142295033Y-105363433D01*
X142735300Y-105668233D02*
X142735300Y-104957033D01*
X143141700Y-105668233D01*
X143141700Y-104957033D01*
X143480366Y-105668233D02*
X143480366Y-104957033D01*
X143649700Y-104957033D01*
X143751300Y-104990900D01*
X143819033Y-105058633D01*
X143852900Y-105126366D01*
X143886766Y-105261833D01*
X143886766Y-105363433D01*
X143852900Y-105498900D01*
X143819033Y-105566633D01*
X143751300Y-105634366D01*
X143649700Y-105668233D01*
X143480366Y-105668233D01*
X141820900Y-100681366D02*
X141922500Y-100715233D01*
X142091833Y-100715233D01*
X142159566Y-100681366D01*
X142193433Y-100647500D01*
X142227300Y-100579766D01*
X142227300Y-100512033D01*
X142193433Y-100444300D01*
X142159566Y-100410433D01*
X142091833Y-100376566D01*
X141956366Y-100342700D01*
X141888633Y-100308833D01*
X141854766Y-100274966D01*
X141820900Y-100207233D01*
X141820900Y-100139500D01*
X141854766Y-100071766D01*
X141888633Y-100037900D01*
X141956366Y-100004033D01*
X142125700Y-100004033D01*
X142227300Y-100037900D01*
X142532100Y-100715233D02*
X142532100Y-100004033D01*
X142701433Y-100004033D01*
X142803033Y-100037900D01*
X142870766Y-100105633D01*
X142904633Y-100173366D01*
X142938500Y-100308833D01*
X142938500Y-100410433D01*
X142904633Y-100545900D01*
X142870766Y-100613633D01*
X142803033Y-100681366D01*
X142701433Y-100715233D01*
X142532100Y-100715233D01*
X143209433Y-100512033D02*
X143548100Y-100512033D01*
X143141700Y-100715233D02*
X143378766Y-100004033D01*
X143615833Y-100715233D01*
X150152100Y-103111300D02*
X150693966Y-103111300D01*
X150423033Y-103382233D02*
X150423033Y-102840366D01*
X151371300Y-102671033D02*
X151032633Y-102671033D01*
X150998766Y-103009700D01*
X151032633Y-102975833D01*
X151100366Y-102941966D01*
X151269700Y-102941966D01*
X151337433Y-102975833D01*
X151371300Y-103009700D01*
X151405166Y-103077433D01*
X151405166Y-103246766D01*
X151371300Y-103314500D01*
X151337433Y-103348366D01*
X151269700Y-103382233D01*
X151100366Y-103382233D01*
X151032633Y-103348366D01*
X150998766Y-103314500D01*
X151608366Y-102671033D02*
X151845433Y-103382233D01*
X152082500Y-102671033D01*
X150219833Y-98204866D02*
X150321433Y-98238733D01*
X150490766Y-98238733D01*
X150558500Y-98204866D01*
X150592366Y-98171000D01*
X150626233Y-98103266D01*
X150626233Y-98035533D01*
X150592366Y-97967800D01*
X150558500Y-97933933D01*
X150490766Y-97900066D01*
X150355300Y-97866200D01*
X150287566Y-97832333D01*
X150253700Y-97798466D01*
X150219833Y-97730733D01*
X150219833Y-97663000D01*
X150253700Y-97595266D01*
X150287566Y-97561400D01*
X150355300Y-97527533D01*
X150524633Y-97527533D01*
X150626233Y-97561400D01*
X151337433Y-98171000D02*
X151303566Y-98204866D01*
X151201966Y-98238733D01*
X151134233Y-98238733D01*
X151032633Y-98204866D01*
X150964900Y-98137133D01*
X150931033Y-98069400D01*
X150897166Y-97933933D01*
X150897166Y-97832333D01*
X150931033Y-97696866D01*
X150964900Y-97629133D01*
X151032633Y-97561400D01*
X151134233Y-97527533D01*
X151201966Y-97527533D01*
X151303566Y-97561400D01*
X151337433Y-97595266D01*
X151980900Y-98238733D02*
X151642233Y-98238733D01*
X151642233Y-97527533D01*
X150778633Y-104990900D02*
X150710900Y-104957033D01*
X150609300Y-104957033D01*
X150507700Y-104990900D01*
X150439966Y-105058633D01*
X150406100Y-105126366D01*
X150372233Y-105261833D01*
X150372233Y-105363433D01*
X150406100Y-105498900D01*
X150439966Y-105566633D01*
X150507700Y-105634366D01*
X150609300Y-105668233D01*
X150677033Y-105668233D01*
X150778633Y-105634366D01*
X150812500Y-105600500D01*
X150812500Y-105363433D01*
X150677033Y-105363433D01*
X151117300Y-105668233D02*
X151117300Y-104957033D01*
X151523700Y-105668233D01*
X151523700Y-104957033D01*
X151862366Y-105668233D02*
X151862366Y-104957033D01*
X152031700Y-104957033D01*
X152133300Y-104990900D01*
X152201033Y-105058633D01*
X152234900Y-105126366D01*
X152268766Y-105261833D01*
X152268766Y-105363433D01*
X152234900Y-105498900D01*
X152201033Y-105566633D01*
X152133300Y-105634366D01*
X152031700Y-105668233D01*
X151862366Y-105668233D01*
X150202900Y-100681366D02*
X150304500Y-100715233D01*
X150473833Y-100715233D01*
X150541566Y-100681366D01*
X150575433Y-100647500D01*
X150609300Y-100579766D01*
X150609300Y-100512033D01*
X150575433Y-100444300D01*
X150541566Y-100410433D01*
X150473833Y-100376566D01*
X150338366Y-100342700D01*
X150270633Y-100308833D01*
X150236766Y-100274966D01*
X150202900Y-100207233D01*
X150202900Y-100139500D01*
X150236766Y-100071766D01*
X150270633Y-100037900D01*
X150338366Y-100004033D01*
X150507700Y-100004033D01*
X150609300Y-100037900D01*
X150914100Y-100715233D02*
X150914100Y-100004033D01*
X151083433Y-100004033D01*
X151185033Y-100037900D01*
X151252766Y-100105633D01*
X151286633Y-100173366D01*
X151320500Y-100308833D01*
X151320500Y-100410433D01*
X151286633Y-100545900D01*
X151252766Y-100613633D01*
X151185033Y-100681366D01*
X151083433Y-100715233D01*
X150914100Y-100715233D01*
X151591433Y-100512033D02*
X151930100Y-100512033D01*
X151523700Y-100715233D02*
X151760766Y-100004033D01*
X151997833Y-100715233D01*
X158089600Y-103111300D02*
X158631466Y-103111300D01*
X158360533Y-103382233D02*
X158360533Y-102840366D01*
X159308800Y-102671033D02*
X158970133Y-102671033D01*
X158936266Y-103009700D01*
X158970133Y-102975833D01*
X159037866Y-102941966D01*
X159207200Y-102941966D01*
X159274933Y-102975833D01*
X159308800Y-103009700D01*
X159342666Y-103077433D01*
X159342666Y-103246766D01*
X159308800Y-103314500D01*
X159274933Y-103348366D01*
X159207200Y-103382233D01*
X159037866Y-103382233D01*
X158970133Y-103348366D01*
X158936266Y-103314500D01*
X159545866Y-102671033D02*
X159782933Y-103382233D01*
X160020000Y-102671033D01*
X158157333Y-98204866D02*
X158258933Y-98238733D01*
X158428266Y-98238733D01*
X158496000Y-98204866D01*
X158529866Y-98171000D01*
X158563733Y-98103266D01*
X158563733Y-98035533D01*
X158529866Y-97967800D01*
X158496000Y-97933933D01*
X158428266Y-97900066D01*
X158292800Y-97866200D01*
X158225066Y-97832333D01*
X158191200Y-97798466D01*
X158157333Y-97730733D01*
X158157333Y-97663000D01*
X158191200Y-97595266D01*
X158225066Y-97561400D01*
X158292800Y-97527533D01*
X158462133Y-97527533D01*
X158563733Y-97561400D01*
X159274933Y-98171000D02*
X159241066Y-98204866D01*
X159139466Y-98238733D01*
X159071733Y-98238733D01*
X158970133Y-98204866D01*
X158902400Y-98137133D01*
X158868533Y-98069400D01*
X158834666Y-97933933D01*
X158834666Y-97832333D01*
X158868533Y-97696866D01*
X158902400Y-97629133D01*
X158970133Y-97561400D01*
X159071733Y-97527533D01*
X159139466Y-97527533D01*
X159241066Y-97561400D01*
X159274933Y-97595266D01*
X159918400Y-98238733D02*
X159579733Y-98238733D01*
X159579733Y-97527533D01*
X158716133Y-104990900D02*
X158648400Y-104957033D01*
X158546800Y-104957033D01*
X158445200Y-104990900D01*
X158377466Y-105058633D01*
X158343600Y-105126366D01*
X158309733Y-105261833D01*
X158309733Y-105363433D01*
X158343600Y-105498900D01*
X158377466Y-105566633D01*
X158445200Y-105634366D01*
X158546800Y-105668233D01*
X158614533Y-105668233D01*
X158716133Y-105634366D01*
X158750000Y-105600500D01*
X158750000Y-105363433D01*
X158614533Y-105363433D01*
X159054800Y-105668233D02*
X159054800Y-104957033D01*
X159461200Y-105668233D01*
X159461200Y-104957033D01*
X159799866Y-105668233D02*
X159799866Y-104957033D01*
X159969200Y-104957033D01*
X160070800Y-104990900D01*
X160138533Y-105058633D01*
X160172400Y-105126366D01*
X160206266Y-105261833D01*
X160206266Y-105363433D01*
X160172400Y-105498900D01*
X160138533Y-105566633D01*
X160070800Y-105634366D01*
X159969200Y-105668233D01*
X159799866Y-105668233D01*
X158140400Y-100681366D02*
X158242000Y-100715233D01*
X158411333Y-100715233D01*
X158479066Y-100681366D01*
X158512933Y-100647500D01*
X158546800Y-100579766D01*
X158546800Y-100512033D01*
X158512933Y-100444300D01*
X158479066Y-100410433D01*
X158411333Y-100376566D01*
X158275866Y-100342700D01*
X158208133Y-100308833D01*
X158174266Y-100274966D01*
X158140400Y-100207233D01*
X158140400Y-100139500D01*
X158174266Y-100071766D01*
X158208133Y-100037900D01*
X158275866Y-100004033D01*
X158445200Y-100004033D01*
X158546800Y-100037900D01*
X158851600Y-100715233D02*
X158851600Y-100004033D01*
X159020933Y-100004033D01*
X159122533Y-100037900D01*
X159190266Y-100105633D01*
X159224133Y-100173366D01*
X159258000Y-100308833D01*
X159258000Y-100410433D01*
X159224133Y-100545900D01*
X159190266Y-100613633D01*
X159122533Y-100681366D01*
X159020933Y-100715233D01*
X158851600Y-100715233D01*
X159528933Y-100512033D02*
X159867600Y-100512033D01*
X159461200Y-100715233D02*
X159698266Y-100004033D01*
X159935333Y-100715233D01*
D12*
X141930380Y-111037619D02*
X141454190Y-111370952D01*
X141930380Y-111609047D02*
X140930380Y-111609047D01*
X140930380Y-111228095D01*
X140978000Y-111132857D01*
X141025619Y-111085238D01*
X141120857Y-111037619D01*
X141263714Y-111037619D01*
X141358952Y-111085238D01*
X141406571Y-111132857D01*
X141454190Y-111228095D01*
X141454190Y-111609047D01*
X141882761Y-110656666D02*
X141930380Y-110513809D01*
X141930380Y-110275714D01*
X141882761Y-110180476D01*
X141835142Y-110132857D01*
X141739904Y-110085238D01*
X141644666Y-110085238D01*
X141549428Y-110132857D01*
X141501809Y-110180476D01*
X141454190Y-110275714D01*
X141406571Y-110466190D01*
X141358952Y-110561428D01*
X141311333Y-110609047D01*
X141216095Y-110656666D01*
X141120857Y-110656666D01*
X141025619Y-110609047D01*
X140978000Y-110561428D01*
X140930380Y-110466190D01*
X140930380Y-110228095D01*
X140978000Y-110085238D01*
X140930380Y-109799523D02*
X140930380Y-109228095D01*
X141930380Y-109513809D02*
X140930380Y-109513809D01*
X144089428Y-112251904D02*
X144089428Y-111490000D01*
X144470380Y-111870952D02*
X143708476Y-111870952D01*
X143470380Y-111109047D02*
X143470380Y-110490000D01*
X143851333Y-110823333D01*
X143851333Y-110680476D01*
X143898952Y-110585238D01*
X143946571Y-110537619D01*
X144041809Y-110490000D01*
X144279904Y-110490000D01*
X144375142Y-110537619D01*
X144422761Y-110585238D01*
X144470380Y-110680476D01*
X144470380Y-110966190D01*
X144422761Y-111061428D01*
X144375142Y-111109047D01*
X143470380Y-110204285D02*
X144470380Y-109870952D01*
X143470380Y-109537619D01*
X143470380Y-109299523D02*
X143470380Y-108680476D01*
X143851333Y-109013809D01*
X143851333Y-108870952D01*
X143898952Y-108775714D01*
X143946571Y-108728095D01*
X144041809Y-108680476D01*
X144279904Y-108680476D01*
X144375142Y-108728095D01*
X144422761Y-108775714D01*
X144470380Y-108870952D01*
X144470380Y-109156666D01*
X144422761Y-109251904D01*
X144375142Y-109299523D01*
X146629428Y-111775714D02*
X146629428Y-111013809D01*
X147010380Y-111394761D02*
X146248476Y-111394761D01*
X146010380Y-110061428D02*
X146010380Y-110537619D01*
X146486571Y-110585238D01*
X146438952Y-110537619D01*
X146391333Y-110442380D01*
X146391333Y-110204285D01*
X146438952Y-110109047D01*
X146486571Y-110061428D01*
X146581809Y-110013809D01*
X146819904Y-110013809D01*
X146915142Y-110061428D01*
X146962761Y-110109047D01*
X147010380Y-110204285D01*
X147010380Y-110442380D01*
X146962761Y-110537619D01*
X146915142Y-110585238D01*
X146010380Y-109728095D02*
X147010380Y-109394761D01*
X146010380Y-109061428D01*
X148598000Y-111251904D02*
X148550380Y-111347142D01*
X148550380Y-111490000D01*
X148598000Y-111632857D01*
X148693238Y-111728095D01*
X148788476Y-111775714D01*
X148978952Y-111823333D01*
X149121809Y-111823333D01*
X149312285Y-111775714D01*
X149407523Y-111728095D01*
X149502761Y-111632857D01*
X149550380Y-111490000D01*
X149550380Y-111394761D01*
X149502761Y-111251904D01*
X149455142Y-111204285D01*
X149121809Y-111204285D01*
X149121809Y-111394761D01*
X149550380Y-110775714D02*
X148550380Y-110775714D01*
X149550380Y-110204285D01*
X148550380Y-110204285D01*
X149550380Y-109728095D02*
X148550380Y-109728095D01*
X148550380Y-109490000D01*
X148598000Y-109347142D01*
X148693238Y-109251904D01*
X148788476Y-109204285D01*
X148978952Y-109156666D01*
X149121809Y-109156666D01*
X149312285Y-109204285D01*
X149407523Y-109251904D01*
X149502761Y-109347142D01*
X149550380Y-109490000D01*
X149550380Y-109728095D01*
D13*
X111760000Y-77470000D02*
X109220000Y-77470000D01*
X109220000Y-83820000D02*
X110490000Y-83820000D01*
X109220000Y-77470000D02*
X109220000Y-83820000D01*
X111760000Y-74930000D02*
X111760000Y-77470000D01*
X130810000Y-74930000D02*
X111760000Y-74930000D01*
X130810000Y-81280000D02*
X130810000Y-74930000D01*
X129540000Y-81280000D02*
X130810000Y-81280000D01*
X124460000Y-81280000D02*
X129540000Y-81280000D01*
X124460000Y-83820000D02*
X124460000Y-81280000D01*
X110490000Y-83820000D02*
X124460000Y-83820000D01*
D14*
X111097928Y-82149071D02*
X110383642Y-82149071D01*
X110383642Y-80649071D01*
X111812214Y-82149071D02*
X111669357Y-82077642D01*
X111597928Y-82006214D01*
X111526500Y-81863357D01*
X111526500Y-81434785D01*
X111597928Y-81291928D01*
X111669357Y-81220500D01*
X111812214Y-81149071D01*
X112026500Y-81149071D01*
X112169357Y-81220500D01*
X112240785Y-81291928D01*
X112312214Y-81434785D01*
X112312214Y-81863357D01*
X112240785Y-82006214D01*
X112169357Y-82077642D01*
X112026500Y-82149071D01*
X111812214Y-82149071D01*
X113812214Y-82149071D02*
X113312214Y-81434785D01*
X112955071Y-82149071D02*
X112955071Y-80649071D01*
X113526500Y-80649071D01*
X113669357Y-80720500D01*
X113740785Y-80791928D01*
X113812214Y-80934785D01*
X113812214Y-81149071D01*
X113740785Y-81291928D01*
X113669357Y-81363357D01*
X113526500Y-81434785D01*
X112955071Y-81434785D01*
X115097928Y-82149071D02*
X115097928Y-81363357D01*
X115026500Y-81220500D01*
X114883642Y-81149071D01*
X114597928Y-81149071D01*
X114455071Y-81220500D01*
X115097928Y-82077642D02*
X114955071Y-82149071D01*
X114597928Y-82149071D01*
X114455071Y-82077642D01*
X114383642Y-81934785D01*
X114383642Y-81791928D01*
X114455071Y-81649071D01*
X114597928Y-81577642D01*
X114955071Y-81577642D01*
X115097928Y-81506214D01*
X116883642Y-82077642D02*
X117097928Y-82149071D01*
X117455071Y-82149071D01*
X117597928Y-82077642D01*
X117669357Y-82006214D01*
X117740785Y-81863357D01*
X117740785Y-81720500D01*
X117669357Y-81577642D01*
X117597928Y-81506214D01*
X117455071Y-81434785D01*
X117169357Y-81363357D01*
X117026500Y-81291928D01*
X116955071Y-81220500D01*
X116883642Y-81077642D01*
X116883642Y-80934785D01*
X116955071Y-80791928D01*
X117026500Y-80720500D01*
X117169357Y-80649071D01*
X117526500Y-80649071D01*
X117740785Y-80720500D01*
X118383642Y-82149071D02*
X118383642Y-80649071D01*
X119026500Y-82149071D02*
X119026500Y-81363357D01*
X118955071Y-81220500D01*
X118812214Y-81149071D01*
X118597928Y-81149071D01*
X118455071Y-81220500D01*
X118383642Y-81291928D01*
X119740785Y-82149071D02*
X119740785Y-81149071D01*
X119740785Y-80649071D02*
X119669357Y-80720500D01*
X119740785Y-80791928D01*
X119812214Y-80720500D01*
X119740785Y-80649071D01*
X119740785Y-80791928D01*
X121026500Y-82077642D02*
X120883642Y-82149071D01*
X120597928Y-82149071D01*
X120455071Y-82077642D01*
X120383642Y-81934785D01*
X120383642Y-81363357D01*
X120455071Y-81220500D01*
X120597928Y-81149071D01*
X120883642Y-81149071D01*
X121026500Y-81220500D01*
X121097928Y-81363357D01*
X121097928Y-81506214D01*
X120383642Y-81649071D01*
X121955071Y-82149071D02*
X121812214Y-82077642D01*
X121740785Y-81934785D01*
X121740785Y-80649071D01*
X123169357Y-82149071D02*
X123169357Y-80649071D01*
X123169357Y-82077642D02*
X123026500Y-82149071D01*
X122740785Y-82149071D01*
X122597928Y-82077642D01*
X122526500Y-82006214D01*
X122455071Y-81863357D01*
X122455071Y-81434785D01*
X122526500Y-81291928D01*
X122597928Y-81220500D01*
X122740785Y-81149071D01*
X123026500Y-81149071D01*
X123169357Y-81220500D01*
D11*
X167601900Y-102713366D02*
X167703500Y-102747233D01*
X167872833Y-102747233D01*
X167940566Y-102713366D01*
X167974433Y-102679500D01*
X168008300Y-102611766D01*
X168008300Y-102544033D01*
X167974433Y-102476300D01*
X167940566Y-102442433D01*
X167872833Y-102408566D01*
X167737366Y-102374700D01*
X167669633Y-102340833D01*
X167635766Y-102306966D01*
X167601900Y-102239233D01*
X167601900Y-102171500D01*
X167635766Y-102103766D01*
X167669633Y-102069900D01*
X167737366Y-102036033D01*
X167906700Y-102036033D01*
X168008300Y-102069900D01*
X168313100Y-102747233D02*
X168313100Y-102036033D01*
X168482433Y-102036033D01*
X168584033Y-102069900D01*
X168651766Y-102137633D01*
X168685633Y-102205366D01*
X168719500Y-102340833D01*
X168719500Y-102442433D01*
X168685633Y-102577900D01*
X168651766Y-102645633D01*
X168584033Y-102713366D01*
X168482433Y-102747233D01*
X168313100Y-102747233D01*
X168990433Y-102544033D02*
X169329100Y-102544033D01*
X168922700Y-102747233D02*
X169159766Y-102036033D01*
X169396833Y-102747233D01*
X168177633Y-107022900D02*
X168109900Y-106989033D01*
X168008300Y-106989033D01*
X167906700Y-107022900D01*
X167838966Y-107090633D01*
X167805100Y-107158366D01*
X167771233Y-107293833D01*
X167771233Y-107395433D01*
X167805100Y-107530900D01*
X167838966Y-107598633D01*
X167906700Y-107666366D01*
X168008300Y-107700233D01*
X168076033Y-107700233D01*
X168177633Y-107666366D01*
X168211500Y-107632500D01*
X168211500Y-107395433D01*
X168076033Y-107395433D01*
X168516300Y-107700233D02*
X168516300Y-106989033D01*
X168922700Y-107700233D01*
X168922700Y-106989033D01*
X169261366Y-107700233D02*
X169261366Y-106989033D01*
X169430700Y-106989033D01*
X169532300Y-107022900D01*
X169600033Y-107090633D01*
X169633900Y-107158366D01*
X169667766Y-107293833D01*
X169667766Y-107395433D01*
X169633900Y-107530900D01*
X169600033Y-107598633D01*
X169532300Y-107666366D01*
X169430700Y-107700233D01*
X169261366Y-107700233D01*
X167618833Y-100236866D02*
X167720433Y-100270733D01*
X167889766Y-100270733D01*
X167957500Y-100236866D01*
X167991366Y-100203000D01*
X168025233Y-100135266D01*
X168025233Y-100067533D01*
X167991366Y-99999800D01*
X167957500Y-99965933D01*
X167889766Y-99932066D01*
X167754300Y-99898200D01*
X167686566Y-99864333D01*
X167652700Y-99830466D01*
X167618833Y-99762733D01*
X167618833Y-99695000D01*
X167652700Y-99627266D01*
X167686566Y-99593400D01*
X167754300Y-99559533D01*
X167923633Y-99559533D01*
X168025233Y-99593400D01*
X168736433Y-100203000D02*
X168702566Y-100236866D01*
X168600966Y-100270733D01*
X168533233Y-100270733D01*
X168431633Y-100236866D01*
X168363900Y-100169133D01*
X168330033Y-100101400D01*
X168296166Y-99965933D01*
X168296166Y-99864333D01*
X168330033Y-99728866D01*
X168363900Y-99661133D01*
X168431633Y-99593400D01*
X168533233Y-99559533D01*
X168600966Y-99559533D01*
X168702566Y-99593400D01*
X168736433Y-99627266D01*
X169379900Y-100270733D02*
X169041233Y-100270733D01*
X169041233Y-99559533D01*
X167551100Y-105143300D02*
X168092966Y-105143300D01*
X167822033Y-105414233D02*
X167822033Y-104872366D01*
X168770300Y-104703033D02*
X168431633Y-104703033D01*
X168397766Y-105041700D01*
X168431633Y-105007833D01*
X168499366Y-104973966D01*
X168668700Y-104973966D01*
X168736433Y-105007833D01*
X168770300Y-105041700D01*
X168804166Y-105109433D01*
X168804166Y-105278766D01*
X168770300Y-105346500D01*
X168736433Y-105380366D01*
X168668700Y-105414233D01*
X168499366Y-105414233D01*
X168431633Y-105380366D01*
X168397766Y-105346500D01*
X169007366Y-104703033D02*
X169244433Y-105414233D01*
X169481500Y-104703033D01*
D13*
X151320500Y-63944500D02*
X151257000Y-63944500D01*
X151320500Y-65214500D02*
X151320500Y-63944500D01*
X148717000Y-63948000D02*
X151257000Y-63944500D01*
X149987000Y-66608000D02*
X148717000Y-66611500D01*
X173164500Y-63944500D02*
X173161000Y-65278000D01*
X170561000Y-63948000D02*
X173164500Y-63944500D01*
X170561000Y-66608000D02*
X171831000Y-66611500D01*
D12*
X151138000Y-111251904D02*
X151090380Y-111347142D01*
X151090380Y-111490000D01*
X151138000Y-111632857D01*
X151233238Y-111728095D01*
X151328476Y-111775714D01*
X151518952Y-111823333D01*
X151661809Y-111823333D01*
X151852285Y-111775714D01*
X151947523Y-111728095D01*
X152042761Y-111632857D01*
X152090380Y-111490000D01*
X152090380Y-111394761D01*
X152042761Y-111251904D01*
X151995142Y-111204285D01*
X151661809Y-111204285D01*
X151661809Y-111394761D01*
X152090380Y-110775714D02*
X151090380Y-110775714D01*
X152090380Y-110204285D01*
X151090380Y-110204285D01*
X152090380Y-109728095D02*
X151090380Y-109728095D01*
X151090380Y-109490000D01*
X151138000Y-109347142D01*
X151233238Y-109251904D01*
X151328476Y-109204285D01*
X151518952Y-109156666D01*
X151661809Y-109156666D01*
X151852285Y-109204285D01*
X151947523Y-109251904D01*
X152042761Y-109347142D01*
X152090380Y-109490000D01*
X152090380Y-109728095D01*
X153439880Y-111966238D02*
X154439880Y-111632904D01*
X153439880Y-111299571D01*
X154439880Y-110966238D02*
X153439880Y-110966238D01*
X154439880Y-110490047D02*
X153439880Y-110490047D01*
X154439880Y-109918619D01*
X153439880Y-109918619D01*
X159424666Y-111394785D02*
X159424666Y-110918595D01*
X159710380Y-111490023D02*
X158710380Y-111156690D01*
X159710380Y-110823357D01*
X158710380Y-110013833D02*
X158710380Y-110490023D01*
X159186571Y-110537642D01*
X159138952Y-110490023D01*
X159091333Y-110394785D01*
X159091333Y-110156690D01*
X159138952Y-110061452D01*
X159186571Y-110013833D01*
X159281809Y-109966214D01*
X159519904Y-109966214D01*
X159615142Y-110013833D01*
X159662761Y-110061452D01*
X159710380Y-110156690D01*
X159710380Y-110394785D01*
X159662761Y-110490023D01*
X159615142Y-110537642D01*
X162028166Y-111394785D02*
X162028166Y-110918595D01*
X162313880Y-111490023D02*
X161313880Y-111156690D01*
X162313880Y-110823357D01*
X161647214Y-110061452D02*
X162313880Y-110061452D01*
X161266261Y-110299547D02*
X161980547Y-110537642D01*
X161980547Y-109918595D01*
X164758666Y-111394785D02*
X164758666Y-110918595D01*
X165044380Y-111490023D02*
X164044380Y-111156690D01*
X165044380Y-110823357D01*
X164044380Y-110585261D02*
X164044380Y-109966214D01*
X164425333Y-110299547D01*
X164425333Y-110156690D01*
X164472952Y-110061452D01*
X164520571Y-110013833D01*
X164615809Y-109966214D01*
X164853904Y-109966214D01*
X164949142Y-110013833D01*
X164996761Y-110061452D01*
X165044380Y-110156690D01*
X165044380Y-110442404D01*
X164996761Y-110537642D01*
X164949142Y-110585261D01*
X167044666Y-111394785D02*
X167044666Y-110918595D01*
X167330380Y-111490023D02*
X166330380Y-111156690D01*
X167330380Y-110823357D01*
X166425619Y-110537642D02*
X166378000Y-110490023D01*
X166330380Y-110394785D01*
X166330380Y-110156690D01*
X166378000Y-110061452D01*
X166425619Y-110013833D01*
X166520857Y-109966214D01*
X166616095Y-109966214D01*
X166758952Y-110013833D01*
X167330380Y-110585261D01*
X167330380Y-109966214D01*
X169648166Y-111394785D02*
X169648166Y-110918595D01*
X169933880Y-111490023D02*
X168933880Y-111156690D01*
X169933880Y-110823357D01*
X169933880Y-109966214D02*
X169933880Y-110537642D01*
X169933880Y-110251928D02*
X168933880Y-110251928D01*
X169076738Y-110347166D01*
X169171976Y-110442404D01*
X169219595Y-110537642D01*
X172061166Y-111394785D02*
X172061166Y-110918595D01*
X172346880Y-111490023D02*
X171346880Y-111156690D01*
X172346880Y-110823357D01*
X171346880Y-110299547D02*
X171346880Y-110204309D01*
X171394500Y-110109071D01*
X171442119Y-110061452D01*
X171537357Y-110013833D01*
X171727833Y-109966214D01*
X171965928Y-109966214D01*
X172156404Y-110013833D01*
X172251642Y-110061452D01*
X172299261Y-110109071D01*
X172346880Y-110204309D01*
X172346880Y-110299547D01*
X172299261Y-110394785D01*
X172251642Y-110442404D01*
X172156404Y-110490023D01*
X171965928Y-110537642D01*
X171727833Y-110537642D01*
X171537357Y-110490023D01*
X171442119Y-110442404D01*
X171394500Y-110394785D01*
X171346880Y-110299547D01*
D11*
X175099133Y-107276900D02*
X175031400Y-107243033D01*
X174929800Y-107243033D01*
X174828200Y-107276900D01*
X174760466Y-107344633D01*
X174726600Y-107412366D01*
X174692733Y-107547833D01*
X174692733Y-107649433D01*
X174726600Y-107784900D01*
X174760466Y-107852633D01*
X174828200Y-107920366D01*
X174929800Y-107954233D01*
X174997533Y-107954233D01*
X175099133Y-107920366D01*
X175133000Y-107886500D01*
X175133000Y-107649433D01*
X174997533Y-107649433D01*
X175437800Y-107954233D02*
X175437800Y-107243033D01*
X175844200Y-107954233D01*
X175844200Y-107243033D01*
X176182866Y-107954233D02*
X176182866Y-107243033D01*
X176352200Y-107243033D01*
X176453800Y-107276900D01*
X176521533Y-107344633D01*
X176555400Y-107412366D01*
X176589266Y-107547833D01*
X176589266Y-107649433D01*
X176555400Y-107784900D01*
X176521533Y-107852633D01*
X176453800Y-107920366D01*
X176352200Y-107954233D01*
X176182866Y-107954233D01*
X174663100Y-105016300D02*
X175204966Y-105016300D01*
X174934033Y-105287233D02*
X174934033Y-104745366D01*
X175882300Y-104576033D02*
X175543633Y-104576033D01*
X175509766Y-104914700D01*
X175543633Y-104880833D01*
X175611366Y-104846966D01*
X175780700Y-104846966D01*
X175848433Y-104880833D01*
X175882300Y-104914700D01*
X175916166Y-104982433D01*
X175916166Y-105151766D01*
X175882300Y-105219500D01*
X175848433Y-105253366D01*
X175780700Y-105287233D01*
X175611366Y-105287233D01*
X175543633Y-105253366D01*
X175509766Y-105219500D01*
X176119366Y-104576033D02*
X176356433Y-105287233D01*
X176593500Y-104576033D01*
D15*
X174625604Y-102105580D02*
X174959433Y-102105580D01*
X174792519Y-102689780D02*
X174792519Y-102105580D01*
X175098528Y-102105580D02*
X175487995Y-102689780D01*
X175487995Y-102105580D02*
X175098528Y-102689780D01*
X175710547Y-102689780D02*
X175710547Y-102105580D01*
X175849642Y-102105580D01*
X175933100Y-102133400D01*
X175988738Y-102189038D01*
X176016557Y-102244676D01*
X176044376Y-102355952D01*
X176044376Y-102439409D01*
X176016557Y-102550685D01*
X175988738Y-102606323D01*
X175933100Y-102661961D01*
X175849642Y-102689780D01*
X175710547Y-102689780D01*
X176600757Y-102689780D02*
X176266928Y-102689780D01*
X176433842Y-102689780D02*
X176433842Y-102105580D01*
X176378204Y-102189038D01*
X176322566Y-102244676D01*
X176266928Y-102272495D01*
D16*
X175100342Y-100213280D02*
X174905609Y-99935090D01*
X174766514Y-100213280D02*
X174766514Y-99629080D01*
X174989066Y-99629080D01*
X175044704Y-99656900D01*
X175072523Y-99684719D01*
X175100342Y-99740357D01*
X175100342Y-99823814D01*
X175072523Y-99879452D01*
X175044704Y-99907271D01*
X174989066Y-99935090D01*
X174766514Y-99935090D01*
X175295076Y-99629080D02*
X175684542Y-100213280D01*
X175684542Y-99629080D02*
X175295076Y-100213280D01*
X175907095Y-100213280D02*
X175907095Y-99629080D01*
X176046190Y-99629080D01*
X176129647Y-99656900D01*
X176185285Y-99712538D01*
X176213104Y-99768176D01*
X176240923Y-99879452D01*
X176240923Y-99962909D01*
X176213104Y-100074185D01*
X176185285Y-100129823D01*
X176129647Y-100185461D01*
X176046190Y-100213280D01*
X175907095Y-100213280D01*
X176797304Y-100213280D02*
X176463476Y-100213280D01*
X176630390Y-100213280D02*
X176630390Y-99629080D01*
X176574752Y-99712538D01*
X176519114Y-99768176D01*
X176463476Y-99795995D01*
D12*
X137818761Y-69675214D02*
X137866380Y-69532357D01*
X137866380Y-69294261D01*
X137818761Y-69199023D01*
X137771142Y-69151404D01*
X137675904Y-69103785D01*
X137580666Y-69103785D01*
X137485428Y-69151404D01*
X137437809Y-69199023D01*
X137390190Y-69294261D01*
X137342571Y-69484738D01*
X137294952Y-69579976D01*
X137247333Y-69627595D01*
X137152095Y-69675214D01*
X137056857Y-69675214D01*
X136961619Y-69627595D01*
X136914000Y-69579976D01*
X136866380Y-69484738D01*
X136866380Y-69246642D01*
X136914000Y-69103785D01*
X137771142Y-68103785D02*
X137818761Y-68151404D01*
X137866380Y-68294261D01*
X137866380Y-68389500D01*
X137818761Y-68532357D01*
X137723523Y-68627595D01*
X137628285Y-68675214D01*
X137437809Y-68722833D01*
X137294952Y-68722833D01*
X137104476Y-68675214D01*
X137009238Y-68627595D01*
X136914000Y-68532357D01*
X136866380Y-68389500D01*
X136866380Y-68294261D01*
X136914000Y-68151404D01*
X136961619Y-68103785D01*
X137866380Y-67675214D02*
X136866380Y-67675214D01*
X137866380Y-67103785D02*
X137294952Y-67532357D01*
X136866380Y-67103785D02*
X137437809Y-67675214D01*
X140279380Y-70151428D02*
X139279380Y-70151428D01*
X139993666Y-69818095D01*
X139279380Y-69484761D01*
X140279380Y-69484761D01*
X140279380Y-69008571D02*
X139279380Y-69008571D01*
X140231761Y-68580000D02*
X140279380Y-68437142D01*
X140279380Y-68199047D01*
X140231761Y-68103809D01*
X140184142Y-68056190D01*
X140088904Y-68008571D01*
X139993666Y-68008571D01*
X139898428Y-68056190D01*
X139850809Y-68103809D01*
X139803190Y-68199047D01*
X139755571Y-68389523D01*
X139707952Y-68484761D01*
X139660333Y-68532380D01*
X139565095Y-68580000D01*
X139469857Y-68580000D01*
X139374619Y-68532380D01*
X139327000Y-68484761D01*
X139279380Y-68389523D01*
X139279380Y-68151428D01*
X139327000Y-68008571D01*
X139279380Y-67389523D02*
X139279380Y-67199047D01*
X139327000Y-67103809D01*
X139422238Y-67008571D01*
X139612714Y-66960952D01*
X139946047Y-66960952D01*
X140136523Y-67008571D01*
X140231761Y-67103809D01*
X140279380Y-67199047D01*
X140279380Y-67389523D01*
X140231761Y-67484761D01*
X140136523Y-67580000D01*
X139946047Y-67627619D01*
X139612714Y-67627619D01*
X139422238Y-67580000D01*
X139327000Y-67484761D01*
X139279380Y-67389523D01*
X142946380Y-70151428D02*
X141946380Y-70151428D01*
X142660666Y-69818095D01*
X141946380Y-69484761D01*
X142946380Y-69484761D01*
X141946380Y-68818095D02*
X141946380Y-68627619D01*
X141994000Y-68532380D01*
X142089238Y-68437142D01*
X142279714Y-68389523D01*
X142613047Y-68389523D01*
X142803523Y-68437142D01*
X142898761Y-68532380D01*
X142946380Y-68627619D01*
X142946380Y-68818095D01*
X142898761Y-68913333D01*
X142803523Y-69008571D01*
X142613047Y-69056190D01*
X142279714Y-69056190D01*
X142089238Y-69008571D01*
X141994000Y-68913333D01*
X141946380Y-68818095D01*
X142898761Y-68008571D02*
X142946380Y-67865714D01*
X142946380Y-67627619D01*
X142898761Y-67532380D01*
X142851142Y-67484761D01*
X142755904Y-67437142D01*
X142660666Y-67437142D01*
X142565428Y-67484761D01*
X142517809Y-67532380D01*
X142470190Y-67627619D01*
X142422571Y-67818095D01*
X142374952Y-67913333D01*
X142327333Y-67960952D01*
X142232095Y-68008571D01*
X142136857Y-68008571D01*
X142041619Y-67960952D01*
X141994000Y-67913333D01*
X141946380Y-67818095D01*
X141946380Y-67580000D01*
X141994000Y-67437142D01*
X142946380Y-67008571D02*
X141946380Y-67008571D01*
X145613380Y-69476785D02*
X144613380Y-69476785D01*
X144613380Y-69238690D01*
X144661000Y-69095833D01*
X144756238Y-69000595D01*
X144851476Y-68952976D01*
X145041952Y-68905357D01*
X145184809Y-68905357D01*
X145375285Y-68952976D01*
X145470523Y-69000595D01*
X145565761Y-69095833D01*
X145613380Y-69238690D01*
X145613380Y-69476785D01*
X145613380Y-67952976D02*
X145613380Y-68524404D01*
X145613380Y-68238690D02*
X144613380Y-68238690D01*
X144756238Y-68333928D01*
X144851476Y-68429166D01*
X144899095Y-68524404D01*
X144613380Y-67619642D02*
X144613380Y-67000595D01*
X144994333Y-67333928D01*
X144994333Y-67191071D01*
X145041952Y-67095833D01*
X145089571Y-67048214D01*
X145184809Y-67000595D01*
X145422904Y-67000595D01*
X145518142Y-67048214D01*
X145565761Y-67095833D01*
X145613380Y-67191071D01*
X145613380Y-67476785D01*
X145565761Y-67572023D01*
X145518142Y-67619642D01*
X148026380Y-69413285D02*
X147026380Y-69413285D01*
X147026380Y-69175190D01*
X147074000Y-69032333D01*
X147169238Y-68937095D01*
X147264476Y-68889476D01*
X147454952Y-68841857D01*
X147597809Y-68841857D01*
X147788285Y-68889476D01*
X147883523Y-68937095D01*
X147978761Y-69032333D01*
X148026380Y-69175190D01*
X148026380Y-69413285D01*
X148026380Y-67889476D02*
X148026380Y-68460904D01*
X148026380Y-68175190D02*
X147026380Y-68175190D01*
X147169238Y-68270428D01*
X147264476Y-68365666D01*
X147312095Y-68460904D01*
X147121619Y-67508523D02*
X147074000Y-67460904D01*
X147026380Y-67365666D01*
X147026380Y-67127571D01*
X147074000Y-67032333D01*
X147121619Y-66984714D01*
X147216857Y-66937095D01*
X147312095Y-66937095D01*
X147454952Y-66984714D01*
X148026380Y-67556142D01*
X148026380Y-66937095D01*
X150820380Y-68556095D02*
X149820380Y-68556095D01*
X149820380Y-68318000D01*
X149868000Y-68175142D01*
X149963238Y-68079904D01*
X150058476Y-68032285D01*
X150248952Y-67984666D01*
X150391809Y-67984666D01*
X150582285Y-68032285D01*
X150677523Y-68079904D01*
X150772761Y-68175142D01*
X150820380Y-68318000D01*
X150820380Y-68556095D01*
X150248952Y-67413238D02*
X150201333Y-67508476D01*
X150153714Y-67556095D01*
X150058476Y-67603714D01*
X150010857Y-67603714D01*
X149915619Y-67556095D01*
X149868000Y-67508476D01*
X149820380Y-67413238D01*
X149820380Y-67222761D01*
X149868000Y-67127523D01*
X149915619Y-67079904D01*
X150010857Y-67032285D01*
X150058476Y-67032285D01*
X150153714Y-67079904D01*
X150201333Y-67127523D01*
X150248952Y-67222761D01*
X150248952Y-67413238D01*
X150296571Y-67508476D01*
X150344190Y-67556095D01*
X150439428Y-67603714D01*
X150629904Y-67603714D01*
X150725142Y-67556095D01*
X150772761Y-67508476D01*
X150820380Y-67413238D01*
X150820380Y-67222761D01*
X150772761Y-67127523D01*
X150725142Y-67079904D01*
X150629904Y-67032285D01*
X150439428Y-67032285D01*
X150344190Y-67079904D01*
X150296571Y-67127523D01*
X150248952Y-67222761D01*
X154630380Y-68810095D02*
X153630380Y-68810095D01*
X153630380Y-68572000D01*
X153678000Y-68429142D01*
X153773238Y-68333904D01*
X153868476Y-68286285D01*
X154058952Y-68238666D01*
X154201809Y-68238666D01*
X154392285Y-68286285D01*
X154487523Y-68333904D01*
X154582761Y-68429142D01*
X154630380Y-68572000D01*
X154630380Y-68810095D01*
X153630380Y-67905333D02*
X153630380Y-67238666D01*
X154630380Y-67667238D01*
X157170380Y-68810095D02*
X156170380Y-68810095D01*
X156170380Y-68572000D01*
X156218000Y-68429142D01*
X156313238Y-68333904D01*
X156408476Y-68286285D01*
X156598952Y-68238666D01*
X156741809Y-68238666D01*
X156932285Y-68286285D01*
X157027523Y-68333904D01*
X157122761Y-68429142D01*
X157170380Y-68572000D01*
X157170380Y-68810095D01*
X156170380Y-67381523D02*
X156170380Y-67572000D01*
X156218000Y-67667238D01*
X156265619Y-67714857D01*
X156408476Y-67810095D01*
X156598952Y-67857714D01*
X156979904Y-67857714D01*
X157075142Y-67810095D01*
X157122761Y-67762476D01*
X157170380Y-67667238D01*
X157170380Y-67476761D01*
X157122761Y-67381523D01*
X157075142Y-67333904D01*
X156979904Y-67286285D01*
X156741809Y-67286285D01*
X156646571Y-67333904D01*
X156598952Y-67381523D01*
X156551333Y-67476761D01*
X156551333Y-67667238D01*
X156598952Y-67762476D01*
X156646571Y-67810095D01*
X156741809Y-67857714D01*
X159456380Y-68810095D02*
X158456380Y-68810095D01*
X158456380Y-68572000D01*
X158504000Y-68429142D01*
X158599238Y-68333904D01*
X158694476Y-68286285D01*
X158884952Y-68238666D01*
X159027809Y-68238666D01*
X159218285Y-68286285D01*
X159313523Y-68333904D01*
X159408761Y-68429142D01*
X159456380Y-68572000D01*
X159456380Y-68810095D01*
X158456380Y-67333904D02*
X158456380Y-67810095D01*
X158932571Y-67857714D01*
X158884952Y-67810095D01*
X158837333Y-67714857D01*
X158837333Y-67476761D01*
X158884952Y-67381523D01*
X158932571Y-67333904D01*
X159027809Y-67286285D01*
X159265904Y-67286285D01*
X159361142Y-67333904D01*
X159408761Y-67381523D01*
X159456380Y-67476761D01*
X159456380Y-67714857D01*
X159408761Y-67810095D01*
X159361142Y-67857714D01*
X162250380Y-68810095D02*
X161250380Y-68810095D01*
X161250380Y-68572000D01*
X161298000Y-68429142D01*
X161393238Y-68333904D01*
X161488476Y-68286285D01*
X161678952Y-68238666D01*
X161821809Y-68238666D01*
X162012285Y-68286285D01*
X162107523Y-68333904D01*
X162202761Y-68429142D01*
X162250380Y-68572000D01*
X162250380Y-68810095D01*
X161583714Y-67381523D02*
X162250380Y-67381523D01*
X161202761Y-67619619D02*
X161917047Y-67857714D01*
X161917047Y-67238666D01*
X164790380Y-68810095D02*
X163790380Y-68810095D01*
X163790380Y-68572000D01*
X163838000Y-68429142D01*
X163933238Y-68333904D01*
X164028476Y-68286285D01*
X164218952Y-68238666D01*
X164361809Y-68238666D01*
X164552285Y-68286285D01*
X164647523Y-68333904D01*
X164742761Y-68429142D01*
X164790380Y-68572000D01*
X164790380Y-68810095D01*
X163790380Y-67905333D02*
X163790380Y-67286285D01*
X164171333Y-67619619D01*
X164171333Y-67476761D01*
X164218952Y-67381523D01*
X164266571Y-67333904D01*
X164361809Y-67286285D01*
X164599904Y-67286285D01*
X164695142Y-67333904D01*
X164742761Y-67381523D01*
X164790380Y-67476761D01*
X164790380Y-67762476D01*
X164742761Y-67857714D01*
X164695142Y-67905333D01*
X167330380Y-68810095D02*
X166330380Y-68810095D01*
X166330380Y-68572000D01*
X166378000Y-68429142D01*
X166473238Y-68333904D01*
X166568476Y-68286285D01*
X166758952Y-68238666D01*
X166901809Y-68238666D01*
X167092285Y-68286285D01*
X167187523Y-68333904D01*
X167282761Y-68429142D01*
X167330380Y-68572000D01*
X167330380Y-68810095D01*
X166425619Y-67857714D02*
X166378000Y-67810095D01*
X166330380Y-67714857D01*
X166330380Y-67476761D01*
X166378000Y-67381523D01*
X166425619Y-67333904D01*
X166520857Y-67286285D01*
X166616095Y-67286285D01*
X166758952Y-67333904D01*
X167330380Y-67905333D01*
X167330380Y-67286285D01*
X168870380Y-69460856D02*
X168870380Y-68889428D01*
X169870380Y-69175142D02*
X168870380Y-69175142D01*
X168870380Y-68651332D02*
X169870380Y-67984666D01*
X168870380Y-67984666D02*
X169870380Y-68651332D01*
X169870380Y-67603713D02*
X168870380Y-67603713D01*
X168870380Y-67365618D01*
X168918000Y-67222761D01*
X169013238Y-67127523D01*
X169108476Y-67079904D01*
X169298952Y-67032285D01*
X169441809Y-67032285D01*
X169632285Y-67079904D01*
X169727523Y-67127523D01*
X169822761Y-67222761D01*
X169870380Y-67365618D01*
X169870380Y-67603713D01*
X172410380Y-68746571D02*
X171934190Y-69079905D01*
X172410380Y-69318000D02*
X171410380Y-69318000D01*
X171410380Y-68937047D01*
X171458000Y-68841809D01*
X171505619Y-68794190D01*
X171600857Y-68746571D01*
X171743714Y-68746571D01*
X171838952Y-68794190D01*
X171886571Y-68841809D01*
X171934190Y-68937047D01*
X171934190Y-69318000D01*
X171410380Y-68413238D02*
X172410380Y-67746571D01*
X171410380Y-67746571D02*
X172410380Y-68413238D01*
X172410380Y-67365619D02*
X171410380Y-67365619D01*
X171410380Y-67127524D01*
X171458000Y-66984666D01*
X171553238Y-66889428D01*
X171648476Y-66841809D01*
X171838952Y-66794190D01*
X171981809Y-66794190D01*
X172172285Y-66841809D01*
X172267523Y-66889428D01*
X172362761Y-66984666D01*
X172410380Y-67127524D01*
X172410380Y-67365619D01*
D14*
X113483428Y-77386571D02*
X113483428Y-75886571D01*
X113983428Y-76958000D01*
X114483428Y-75886571D01*
X114483428Y-77386571D01*
X115197714Y-77386571D02*
X115197714Y-75886571D01*
X115912000Y-77386571D02*
X115912000Y-75886571D01*
X116769142Y-77386571D02*
X116126285Y-76529428D01*
X116769142Y-75886571D02*
X115912000Y-76743714D01*
X118269142Y-77386571D02*
X117769142Y-76672285D01*
X117412000Y-77386571D02*
X117412000Y-75886571D01*
X117983428Y-75886571D01*
X118126285Y-75958000D01*
X118197714Y-76029428D01*
X118269142Y-76172285D01*
X118269142Y-76386571D01*
X118197714Y-76529428D01*
X118126285Y-76600857D01*
X117983428Y-76672285D01*
X117412000Y-76672285D01*
X119197714Y-75886571D02*
X119483428Y-75886571D01*
X119626285Y-75958000D01*
X119769142Y-76100857D01*
X119840571Y-76386571D01*
X119840571Y-76886571D01*
X119769142Y-77172285D01*
X119626285Y-77315142D01*
X119483428Y-77386571D01*
X119197714Y-77386571D01*
X119054857Y-77315142D01*
X118912000Y-77172285D01*
X118840571Y-76886571D01*
X118840571Y-76386571D01*
X118912000Y-76100857D01*
X119054857Y-75958000D01*
X119197714Y-75886571D01*
X120412000Y-76958000D02*
X121126285Y-76958000D01*
X120269142Y-77386571D02*
X120769142Y-75886571D01*
X121269142Y-77386571D01*
X121554857Y-75886571D02*
X122054857Y-77386571D01*
X122554857Y-75886571D01*
X123912000Y-77386571D02*
X123412000Y-76672285D01*
X123054857Y-77386571D02*
X123054857Y-75886571D01*
X123626285Y-75886571D01*
X123769142Y-75958000D01*
X123840571Y-76029428D01*
X123912000Y-76172285D01*
X123912000Y-76386571D01*
X123840571Y-76529428D01*
X123769142Y-76600857D01*
X123626285Y-76672285D01*
X123054857Y-76672285D01*
X124554857Y-77243714D02*
X124626285Y-77315142D01*
X124554857Y-77386571D01*
X124483428Y-77315142D01*
X124554857Y-77243714D01*
X124554857Y-77386571D01*
X126126285Y-77243714D02*
X126054857Y-77315142D01*
X125840571Y-77386571D01*
X125697714Y-77386571D01*
X125483428Y-77315142D01*
X125340571Y-77172285D01*
X125269142Y-77029428D01*
X125197714Y-76743714D01*
X125197714Y-76529428D01*
X125269142Y-76243714D01*
X125340571Y-76100857D01*
X125483428Y-75958000D01*
X125697714Y-75886571D01*
X125840571Y-75886571D01*
X126054857Y-75958000D01*
X126126285Y-76029428D01*
X127054857Y-75886571D02*
X127340571Y-75886571D01*
X127483428Y-75958000D01*
X127626285Y-76100857D01*
X127697714Y-76386571D01*
X127697714Y-76886571D01*
X127626285Y-77172285D01*
X127483428Y-77315142D01*
X127340571Y-77386571D01*
X127054857Y-77386571D01*
X126912000Y-77315142D01*
X126769142Y-77172285D01*
X126697714Y-76886571D01*
X126697714Y-76386571D01*
X126769142Y-76100857D01*
X126912000Y-75958000D01*
X127054857Y-75886571D01*
X128340571Y-77386571D02*
X128340571Y-75886571D01*
X128840571Y-76958000D01*
X129340571Y-75886571D01*
X129340571Y-77386571D01*
X110383643Y-79736071D02*
X110383643Y-78236071D01*
X110955071Y-78236071D01*
X111097928Y-78307500D01*
X111169357Y-78378928D01*
X111240785Y-78521785D01*
X111240785Y-78736071D01*
X111169357Y-78878928D01*
X111097928Y-78950357D01*
X110955071Y-79021785D01*
X110383643Y-79021785D01*
X111883643Y-78950357D02*
X112383643Y-78950357D01*
X112597928Y-79736071D02*
X111883643Y-79736071D01*
X111883643Y-78236071D01*
X112597928Y-78236071D01*
X114097928Y-79736071D02*
X113597928Y-79021785D01*
X113240785Y-79736071D02*
X113240785Y-78236071D01*
X113812214Y-78236071D01*
X113955071Y-78307500D01*
X114026500Y-78378928D01*
X114097928Y-78521785D01*
X114097928Y-78736071D01*
X114026500Y-78878928D01*
X113955071Y-78950357D01*
X113812214Y-79021785D01*
X113240785Y-79021785D01*
X115169357Y-78236071D02*
X115169357Y-79307500D01*
X115097928Y-79521785D01*
X114955071Y-79664642D01*
X114740785Y-79736071D01*
X114597928Y-79736071D01*
X115883643Y-78236071D02*
X115883643Y-79450357D01*
X115955071Y-79593214D01*
X116026500Y-79664642D01*
X116169357Y-79736071D01*
X116455071Y-79736071D01*
X116597928Y-79664642D01*
X116669357Y-79593214D01*
X116740785Y-79450357D01*
X116740785Y-78236071D01*
X117455071Y-79736071D02*
X117455071Y-78236071D01*
X117955071Y-79307500D01*
X118455071Y-78236071D01*
X118455071Y-79736071D01*
X119097928Y-79307500D02*
X119812214Y-79307500D01*
X118955071Y-79736071D02*
X119455071Y-78236071D01*
X119955071Y-79736071D01*
X121597928Y-79736071D02*
X121597928Y-78236071D01*
X121955071Y-78236071D01*
X122169357Y-78307500D01*
X122312214Y-78450357D01*
X122383643Y-78593214D01*
X122455071Y-78878928D01*
X122455071Y-79093214D01*
X122383643Y-79378928D01*
X122312214Y-79521785D01*
X122169357Y-79664642D01*
X121955071Y-79736071D01*
X121597928Y-79736071D01*
X123097928Y-78950357D02*
X123597928Y-78950357D01*
X123812214Y-79736071D02*
X123097928Y-79736071D01*
X123097928Y-78236071D01*
X123812214Y-78236071D01*
X125169357Y-79736071D02*
X124455071Y-79736071D01*
X124455071Y-78236071D01*
X125669357Y-78950357D02*
X126169357Y-78950357D01*
X126383643Y-79736071D02*
X125669357Y-79736071D01*
X125669357Y-78236071D01*
X126383643Y-78236071D01*
X127026500Y-79736071D02*
X127026500Y-78236071D01*
X127883643Y-79736071D01*
X127883643Y-78236071D01*
X129383643Y-78307500D02*
X129240785Y-78236071D01*
X129026500Y-78236071D01*
X128812214Y-78307500D01*
X128669357Y-78450357D01*
X128597928Y-78593214D01*
X128526500Y-78878928D01*
X128526500Y-79093214D01*
X128597928Y-79378928D01*
X128669357Y-79521785D01*
X128812214Y-79664642D01*
X129026500Y-79736071D01*
X129169357Y-79736071D01*
X129383643Y-79664642D01*
X129455071Y-79593214D01*
X129455071Y-79093214D01*
X129169357Y-79093214D01*
D13*
X125728000Y-99460233D02*
X125728000Y-99802767D01*
X126748000Y-99460233D02*
X126748000Y-99802767D01*
X128712500Y-99460233D02*
X128712500Y-99802767D01*
X129732500Y-99460233D02*
X129732500Y-99802767D01*
X131824000Y-99460233D02*
X131824000Y-99802767D01*
X132844000Y-99460233D02*
X132844000Y-99802767D01*
X154880000Y-96460000D02*
X156210000Y-96460000D01*
X154880000Y-97790000D02*
X154880000Y-96460000D01*
X154880000Y-99060000D02*
X157540000Y-99060000D01*
X157540000Y-99060000D02*
X157540000Y-106740000D01*
X154880000Y-99060000D02*
X154880000Y-106740000D01*
X154880000Y-106740000D02*
X157540000Y-106740000D01*
X147033200Y-96460000D02*
X148363200Y-96460000D01*
X147033200Y-97790000D02*
X147033200Y-96460000D01*
X147033200Y-99060000D02*
X149693200Y-99060000D01*
X149693200Y-99060000D02*
X149693200Y-106740000D01*
X147033200Y-99060000D02*
X147033200Y-106740000D01*
X147033200Y-106740000D02*
X149693200Y-106740000D01*
X138573200Y-96460000D02*
X139903200Y-96460000D01*
X138573200Y-97790000D02*
X138573200Y-96460000D01*
X138573200Y-99060000D02*
X141233200Y-99060000D01*
X141233200Y-99060000D02*
X141233200Y-106740000D01*
X138573200Y-99060000D02*
X138573200Y-106740000D01*
X138573200Y-106740000D02*
X141233200Y-106740000D01*
X112906500Y-97137000D02*
X112906500Y-95807000D01*
X114236500Y-97137000D02*
X112906500Y-97137000D01*
X115506500Y-97137000D02*
X115506500Y-94477000D01*
X115506500Y-94477000D02*
X120646500Y-94477000D01*
X115506500Y-97137000D02*
X120646500Y-97137000D01*
X120646500Y-97137000D02*
X120646500Y-94477000D01*
X112906500Y-105597000D02*
X112906500Y-104267000D01*
X114236500Y-105597000D02*
X112906500Y-105597000D01*
X115506500Y-105597000D02*
X115506500Y-102937000D01*
X115506500Y-102937000D02*
X120646500Y-102937000D01*
X115506500Y-105597000D02*
X120646500Y-105597000D01*
X120646500Y-105597000D02*
X120646500Y-102937000D01*
X135034233Y-76138500D02*
X135376767Y-76138500D01*
X135034233Y-75118500D02*
X135376767Y-75118500D01*
X135697500Y-86428733D02*
X135697500Y-86771267D01*
X136717500Y-86428733D02*
X136717500Y-86771267D01*
D17*
X135297500Y-84395000D02*
X135297500Y-78420000D01*
X142197500Y-82870000D02*
X142197500Y-78420000D01*
D13*
X172778500Y-86345500D02*
X172778500Y-85235500D01*
X172778500Y-89135500D02*
X172778500Y-88025500D01*
X176488500Y-86345500D02*
X176488500Y-85235500D01*
X176488500Y-89135500D02*
X176488500Y-88025500D01*
X172228500Y-87185500D02*
X171728500Y-86935500D01*
X171728500Y-86935500D02*
X171728500Y-87435500D01*
X171728500Y-87435500D02*
X172228500Y-87185500D01*
D15*
X166432500Y-88200500D02*
X166432500Y-88000500D01*
X166432500Y-72200500D02*
X166432500Y-72400500D01*
X166432500Y-86000500D02*
X166432500Y-86400500D01*
X166432500Y-84000500D02*
X166432500Y-84400500D01*
X166432500Y-82000500D02*
X166432500Y-82400500D01*
X166432500Y-80000500D02*
X166432500Y-80400500D01*
X166432500Y-78000500D02*
X166432500Y-78400500D01*
X166432500Y-76000500D02*
X166432500Y-76400500D01*
X166432500Y-74000500D02*
X166432500Y-74400500D01*
X150432500Y-88200500D02*
X150432500Y-88000500D01*
X150432500Y-72200500D02*
X150432500Y-72400500D01*
X150432500Y-86000500D02*
X150432500Y-86400500D01*
X150432500Y-84000500D02*
X150432500Y-84400500D01*
X150432500Y-82000500D02*
X150432500Y-82400500D01*
X150432500Y-80000500D02*
X150432500Y-80400500D01*
X150432500Y-78000500D02*
X150432500Y-78400500D01*
X150432500Y-76000500D02*
X150432500Y-76400500D01*
X150432500Y-74000500D02*
X150432500Y-74400500D01*
X166432500Y-88200500D02*
X150432500Y-88200500D01*
X150432500Y-72200500D02*
X166432500Y-72200500D01*
D13*
X171785500Y-98555500D02*
X173115500Y-98555500D01*
X171785500Y-99885500D02*
X171785500Y-98555500D01*
X171785500Y-101155500D02*
X174445500Y-101155500D01*
X174445500Y-101155500D02*
X174445500Y-108835500D01*
X171785500Y-101155500D02*
X171785500Y-108835500D01*
X171785500Y-108835500D02*
X174445500Y-108835500D01*
X164595500Y-98555500D02*
X165925500Y-98555500D01*
X164595500Y-99885500D02*
X164595500Y-98555500D01*
X164595500Y-101155500D02*
X167255500Y-101155500D01*
X167255500Y-101155500D02*
X167255500Y-108835500D01*
X164595500Y-101155500D02*
X164595500Y-108835500D01*
X164595500Y-108835500D02*
X167255500Y-108835500D01*
X155381000Y-113538000D02*
X155381000Y-114868000D01*
X155381000Y-114868000D02*
X154051000Y-114868000D01*
X152781000Y-114868000D02*
X134941000Y-114868000D01*
X134941000Y-112208000D02*
X134941000Y-114868000D01*
X152781000Y-112208000D02*
X134941000Y-112208000D01*
X152781000Y-112208000D02*
X152781000Y-114868000D01*
X157801000Y-113538000D02*
X157801000Y-112208000D01*
X157801000Y-112208000D02*
X159131000Y-112208000D01*
X160401000Y-112208000D02*
X173161000Y-112208000D01*
X173161000Y-114868000D02*
X173161000Y-112208000D01*
X160401000Y-114868000D02*
X173161000Y-114868000D01*
X160401000Y-114868000D02*
X160401000Y-112208000D01*
X151317000Y-65278000D02*
X151317000Y-66608000D01*
X151317000Y-66608000D02*
X149987000Y-66608000D01*
X148717000Y-66608000D02*
X130877000Y-66608000D01*
X130877000Y-63948000D02*
X130877000Y-66608000D01*
X148717000Y-63948000D02*
X130877000Y-63948000D01*
X148717000Y-63948000D02*
X148717000Y-66608000D01*
X173161000Y-65278000D02*
X173161000Y-66608000D01*
X173161000Y-66608000D02*
X171831000Y-66608000D01*
X170561000Y-66608000D02*
X152721000Y-66608000D01*
X152721000Y-63948000D02*
X152721000Y-66608000D01*
X170561000Y-63948000D02*
X152721000Y-63948000D01*
X170561000Y-63948000D02*
X170561000Y-66608000D01*
D17*
X128120380Y-99798166D02*
X127644190Y-100131500D01*
X128120380Y-100369595D02*
X127120380Y-100369595D01*
X127120380Y-99988642D01*
X127168000Y-99893404D01*
X127215619Y-99845785D01*
X127310857Y-99798166D01*
X127453714Y-99798166D01*
X127548952Y-99845785D01*
X127596571Y-99893404D01*
X127644190Y-99988642D01*
X127644190Y-100369595D01*
X127120380Y-99464833D02*
X127120380Y-98845785D01*
X127501333Y-99179119D01*
X127501333Y-99036261D01*
X127548952Y-98941023D01*
X127596571Y-98893404D01*
X127691809Y-98845785D01*
X127929904Y-98845785D01*
X128025142Y-98893404D01*
X128072761Y-98941023D01*
X128120380Y-99036261D01*
X128120380Y-99321976D01*
X128072761Y-99417214D01*
X128025142Y-99464833D01*
X131104880Y-99798166D02*
X130628690Y-100131500D01*
X131104880Y-100369595D02*
X130104880Y-100369595D01*
X130104880Y-99988642D01*
X130152500Y-99893404D01*
X130200119Y-99845785D01*
X130295357Y-99798166D01*
X130438214Y-99798166D01*
X130533452Y-99845785D01*
X130581071Y-99893404D01*
X130628690Y-99988642D01*
X130628690Y-100369595D01*
X130200119Y-99417214D02*
X130152500Y-99369595D01*
X130104880Y-99274357D01*
X130104880Y-99036261D01*
X130152500Y-98941023D01*
X130200119Y-98893404D01*
X130295357Y-98845785D01*
X130390595Y-98845785D01*
X130533452Y-98893404D01*
X131104880Y-99464833D01*
X131104880Y-98845785D01*
X134216380Y-99798166D02*
X133740190Y-100131500D01*
X134216380Y-100369595D02*
X133216380Y-100369595D01*
X133216380Y-99988642D01*
X133264000Y-99893404D01*
X133311619Y-99845785D01*
X133406857Y-99798166D01*
X133549714Y-99798166D01*
X133644952Y-99845785D01*
X133692571Y-99893404D01*
X133740190Y-99988642D01*
X133740190Y-100369595D01*
X134216380Y-98845785D02*
X134216380Y-99417214D01*
X134216380Y-99131500D02*
X133216380Y-99131500D01*
X133359238Y-99226738D01*
X133454476Y-99321976D01*
X133502095Y-99417214D01*
X154757619Y-95912380D02*
X154757619Y-94912380D01*
X155186190Y-95007619D02*
X155233809Y-94960000D01*
X155329047Y-94912380D01*
X155567142Y-94912380D01*
X155662380Y-94960000D01*
X155710000Y-95007619D01*
X155757619Y-95102857D01*
X155757619Y-95198095D01*
X155710000Y-95340952D01*
X155138571Y-95912380D01*
X155757619Y-95912380D01*
X156757619Y-95817142D02*
X156710000Y-95864761D01*
X156567142Y-95912380D01*
X156471904Y-95912380D01*
X156329047Y-95864761D01*
X156233809Y-95769523D01*
X156186190Y-95674285D01*
X156138571Y-95483809D01*
X156138571Y-95340952D01*
X156186190Y-95150476D01*
X156233809Y-95055238D01*
X156329047Y-94960000D01*
X156471904Y-94912380D01*
X156567142Y-94912380D01*
X156710000Y-94960000D01*
X156757619Y-95007619D01*
X157614761Y-95245714D02*
X157614761Y-95912380D01*
X157376666Y-94864761D02*
X157138571Y-95579047D01*
X157757619Y-95579047D01*
X146910819Y-95912380D02*
X146910819Y-94912380D01*
X147339390Y-95007619D02*
X147387009Y-94960000D01*
X147482247Y-94912380D01*
X147720342Y-94912380D01*
X147815580Y-94960000D01*
X147863200Y-95007619D01*
X147910819Y-95102857D01*
X147910819Y-95198095D01*
X147863200Y-95340952D01*
X147291771Y-95912380D01*
X147910819Y-95912380D01*
X148910819Y-95817142D02*
X148863200Y-95864761D01*
X148720342Y-95912380D01*
X148625104Y-95912380D01*
X148482247Y-95864761D01*
X148387009Y-95769523D01*
X148339390Y-95674285D01*
X148291771Y-95483809D01*
X148291771Y-95340952D01*
X148339390Y-95150476D01*
X148387009Y-95055238D01*
X148482247Y-94960000D01*
X148625104Y-94912380D01*
X148720342Y-94912380D01*
X148863200Y-94960000D01*
X148910819Y-95007619D01*
X149244152Y-94912380D02*
X149863200Y-94912380D01*
X149529866Y-95293333D01*
X149672723Y-95293333D01*
X149767961Y-95340952D01*
X149815580Y-95388571D01*
X149863200Y-95483809D01*
X149863200Y-95721904D01*
X149815580Y-95817142D01*
X149767961Y-95864761D01*
X149672723Y-95912380D01*
X149387009Y-95912380D01*
X149291771Y-95864761D01*
X149244152Y-95817142D01*
X138450819Y-95912380D02*
X138450819Y-94912380D01*
X138879390Y-95007619D02*
X138927009Y-94960000D01*
X139022247Y-94912380D01*
X139260342Y-94912380D01*
X139355580Y-94960000D01*
X139403200Y-95007619D01*
X139450819Y-95102857D01*
X139450819Y-95198095D01*
X139403200Y-95340952D01*
X138831771Y-95912380D01*
X139450819Y-95912380D01*
X140450819Y-95817142D02*
X140403200Y-95864761D01*
X140260342Y-95912380D01*
X140165104Y-95912380D01*
X140022247Y-95864761D01*
X139927009Y-95769523D01*
X139879390Y-95674285D01*
X139831771Y-95483809D01*
X139831771Y-95340952D01*
X139879390Y-95150476D01*
X139927009Y-95055238D01*
X140022247Y-94960000D01*
X140165104Y-94912380D01*
X140260342Y-94912380D01*
X140403200Y-94960000D01*
X140450819Y-95007619D01*
X140831771Y-95007619D02*
X140879390Y-94960000D01*
X140974628Y-94912380D01*
X141212723Y-94912380D01*
X141307961Y-94960000D01*
X141355580Y-95007619D01*
X141403200Y-95102857D01*
X141403200Y-95198095D01*
X141355580Y-95340952D01*
X140784152Y-95912380D01*
X141403200Y-95912380D01*
X112798266Y-98105980D02*
X112798266Y-98820266D01*
X112750647Y-98963123D01*
X112655409Y-99058361D01*
X112512552Y-99105980D01*
X112417314Y-99105980D01*
X113179219Y-98105980D02*
X113845885Y-98105980D01*
X113417314Y-99105980D01*
X112638152Y-107386380D02*
X112638152Y-106386380D01*
X112876247Y-106386380D01*
X113019104Y-106434000D01*
X113114342Y-106529238D01*
X113161961Y-106624476D01*
X113209580Y-106814952D01*
X113209580Y-106957809D01*
X113161961Y-107148285D01*
X113114342Y-107243523D01*
X113019104Y-107338761D01*
X112876247Y-107386380D01*
X112638152Y-107386380D01*
X113638152Y-107386380D02*
X113638152Y-106386380D01*
X113638152Y-106862571D02*
X114209580Y-106862571D01*
X114209580Y-107386380D02*
X114209580Y-106386380D01*
X114542914Y-106386380D02*
X115114342Y-106386380D01*
X114828628Y-107386380D02*
X114828628Y-106386380D01*
X115400057Y-106481619D02*
X115447676Y-106434000D01*
X115542914Y-106386380D01*
X115781009Y-106386380D01*
X115876247Y-106434000D01*
X115923866Y-106481619D01*
X115971485Y-106576857D01*
X115971485Y-106672095D01*
X115923866Y-106814952D01*
X115352438Y-107386380D01*
X115971485Y-107386380D01*
X116923866Y-107386380D02*
X116352438Y-107386380D01*
X116638152Y-107386380D02*
X116638152Y-106386380D01*
X116542914Y-106529238D01*
X116447676Y-106624476D01*
X116352438Y-106672095D01*
X135038833Y-74555642D02*
X134991214Y-74603261D01*
X134848357Y-74650880D01*
X134753119Y-74650880D01*
X134610261Y-74603261D01*
X134515023Y-74508023D01*
X134467404Y-74412785D01*
X134419785Y-74222309D01*
X134419785Y-74079452D01*
X134467404Y-73888976D01*
X134515023Y-73793738D01*
X134610261Y-73698500D01*
X134753119Y-73650880D01*
X134848357Y-73650880D01*
X134991214Y-73698500D01*
X135038833Y-73746119D01*
X135419785Y-73746119D02*
X135467404Y-73698500D01*
X135562642Y-73650880D01*
X135800738Y-73650880D01*
X135895976Y-73698500D01*
X135943595Y-73746119D01*
X135991214Y-73841357D01*
X135991214Y-73936595D01*
X135943595Y-74079452D01*
X135372166Y-74650880D01*
X135991214Y-74650880D01*
X137994642Y-86766666D02*
X138042261Y-86814285D01*
X138089880Y-86957142D01*
X138089880Y-87052380D01*
X138042261Y-87195238D01*
X137947023Y-87290476D01*
X137851785Y-87338095D01*
X137661309Y-87385714D01*
X137518452Y-87385714D01*
X137327976Y-87338095D01*
X137232738Y-87290476D01*
X137137500Y-87195238D01*
X137089880Y-87052380D01*
X137089880Y-86957142D01*
X137137500Y-86814285D01*
X137185119Y-86766666D01*
X138089880Y-85814285D02*
X138089880Y-86385714D01*
X138089880Y-86100000D02*
X137089880Y-86100000D01*
X137232738Y-86195238D01*
X137327976Y-86290476D01*
X137375595Y-86385714D01*
X133899880Y-81406904D02*
X134709404Y-81406904D01*
X134804642Y-81359285D01*
X134852261Y-81311666D01*
X134899880Y-81216428D01*
X134899880Y-81025952D01*
X134852261Y-80930714D01*
X134804642Y-80883095D01*
X134709404Y-80835476D01*
X133899880Y-80835476D01*
X133995119Y-80406904D02*
X133947500Y-80359285D01*
X133899880Y-80264047D01*
X133899880Y-80025952D01*
X133947500Y-79930714D01*
X133995119Y-79883095D01*
X134090357Y-79835476D01*
X134185595Y-79835476D01*
X134328452Y-79883095D01*
X134899880Y-80454523D01*
X134899880Y-79835476D01*
X170440880Y-87518833D02*
X171155166Y-87518833D01*
X171298023Y-87566452D01*
X171393261Y-87661690D01*
X171440880Y-87804547D01*
X171440880Y-87899785D01*
X171440880Y-86518833D02*
X171440880Y-87090261D01*
X171440880Y-86804547D02*
X170440880Y-86804547D01*
X170583738Y-86899785D01*
X170678976Y-86995023D01*
X170726595Y-87090261D01*
D18*
X157670595Y-69492880D02*
X157670595Y-70302404D01*
X157718214Y-70397642D01*
X157765833Y-70445261D01*
X157861071Y-70492880D01*
X158051547Y-70492880D01*
X158146785Y-70445261D01*
X158194404Y-70397642D01*
X158242023Y-70302404D01*
X158242023Y-69492880D01*
X159242023Y-70492880D02*
X158670595Y-70492880D01*
X158956309Y-70492880D02*
X158956309Y-69492880D01*
X158861071Y-69635738D01*
X158765833Y-69730976D01*
X158670595Y-69778595D01*
X162518214Y-87333833D02*
X162899166Y-87333833D01*
X162442023Y-87562404D02*
X162708690Y-86762404D01*
X162975357Y-87562404D01*
X163242023Y-87562404D02*
X163242023Y-86762404D01*
X163699166Y-87562404D01*
X163699166Y-86762404D01*
X163965833Y-86762404D02*
X164422976Y-86762404D01*
X164194404Y-87562404D02*
X164194404Y-86762404D01*
X162822976Y-84800500D02*
X162746785Y-84762404D01*
X162632500Y-84762404D01*
X162518214Y-84800500D01*
X162442023Y-84876690D01*
X162403928Y-84952880D01*
X162365833Y-85105261D01*
X162365833Y-85219547D01*
X162403928Y-85371928D01*
X162442023Y-85448119D01*
X162518214Y-85524309D01*
X162632500Y-85562404D01*
X162708690Y-85562404D01*
X162822976Y-85524309D01*
X162861071Y-85486214D01*
X162861071Y-85219547D01*
X162708690Y-85219547D01*
X163203928Y-85562404D02*
X163203928Y-84762404D01*
X163661071Y-85562404D01*
X163661071Y-84762404D01*
X164042023Y-85562404D02*
X164042023Y-84762404D01*
X164232500Y-84762404D01*
X164346785Y-84800500D01*
X164422976Y-84876690D01*
X164461071Y-84952880D01*
X164499166Y-85105261D01*
X164499166Y-85219547D01*
X164461071Y-85371928D01*
X164422976Y-85448119D01*
X164346785Y-85524309D01*
X164232500Y-85562404D01*
X164042023Y-85562404D01*
X162232500Y-83562404D02*
X162232500Y-82762404D01*
X162422976Y-82762404D01*
X162537261Y-82800500D01*
X162613452Y-82876690D01*
X162651547Y-82952880D01*
X162689642Y-83105261D01*
X162689642Y-83219547D01*
X162651547Y-83371928D01*
X162613452Y-83448119D01*
X162537261Y-83524309D01*
X162422976Y-83562404D01*
X162232500Y-83562404D01*
X163032500Y-83562404D02*
X163032500Y-82762404D01*
X163565833Y-82762404D02*
X163718214Y-82762404D01*
X163794404Y-82800500D01*
X163870595Y-82876690D01*
X163908690Y-83029071D01*
X163908690Y-83295738D01*
X163870595Y-83448119D01*
X163794404Y-83524309D01*
X163718214Y-83562404D01*
X163565833Y-83562404D01*
X163489642Y-83524309D01*
X163413452Y-83448119D01*
X163375357Y-83295738D01*
X163375357Y-83029071D01*
X163413452Y-82876690D01*
X163489642Y-82800500D01*
X163565833Y-82762404D01*
X164175357Y-82762404D02*
X164670595Y-82762404D01*
X164403928Y-83067166D01*
X164518214Y-83067166D01*
X164594404Y-83105261D01*
X164632500Y-83143357D01*
X164670595Y-83219547D01*
X164670595Y-83410023D01*
X164632500Y-83486214D01*
X164594404Y-83524309D01*
X164518214Y-83562404D01*
X164289642Y-83562404D01*
X164213452Y-83524309D01*
X164175357Y-83486214D01*
X162232500Y-81562404D02*
X162232500Y-80762404D01*
X162422976Y-80762404D01*
X162537261Y-80800500D01*
X162613452Y-80876690D01*
X162651547Y-80952880D01*
X162689642Y-81105261D01*
X162689642Y-81219547D01*
X162651547Y-81371928D01*
X162613452Y-81448119D01*
X162537261Y-81524309D01*
X162422976Y-81562404D01*
X162232500Y-81562404D01*
X163032500Y-81562404D02*
X163032500Y-80762404D01*
X163565833Y-80762404D02*
X163718214Y-80762404D01*
X163794404Y-80800500D01*
X163870595Y-80876690D01*
X163908690Y-81029071D01*
X163908690Y-81295738D01*
X163870595Y-81448119D01*
X163794404Y-81524309D01*
X163718214Y-81562404D01*
X163565833Y-81562404D01*
X163489642Y-81524309D01*
X163413452Y-81448119D01*
X163375357Y-81295738D01*
X163375357Y-81029071D01*
X163413452Y-80876690D01*
X163489642Y-80800500D01*
X163565833Y-80762404D01*
X164594404Y-81029071D02*
X164594404Y-81562404D01*
X164403928Y-80724309D02*
X164213452Y-81295738D01*
X164708690Y-81295738D01*
X162251547Y-78762404D02*
X162746785Y-78762404D01*
X162480119Y-79067166D01*
X162594404Y-79067166D01*
X162670595Y-79105261D01*
X162708690Y-79143357D01*
X162746785Y-79219547D01*
X162746785Y-79410023D01*
X162708690Y-79486214D01*
X162670595Y-79524309D01*
X162594404Y-79562404D01*
X162365833Y-79562404D01*
X162289642Y-79524309D01*
X162251547Y-79486214D01*
X163089642Y-79486214D02*
X163127738Y-79524309D01*
X163089642Y-79562404D01*
X163051547Y-79524309D01*
X163089642Y-79486214D01*
X163089642Y-79562404D01*
X163394404Y-78762404D02*
X163889642Y-78762404D01*
X163622976Y-79067166D01*
X163737261Y-79067166D01*
X163813452Y-79105261D01*
X163851547Y-79143357D01*
X163889642Y-79219547D01*
X163889642Y-79410023D01*
X163851547Y-79486214D01*
X163813452Y-79524309D01*
X163737261Y-79562404D01*
X163508690Y-79562404D01*
X163432500Y-79524309D01*
X163394404Y-79486214D01*
X164118214Y-78762404D02*
X164384880Y-79562404D01*
X164651547Y-78762404D01*
X162232500Y-77562404D02*
X162232500Y-76762404D01*
X162422976Y-76762404D01*
X162537261Y-76800500D01*
X162613452Y-76876690D01*
X162651547Y-76952880D01*
X162689642Y-77105261D01*
X162689642Y-77219547D01*
X162651547Y-77371928D01*
X162613452Y-77448119D01*
X162537261Y-77524309D01*
X162422976Y-77562404D01*
X162232500Y-77562404D01*
X163032500Y-77562404D02*
X163032500Y-76762404D01*
X163565833Y-76762404D02*
X163718214Y-76762404D01*
X163794404Y-76800500D01*
X163870595Y-76876690D01*
X163908690Y-77029071D01*
X163908690Y-77295738D01*
X163870595Y-77448119D01*
X163794404Y-77524309D01*
X163718214Y-77562404D01*
X163565833Y-77562404D01*
X163489642Y-77524309D01*
X163413452Y-77448119D01*
X163375357Y-77295738D01*
X163375357Y-77029071D01*
X163413452Y-76876690D01*
X163489642Y-76800500D01*
X163565833Y-76762404D01*
X164403928Y-76762404D02*
X164480119Y-76762404D01*
X164556309Y-76800500D01*
X164594404Y-76838595D01*
X164632500Y-76914785D01*
X164670595Y-77067166D01*
X164670595Y-77257642D01*
X164632500Y-77410023D01*
X164594404Y-77486214D01*
X164556309Y-77524309D01*
X164480119Y-77562404D01*
X164403928Y-77562404D01*
X164327738Y-77524309D01*
X164289642Y-77486214D01*
X164251547Y-77410023D01*
X164213452Y-77257642D01*
X164213452Y-77067166D01*
X164251547Y-76914785D01*
X164289642Y-76838595D01*
X164327738Y-76800500D01*
X164403928Y-76762404D01*
X162232500Y-75562404D02*
X162232500Y-74762404D01*
X162422976Y-74762404D01*
X162537261Y-74800500D01*
X162613452Y-74876690D01*
X162651547Y-74952880D01*
X162689642Y-75105261D01*
X162689642Y-75219547D01*
X162651547Y-75371928D01*
X162613452Y-75448119D01*
X162537261Y-75524309D01*
X162422976Y-75562404D01*
X162232500Y-75562404D01*
X163032500Y-75562404D02*
X163032500Y-74762404D01*
X163565833Y-74762404D02*
X163718214Y-74762404D01*
X163794404Y-74800500D01*
X163870595Y-74876690D01*
X163908690Y-75029071D01*
X163908690Y-75295738D01*
X163870595Y-75448119D01*
X163794404Y-75524309D01*
X163718214Y-75562404D01*
X163565833Y-75562404D01*
X163489642Y-75524309D01*
X163413452Y-75448119D01*
X163375357Y-75295738D01*
X163375357Y-75029071D01*
X163413452Y-74876690D01*
X163489642Y-74800500D01*
X163565833Y-74762404D01*
X164670595Y-75562404D02*
X164213452Y-75562404D01*
X164442023Y-75562404D02*
X164442023Y-74762404D01*
X164365833Y-74876690D01*
X164289642Y-74952880D01*
X164213452Y-74990976D01*
X162232500Y-73562404D02*
X162232500Y-72762404D01*
X162422976Y-72762404D01*
X162537261Y-72800500D01*
X162613452Y-72876690D01*
X162651547Y-72952880D01*
X162689642Y-73105261D01*
X162689642Y-73219547D01*
X162651547Y-73371928D01*
X162613452Y-73448119D01*
X162537261Y-73524309D01*
X162422976Y-73562404D01*
X162232500Y-73562404D01*
X163032500Y-73562404D02*
X163032500Y-72762404D01*
X163565833Y-72762404D02*
X163718214Y-72762404D01*
X163794404Y-72800500D01*
X163870595Y-72876690D01*
X163908690Y-73029071D01*
X163908690Y-73295738D01*
X163870595Y-73448119D01*
X163794404Y-73524309D01*
X163718214Y-73562404D01*
X163565833Y-73562404D01*
X163489642Y-73524309D01*
X163413452Y-73448119D01*
X163375357Y-73295738D01*
X163375357Y-73029071D01*
X163413452Y-72876690D01*
X163489642Y-72800500D01*
X163565833Y-72762404D01*
X164213452Y-72838595D02*
X164251547Y-72800500D01*
X164327738Y-72762404D01*
X164518214Y-72762404D01*
X164594404Y-72800500D01*
X164632500Y-72838595D01*
X164670595Y-72914785D01*
X164670595Y-72990976D01*
X164632500Y-73105261D01*
X164175357Y-73562404D01*
X164670595Y-73562404D01*
X152822976Y-86800500D02*
X152746785Y-86762404D01*
X152632500Y-86762404D01*
X152518214Y-86800500D01*
X152442023Y-86876690D01*
X152403928Y-86952880D01*
X152365833Y-87105261D01*
X152365833Y-87219547D01*
X152403928Y-87371928D01*
X152442023Y-87448119D01*
X152518214Y-87524309D01*
X152632500Y-87562404D01*
X152708690Y-87562404D01*
X152822976Y-87524309D01*
X152861071Y-87486214D01*
X152861071Y-87219547D01*
X152708690Y-87219547D01*
X153203928Y-87562404D02*
X153203928Y-86762404D01*
X153661071Y-87562404D01*
X153661071Y-86762404D01*
X154042023Y-87562404D02*
X154042023Y-86762404D01*
X154232500Y-86762404D01*
X154346785Y-86800500D01*
X154422976Y-86876690D01*
X154461071Y-86952880D01*
X154499166Y-87105261D01*
X154499166Y-87219547D01*
X154461071Y-87371928D01*
X154422976Y-87448119D01*
X154346785Y-87524309D01*
X154232500Y-87562404D01*
X154042023Y-87562404D01*
X152232500Y-85562404D02*
X152232500Y-84762404D01*
X152422976Y-84762404D01*
X152537261Y-84800500D01*
X152613452Y-84876690D01*
X152651547Y-84952880D01*
X152689642Y-85105261D01*
X152689642Y-85219547D01*
X152651547Y-85371928D01*
X152613452Y-85448119D01*
X152537261Y-85524309D01*
X152422976Y-85562404D01*
X152232500Y-85562404D01*
X153032500Y-85562404D02*
X153032500Y-84762404D01*
X153565833Y-84762404D02*
X153718214Y-84762404D01*
X153794404Y-84800500D01*
X153870595Y-84876690D01*
X153908690Y-85029071D01*
X153908690Y-85295738D01*
X153870595Y-85448119D01*
X153794404Y-85524309D01*
X153718214Y-85562404D01*
X153565833Y-85562404D01*
X153489642Y-85524309D01*
X153413452Y-85448119D01*
X153375357Y-85295738D01*
X153375357Y-85029071D01*
X153413452Y-84876690D01*
X153489642Y-84800500D01*
X153565833Y-84762404D01*
X154632500Y-84762404D02*
X154251547Y-84762404D01*
X154213452Y-85143357D01*
X154251547Y-85105261D01*
X154327738Y-85067166D01*
X154518214Y-85067166D01*
X154594404Y-85105261D01*
X154632500Y-85143357D01*
X154670595Y-85219547D01*
X154670595Y-85410023D01*
X154632500Y-85486214D01*
X154594404Y-85524309D01*
X154518214Y-85562404D01*
X154327738Y-85562404D01*
X154251547Y-85524309D01*
X154213452Y-85486214D01*
X152994404Y-83562404D02*
X152727738Y-83181452D01*
X152537261Y-83562404D02*
X152537261Y-82762404D01*
X152842023Y-82762404D01*
X152918214Y-82800500D01*
X152956309Y-82838595D01*
X152994404Y-82914785D01*
X152994404Y-83029071D01*
X152956309Y-83105261D01*
X152918214Y-83143357D01*
X152842023Y-83181452D01*
X152537261Y-83181452D01*
X153299166Y-83524309D02*
X153413452Y-83562404D01*
X153603928Y-83562404D01*
X153680119Y-83524309D01*
X153718214Y-83486214D01*
X153756309Y-83410023D01*
X153756309Y-83333833D01*
X153718214Y-83257642D01*
X153680119Y-83219547D01*
X153603928Y-83181452D01*
X153451547Y-83143357D01*
X153375357Y-83105261D01*
X153337261Y-83067166D01*
X153299166Y-82990976D01*
X153299166Y-82914785D01*
X153337261Y-82838595D01*
X153375357Y-82800500D01*
X153451547Y-82762404D01*
X153642023Y-82762404D01*
X153756309Y-82800500D01*
X153984880Y-82762404D02*
X154442023Y-82762404D01*
X154213452Y-83562404D02*
X154213452Y-82762404D01*
X152442023Y-81562404D02*
X152442023Y-80762404D01*
X152899166Y-81562404D01*
X152899166Y-80762404D01*
X153242023Y-81524309D02*
X153356309Y-81562404D01*
X153546785Y-81562404D01*
X153622976Y-81524309D01*
X153661071Y-81486214D01*
X153699166Y-81410023D01*
X153699166Y-81333833D01*
X153661071Y-81257642D01*
X153622976Y-81219547D01*
X153546785Y-81181452D01*
X153394404Y-81143357D01*
X153318214Y-81105261D01*
X153280119Y-81067166D01*
X153242023Y-80990976D01*
X153242023Y-80914785D01*
X153280119Y-80838595D01*
X153318214Y-80800500D01*
X153394404Y-80762404D01*
X153584880Y-80762404D01*
X153699166Y-80800500D01*
X154003928Y-81524309D02*
X154118214Y-81562404D01*
X154308690Y-81562404D01*
X154384880Y-81524309D01*
X154422976Y-81486214D01*
X154461071Y-81410023D01*
X154461071Y-81333833D01*
X154422976Y-81257642D01*
X154384880Y-81219547D01*
X154308690Y-81181452D01*
X154156309Y-81143357D01*
X154080119Y-81105261D01*
X154042023Y-81067166D01*
X154003928Y-80990976D01*
X154003928Y-80914785D01*
X154042023Y-80838595D01*
X154080119Y-80800500D01*
X154156309Y-80762404D01*
X154346785Y-80762404D01*
X154461071Y-80800500D01*
X152403928Y-79524309D02*
X152518214Y-79562404D01*
X152708690Y-79562404D01*
X152784880Y-79524309D01*
X152822976Y-79486214D01*
X152861071Y-79410023D01*
X152861071Y-79333833D01*
X152822976Y-79257642D01*
X152784880Y-79219547D01*
X152708690Y-79181452D01*
X152556309Y-79143357D01*
X152480119Y-79105261D01*
X152442023Y-79067166D01*
X152403928Y-78990976D01*
X152403928Y-78914785D01*
X152442023Y-78838595D01*
X152480119Y-78800500D01*
X152556309Y-78762404D01*
X152746785Y-78762404D01*
X152861071Y-78800500D01*
X153661071Y-79486214D02*
X153622976Y-79524309D01*
X153508690Y-79562404D01*
X153432500Y-79562404D01*
X153318214Y-79524309D01*
X153242023Y-79448119D01*
X153203928Y-79371928D01*
X153165833Y-79219547D01*
X153165833Y-79105261D01*
X153203928Y-78952880D01*
X153242023Y-78876690D01*
X153318214Y-78800500D01*
X153432500Y-78762404D01*
X153508690Y-78762404D01*
X153622976Y-78800500D01*
X153661071Y-78838595D01*
X154003928Y-79562404D02*
X154003928Y-78762404D01*
X154461071Y-79562404D02*
X154118214Y-79105261D01*
X154461071Y-78762404D02*
X154003928Y-79219547D01*
X152175357Y-77562404D02*
X152175357Y-76762404D01*
X152442023Y-77333833D01*
X152708690Y-76762404D01*
X152708690Y-77562404D01*
X153242023Y-76762404D02*
X153394404Y-76762404D01*
X153470595Y-76800500D01*
X153546785Y-76876690D01*
X153584880Y-77029071D01*
X153584880Y-77295738D01*
X153546785Y-77448119D01*
X153470595Y-77524309D01*
X153394404Y-77562404D01*
X153242023Y-77562404D01*
X153165833Y-77524309D01*
X153089642Y-77448119D01*
X153051547Y-77295738D01*
X153051547Y-77029071D01*
X153089642Y-76876690D01*
X153165833Y-76800500D01*
X153242023Y-76762404D01*
X153889642Y-77524309D02*
X154003928Y-77562404D01*
X154194404Y-77562404D01*
X154270595Y-77524309D01*
X154308690Y-77486214D01*
X154346785Y-77410023D01*
X154346785Y-77333833D01*
X154308690Y-77257642D01*
X154270595Y-77219547D01*
X154194404Y-77181452D01*
X154042023Y-77143357D01*
X153965833Y-77105261D01*
X153927738Y-77067166D01*
X153889642Y-76990976D01*
X153889642Y-76914785D01*
X153927738Y-76838595D01*
X153965833Y-76800500D01*
X154042023Y-76762404D01*
X154232500Y-76762404D01*
X154346785Y-76800500D01*
X154689642Y-77562404D02*
X154689642Y-76762404D01*
X152175357Y-75562404D02*
X152175357Y-74762404D01*
X152442023Y-75333833D01*
X152708690Y-74762404D01*
X152708690Y-75562404D01*
X153089642Y-75562404D02*
X153089642Y-74762404D01*
X153432500Y-75524309D02*
X153546785Y-75562404D01*
X153737261Y-75562404D01*
X153813452Y-75524309D01*
X153851547Y-75486214D01*
X153889642Y-75410023D01*
X153889642Y-75333833D01*
X153851547Y-75257642D01*
X153813452Y-75219547D01*
X153737261Y-75181452D01*
X153584880Y-75143357D01*
X153508690Y-75105261D01*
X153470595Y-75067166D01*
X153432500Y-74990976D01*
X153432500Y-74914785D01*
X153470595Y-74838595D01*
X153508690Y-74800500D01*
X153584880Y-74762404D01*
X153775357Y-74762404D01*
X153889642Y-74800500D01*
X154384880Y-74762404D02*
X154537261Y-74762404D01*
X154613452Y-74800500D01*
X154689642Y-74876690D01*
X154727738Y-75029071D01*
X154727738Y-75295738D01*
X154689642Y-75448119D01*
X154613452Y-75524309D01*
X154537261Y-75562404D01*
X154384880Y-75562404D01*
X154308690Y-75524309D01*
X154232500Y-75448119D01*
X154194404Y-75295738D01*
X154194404Y-75029071D01*
X154232500Y-74876690D01*
X154308690Y-74800500D01*
X154384880Y-74762404D01*
X152822976Y-72800500D02*
X152746785Y-72762404D01*
X152632500Y-72762404D01*
X152518214Y-72800500D01*
X152442023Y-72876690D01*
X152403928Y-72952880D01*
X152365833Y-73105261D01*
X152365833Y-73219547D01*
X152403928Y-73371928D01*
X152442023Y-73448119D01*
X152518214Y-73524309D01*
X152632500Y-73562404D01*
X152708690Y-73562404D01*
X152822976Y-73524309D01*
X152861071Y-73486214D01*
X152861071Y-73219547D01*
X152708690Y-73219547D01*
X153203928Y-73562404D02*
X153203928Y-72762404D01*
X153661071Y-73562404D01*
X153661071Y-72762404D01*
X154042023Y-73562404D02*
X154042023Y-72762404D01*
X154232500Y-72762404D01*
X154346785Y-72800500D01*
X154422976Y-72876690D01*
X154461071Y-72952880D01*
X154499166Y-73105261D01*
X154499166Y-73219547D01*
X154461071Y-73371928D01*
X154422976Y-73448119D01*
X154346785Y-73524309D01*
X154232500Y-73562404D01*
X154042023Y-73562404D01*
D17*
X170329785Y-97960261D02*
X170472642Y-98007880D01*
X170710738Y-98007880D01*
X170805976Y-97960261D01*
X170853595Y-97912642D01*
X170901214Y-97817404D01*
X170901214Y-97722166D01*
X170853595Y-97626928D01*
X170805976Y-97579309D01*
X170710738Y-97531690D01*
X170520261Y-97484071D01*
X170425023Y-97436452D01*
X170377404Y-97388833D01*
X170329785Y-97293595D01*
X170329785Y-97198357D01*
X170377404Y-97103119D01*
X170425023Y-97055500D01*
X170520261Y-97007880D01*
X170758357Y-97007880D01*
X170901214Y-97055500D01*
X171329785Y-97484071D02*
X171663119Y-97484071D01*
X171805976Y-98007880D02*
X171329785Y-98007880D01*
X171329785Y-97007880D01*
X171805976Y-97007880D01*
X172805976Y-98007880D02*
X172472642Y-97531690D01*
X172234547Y-98007880D02*
X172234547Y-97007880D01*
X172615500Y-97007880D01*
X172710738Y-97055500D01*
X172758357Y-97103119D01*
X172805976Y-97198357D01*
X172805976Y-97341214D01*
X172758357Y-97436452D01*
X172710738Y-97484071D01*
X172615500Y-97531690D01*
X172234547Y-97531690D01*
X173234547Y-98007880D02*
X173234547Y-97007880D01*
X173663119Y-97722166D02*
X174139309Y-97722166D01*
X173567880Y-98007880D02*
X173901214Y-97007880D01*
X174234547Y-98007880D01*
X175044071Y-98007880D02*
X174567880Y-98007880D01*
X174567880Y-97007880D01*
X175901214Y-98007880D02*
X175329785Y-98007880D01*
X175615500Y-98007880D02*
X175615500Y-97007880D01*
X175520261Y-97150738D01*
X175425023Y-97245976D01*
X175329785Y-97293595D01*
X164473119Y-98007880D02*
X164473119Y-97007880D01*
X164901690Y-97103119D02*
X164949309Y-97055500D01*
X165044547Y-97007880D01*
X165282642Y-97007880D01*
X165377880Y-97055500D01*
X165425500Y-97103119D01*
X165473119Y-97198357D01*
X165473119Y-97293595D01*
X165425500Y-97436452D01*
X164854071Y-98007880D01*
X165473119Y-98007880D01*
X166473119Y-97912642D02*
X166425500Y-97960261D01*
X166282642Y-98007880D01*
X166187404Y-98007880D01*
X166044547Y-97960261D01*
X165949309Y-97865023D01*
X165901690Y-97769785D01*
X165854071Y-97579309D01*
X165854071Y-97436452D01*
X165901690Y-97245976D01*
X165949309Y-97150738D01*
X166044547Y-97055500D01*
X166187404Y-97007880D01*
X166282642Y-97007880D01*
X166425500Y-97055500D01*
X166473119Y-97103119D01*
X167425500Y-98007880D02*
X166854071Y-98007880D01*
X167139785Y-98007880D02*
X167139785Y-97007880D01*
X167044547Y-97150738D01*
X166949309Y-97245976D01*
X166854071Y-97293595D01*
X168529095Y-91003380D02*
X168529095Y-90003380D01*
X168529095Y-90479571D02*
X169100523Y-90479571D01*
X169100523Y-91003380D02*
X169100523Y-90003380D01*
X169529095Y-90098619D02*
X169576714Y-90051000D01*
X169671952Y-90003380D01*
X169910047Y-90003380D01*
X170005285Y-90051000D01*
X170052904Y-90098619D01*
X170100523Y-90193857D01*
X170100523Y-90289095D01*
X170052904Y-90431952D01*
X169481476Y-91003380D01*
X170100523Y-91003380D01*
X169997380Y-72135904D02*
X168997380Y-72135904D01*
X169473571Y-72135904D02*
X169473571Y-71564476D01*
X169997380Y-71564476D02*
X168997380Y-71564476D01*
X169997380Y-70564476D02*
X169997380Y-71135904D01*
X169997380Y-70850190D02*
X168997380Y-70850190D01*
X169140238Y-70945428D01*
X169235476Y-71040666D01*
X169283095Y-71135904D01*
X156106880Y-113871333D02*
X156821166Y-113871333D01*
X156964023Y-113918952D01*
X157059261Y-114014190D01*
X157106880Y-114157047D01*
X157106880Y-114252285D01*
X156106880Y-112918952D02*
X156106880Y-113395142D01*
X156583071Y-113442761D01*
X156535452Y-113395142D01*
X156487833Y-113299904D01*
X156487833Y-113061809D01*
X156535452Y-112966571D01*
X156583071Y-112918952D01*
X156678309Y-112871333D01*
X156916404Y-112871333D01*
X157011642Y-112918952D01*
X157059261Y-112966571D01*
X157106880Y-113061809D01*
X157106880Y-113299904D01*
X157059261Y-113395142D01*
X157011642Y-113442761D01*
X173886880Y-112474333D02*
X174601166Y-112474333D01*
X174744023Y-112521952D01*
X174839261Y-112617190D01*
X174886880Y-112760047D01*
X174886880Y-112855285D01*
X173886880Y-111569571D02*
X173886880Y-111760047D01*
X173934500Y-111855285D01*
X173982119Y-111902904D01*
X174124976Y-111998142D01*
X174315452Y-112045761D01*
X174696404Y-112045761D01*
X174791642Y-111998142D01*
X174839261Y-111950523D01*
X174886880Y-111855285D01*
X174886880Y-111664809D01*
X174839261Y-111569571D01*
X174791642Y-111521952D01*
X174696404Y-111474333D01*
X174458309Y-111474333D01*
X174363071Y-111521952D01*
X174315452Y-111569571D01*
X174267833Y-111664809D01*
X174267833Y-111855285D01*
X174315452Y-111950523D01*
X174363071Y-111998142D01*
X174458309Y-112045761D01*
X151534880Y-65611333D02*
X152249166Y-65611333D01*
X152392023Y-65658952D01*
X152487261Y-65754190D01*
X152534880Y-65897047D01*
X152534880Y-65992285D01*
X151868214Y-64706571D02*
X152534880Y-64706571D01*
X151487261Y-64944666D02*
X152201547Y-65182761D01*
X152201547Y-64563714D01*
X173378880Y-65865333D02*
X174093166Y-65865333D01*
X174236023Y-65912952D01*
X174331261Y-66008190D01*
X174378880Y-66151047D01*
X174378880Y-66246285D01*
X173378880Y-65484380D02*
X173378880Y-64865333D01*
X173759833Y-65198666D01*
X173759833Y-65055809D01*
X173807452Y-64960571D01*
X173855071Y-64912952D01*
X173950309Y-64865333D01*
X174188404Y-64865333D01*
X174283642Y-64912952D01*
X174331261Y-64960571D01*
X174378880Y-65055809D01*
X174378880Y-65341523D01*
X174331261Y-65436761D01*
X174283642Y-65484380D01*
M02*
