M48
; DRILL file {KiCad (5.1.5)-3} date 30-Jul-20 14:07:23
; FORMAT={-:-/ absolute / metric / decimal}
; #@! TF.CreationDate,2020-07-30T14:07:23+07:00
; #@! TF.GenerationSoftware,Kicad,Pcbnew,(5.1.5)-3
; #@! TF.FileFunction,Plated,1,2,PTH
FMAT,2
METRIC
T1C0.400
T2C1.000
%
G90
G05
T1
X130.746Y-102.171
X132.334Y-74.993
X134.62Y-72.898
X135.191Y-71.819
X135.572Y-99.06
X135.763Y-72.898
X136.588Y-92.392
X136.969Y-70.993
X137.047Y-72.326
X137.35Y-93.345
X138.176Y-94.107
X139.319Y-89.98
X140.144Y-90.868
X140.843Y-91.757
X141.668Y-92.583
X142.558Y-106.426
X143.256Y-75.311
X144.208Y-74.422
X145.732Y-85.217
X145.737Y-86.301
X146.304Y-87.249
X149.733Y-90.805
X151.003Y-90.805
X152.527Y-90.805
X160.464Y-73.533
X160.464Y-75.184
X160.464Y-77.025
X168.719Y-88.328
X168.846Y-85.852
X169.799Y-88.328
X169.862Y-85.852
X170.815Y-88.328
X170.879Y-85.852
X171.831Y-85.852
X171.831Y-88.328
T2
X148.363Y-97.79
X148.363Y-100.33
X148.363Y-102.87
X148.363Y-105.41
X132.207Y-65.278
X134.747Y-65.278
X137.287Y-65.278
X139.827Y-65.278
X142.367Y-65.278
X144.907Y-65.278
X147.447Y-65.278
X149.987Y-65.278
X114.236Y-95.807
X116.776Y-95.807
X119.316Y-95.807
X136.271Y-113.538
X138.811Y-113.538
X141.351Y-113.538
X143.891Y-113.538
X146.431Y-113.538
X148.971Y-113.538
X151.511Y-113.538
X154.051Y-113.538
X154.051Y-65.278
X156.591Y-65.278
X159.131Y-65.278
X161.671Y-65.278
X164.211Y-65.278
X166.751Y-65.278
X169.291Y-65.278
X171.831Y-65.278
X173.115Y-99.885
X173.115Y-102.425
X173.115Y-104.965
X173.115Y-107.505
X139.903Y-97.79
X139.903Y-100.33
X139.903Y-102.87
X139.903Y-105.41
X159.131Y-113.538
X161.671Y-113.538
X164.211Y-113.538
X166.751Y-113.538
X169.291Y-113.538
X171.831Y-113.538
X114.236Y-104.267
X116.776Y-104.267
X119.316Y-104.267
X156.21Y-97.79
X156.21Y-100.33
X156.21Y-102.87
X156.21Y-105.41
X165.925Y-99.885
X165.925Y-102.425
X165.925Y-104.965
X165.925Y-107.505
T0
M30
